<svg width="27" height="27" viewBox="0 0 27 27" fill="none" xmlns="http://www.w3.org/2000/svg">
<path d="M13.5 27C6.05565 27 0 20.9444 0 13.5C0 6.05565 6.05565 0 13.5 0C20.9444 0 27 6.0567 27 13.5C27 20.9433 20.9444 27 13.5 27ZM13.5 2.09139C7.21011 2.09139 2.09139 7.20905 2.09139 13.5C2.09139 19.7909 7.21011 24.9086 13.5 24.9086C19.7899 24.9086 24.9086 19.7909 24.9086 13.5C24.9086 7.20905 19.7909 2.09139 13.5 2.09139Z" fill="#6C63FF"/>
<path d="M18.7285 14.6398H14.5457V18.8226C14.5457 19.3999 14.0783 19.8683 13.5 19.8683C12.9217 19.8683 12.4543 19.3999 12.4543 18.8226V14.6398H8.27151C7.69322 14.6398 7.22578 14.1713 7.22578 13.5941C7.22578 13.0169 7.69322 12.5484 8.27151 12.5484H12.4543V8.36561C12.4543 7.78838 12.9217 7.31989 13.5 7.31989C14.0783 7.31989 14.5457 7.78838 14.5457 8.36561V12.5484H18.7285C19.3068 12.5484 19.7742 13.0169 19.7742 13.5941C19.7742 14.1713 19.3068 14.6398 18.7285 14.6398Z" fill="#6C63FF"/>
</svg>
