<svg width="86" height="85" viewBox="0 0 86 85" fill="none" xmlns="http://www.w3.org/2000/svg">
<path d="M34.1347 85C30.1633 85 26.1926 83.5248 23.1639 80.5716C21.7311 79.1746 20.5939 77.5479 19.7836 75.7365C17.6873 71.0497 13.9514 67.3143 9.26409 65.2183C7.45251 64.4082 5.82564 63.271 4.42848 61.8383C-1.49199 55.7672 -1.47379 45.906 4.4691 39.8558C6.8869 37.3942 9.96385 35.8264 13.3671 35.3213C15.3032 35.034 17.0248 34.1707 18.3456 32.8249L18.4481 32.7215C22.1314 29.0385 27.385 27.4264 33.2408 28.1821C38.853 28.9066 44.3853 31.7469 48.819 36.1801C53.2526 40.6132 56.0935 46.1449 56.8178 51.7565C57.5737 57.6118 55.9615 62.8646 52.278 66.5477L52.185 66.64C50.8352 67.9667 49.9711 69.69 49.6851 71.6247C49.1817 75.0299 47.6139 78.1085 45.1518 80.5279C42.1187 83.5085 38.1263 85 34.1347 85ZM30.5064 33.042C27.2217 33.042 24.2194 34.1004 22.0232 36.2964L21.9553 36.3649C19.856 38.5039 17.1433 39.8719 14.1091 40.3222C11.8029 40.6645 9.71678 41.7281 8.07609 43.3983C4.04489 47.5022 4.03242 54.1911 8.04828 58.3089C8.99814 59.2829 10.1017 60.0549 11.3281 60.6034C17.1522 63.2079 21.7942 67.8493 24.3989 73.6727C24.9475 74.8992 25.7195 76.0026 26.6935 76.9522C30.813 80.9688 37.5037 80.9553 41.608 76.9224C43.2789 75.2807 44.3423 73.1933 44.6835 70.8858C45.1318 67.8535 46.4996 65.1392 48.6393 63.0363L48.7029 62.9733C51.253 60.4235 52.354 56.6699 51.8032 52.4041C51.2209 47.8946 48.8914 43.4025 45.2437 39.7551C40.8532 35.3648 35.3709 33.042 30.5064 33.042Z" fill="#AD40F0"/>
<path d="M50.5895 25C47.6301 25 44.9798 23.9961 43.0119 22.1039C40.7151 19.8956 39.6769 16.793 40.0882 13.3675C40.4739 10.1553 42.1132 7.01432 44.7042 4.52299C47.295 2.03182 50.5616 0.455578 53.9023 0.084543C57.465 -0.310504 60.6914 0.68764 62.9882 2.89576C65.285 5.10421 66.3233 8.20686 65.9121 11.6324C65.5264 14.8445 63.8871 17.9855 61.2961 20.4767C58.7053 22.968 55.4385 24.5443 52.0978 24.9151C51.5876 24.9719 51.0842 25 50.5895 25ZM55.3875 4.9353C55.0952 4.9353 54.796 4.95208 54.4909 4.98596C52.2954 5.2297 50.1082 6.30432 48.3326 8.01164C46.5568 9.71913 45.4392 11.8222 45.1857 13.9332C44.9577 15.8312 45.4744 17.4938 46.6403 18.6149C47.8063 19.7361 49.5359 20.2326 51.5092 20.0137C53.7048 19.77 55.8919 18.6954 57.6677 16.9879C59.4435 15.2804 60.5611 13.1775 60.8144 11.0664C61.0424 9.1685 60.5257 7.50591 59.3597 6.38474C58.3741 5.43693 56.9858 4.9353 55.3875 4.9353Z" fill="#AD40F0"/>
<path d="M17.1822 27C14.3364 27 11.7882 25.9559 9.89603 23.9882C7.68758 21.6914 6.6891 18.4648 7.08465 14.9023C7.45552 11.5616 9.03176 8.29502 11.5231 5.70403C14.0143 3.11321 17.1554 1.47391 20.3674 1.08803C23.7934 0.67684 26.8956 1.71526 29.1038 4.01171C31.3123 6.3085 32.3108 9.53527 31.9152 13.0978C31.5444 16.4385 29.9681 19.7051 27.4768 22.2959C24.9856 24.8869 21.8445 26.5262 18.6323 26.9119C18.142 26.9709 17.6578 27 17.1822 27ZM21.7956 6.13284C21.5146 6.13284 21.2269 6.15028 20.9335 6.18552C18.8224 6.43901 16.7194 7.55662 15.0121 9.33224C13.3044 11.1082 12.23 13.2954 11.9861 15.4909C11.767 17.4647 12.2637 19.1938 13.3848 20.3599C14.5058 21.5257 16.1681 22.0428 18.0665 21.8144C20.1776 21.5609 22.2806 20.4433 23.9881 18.6675C25.6956 16.8917 26.7702 14.7046 27.0138 12.5092C27.233 10.5354 26.7362 8.80627 25.6152 7.64026C24.6674 6.65452 23.3324 6.13284 21.7956 6.13284Z" fill="#AD40F0"/>
<path d="M70.59 45C67.6306 45 64.9803 43.9961 63.0124 42.1041C60.7156 39.8956 59.6772 36.7932 60.0886 33.3677C60.4743 30.1555 62.1136 27.0145 64.7045 24.5232C67.2953 22.032 70.5621 20.4558 73.9027 20.0849C77.4649 19.6887 80.6918 20.6878 82.9886 22.8961C85.2853 25.1044 86.3238 28.2071 85.9124 31.6326C85.5267 34.8447 83.8874 37.9857 81.2966 40.477C78.7056 42.9682 75.4389 44.5444 72.0984 44.9155C71.5882 44.9719 71.0846 45 70.59 45ZM75.3879 24.9355C75.0956 24.9355 74.7964 24.9523 74.4913 24.9862C72.2958 25.2299 70.1087 26.3045 68.3329 28.012C66.5571 29.7195 65.4395 31.8223 65.186 33.9334C64.9582 35.8314 65.4747 37.4939 66.6407 38.6151C67.8068 39.7363 69.5362 40.2334 71.5097 40.0137C73.7052 39.77 75.8923 38.6954 77.6681 36.988C79.4439 35.2806 80.5615 33.1775 80.8148 31.0665C81.0428 29.1685 80.5261 27.5059 79.3602 26.3848C78.3745 25.437 76.9863 24.9355 75.3879 24.9355Z" fill="#AD40F0"/>
<path d="M69.1822 78C66.3366 78 63.7882 76.9961 61.896 75.1041C59.6876 72.8956 58.6891 69.7931 59.0847 66.3676C59.4555 63.1555 61.0318 60.0145 63.5231 57.5231C66.0142 55.032 69.1554 53.4557 72.3675 53.0849C75.7927 52.6888 78.8955 53.6878 81.1039 55.8961C83.3123 58.1044 84.3108 61.207 83.9153 64.6325C83.5444 67.8447 81.9682 70.9857 79.477 73.477C76.9857 75.9682 73.8446 77.5444 70.6326 77.9155C70.142 77.972 69.6578 78 69.1822 78ZM73.7956 57.9356C73.5145 57.9356 73.2269 57.9524 72.9334 57.9863C70.8224 58.23 68.7194 59.3046 67.0119 61.0121C65.3044 62.7196 64.2298 64.8225 63.9861 66.9336C63.767 68.8315 64.2637 70.4941 65.3848 71.6153C66.5058 72.7364 68.1691 73.2333 70.0665 73.0139C72.1776 72.7701 74.2806 71.6955 75.9881 69.9882C77.6955 68.2807 78.7701 66.1777 79.0137 64.0666C79.2329 62.1687 78.7361 60.5061 77.6151 59.3849C76.6673 58.4371 75.3325 57.9356 73.7956 57.9356Z" fill="#AD40F0"/>
</svg>
