<svg width="275" height="288" viewBox="0 0 275 288" fill="none" xmlns="http://www.w3.org/2000/svg">
<path d="M191.82 35.1321L191.293 35.6855L227.445 70.1059L227.972 69.5525L191.82 35.1321Z" fill="#E6E6E6"/>
<path d="M228.029 65.8203L227.266 65.8665L227.496 69.6269L223.729 69.5817L223.72 70.346L228.309 70.4004L228.029 65.8203Z" fill="#E6E6E6"/>
<path d="M195.545 34.8918L195.537 35.6561L191.77 35.6109L192 39.3713L191.236 39.4175L190.957 34.8369L195.545 34.8918Z" fill="#E6E6E6"/>
<path d="M209.632 56.8219C211.953 56.8219 213.835 54.9404 213.835 52.6194C213.835 50.2985 211.953 48.417 209.632 48.417C207.312 48.417 205.43 50.2985 205.43 52.6194C205.43 54.9404 207.312 56.8219 209.632 56.8219Z" fill="#E6E6E6"/>
<path d="M83.9438 35.1324L47.7926 69.5527L48.3194 70.1062L84.4707 35.6858L83.9438 35.1324Z" fill="#E6E6E6"/>
<path d="M47.4553 70.4004L52.0438 70.346L52.0352 69.5817L48.2681 69.6269L48.4985 65.8665L47.7351 65.8203L47.4553 70.4004Z" fill="#E6E6E6"/>
<path d="M84.8071 34.8369L84.5278 39.4175L83.7644 39.3713L83.9943 35.6109L80.2272 35.6561L80.219 34.8918L84.8071 34.8369Z" fill="#E6E6E6"/>
<path d="M66.1316 56.8219C68.4524 56.8219 70.3338 54.9404 70.3338 52.6194C70.3338 50.2985 68.4524 48.417 66.1316 48.417C63.8108 48.417 61.9294 50.2985 61.9294 52.6194C61.9294 54.9404 63.8108 56.8219 66.1316 56.8219Z" fill="#E6E6E6"/>
<path d="M169.207 87.1053H105.793C104.881 87.1043 104.007 86.7417 103.363 86.0971C102.718 85.4525 102.355 84.5785 102.354 83.6669V3.43836C102.355 2.52677 102.718 1.65282 103.363 1.00822C104.007 0.36363 104.881 0.00103812 105.793 0H169.207C170.119 0.00103812 170.993 0.36363 171.637 1.00822C172.282 1.65282 172.645 2.52677 172.646 3.43836V83.6669C172.645 84.5785 172.282 85.4525 171.637 86.0971C170.993 86.7417 170.119 87.1043 169.207 87.1053ZM105.793 0.764083C105.084 0.76488 104.404 1.04689 103.903 1.54824C103.401 2.0496 103.119 2.72934 103.118 3.43836V83.6669C103.119 84.376 103.401 85.0557 103.903 85.5571C104.404 86.0584 105.084 86.3404 105.793 86.3412H169.207C169.916 86.3404 170.596 86.0584 171.097 85.5571C171.599 85.0557 171.881 84.376 171.882 83.6669V3.43836C171.881 2.72934 171.599 2.0496 171.097 1.54824C170.596 1.04689 169.916 0.76488 169.207 0.764083H105.793Z" fill="#3F3D56"/>
<path d="M132.225 38.5632H118.266C117.81 38.5627 117.373 38.3814 117.051 38.0591C116.729 37.7368 116.547 37.2998 116.547 36.844V20.3705C116.547 19.9147 116.729 19.4778 117.051 19.1555C117.373 18.8332 117.81 18.6519 118.266 18.6514H132.225C132.681 18.6519 133.118 18.8332 133.44 19.1555C133.762 19.4778 133.943 19.9147 133.944 20.3705V36.844C133.943 37.2998 133.762 37.7368 133.44 38.0591C133.118 38.3814 132.681 38.5627 132.225 38.5632Z" fill="#6C63FF"/>
<path d="M159.348 46.2048H145.389C144.933 46.2043 144.496 46.023 144.174 45.7007C143.852 45.3784 143.671 44.9414 143.67 44.4856V28.0122C143.671 27.5564 143.852 27.1194 144.174 26.7971C144.496 26.4748 144.933 26.2935 145.389 26.293H159.348C159.804 26.2935 160.241 26.4748 160.563 26.7971C160.885 27.1194 161.067 27.5564 161.067 28.0122V44.4856C161.067 44.9414 160.885 45.3784 160.563 45.7007C160.241 46.023 159.804 46.2043 159.348 46.2048Z" fill="#CCCCCC"/>
<path d="M137.573 69.5095H123.614C123.158 69.509 122.721 69.3277 122.399 69.0054C122.077 68.6831 121.896 68.2461 121.895 67.7903V51.3168C121.896 50.861 122.077 50.4241 122.399 50.1018C122.721 49.7795 123.158 49.5982 123.614 49.5977H137.573C138.029 49.5982 138.466 49.7795 138.788 50.1018C139.11 50.4241 139.292 50.861 139.292 51.3168V67.7903C139.292 68.2461 139.11 68.6831 138.788 69.0054C138.466 69.3277 138.029 69.509 137.573 69.5095Z" fill="#FF6584"/>
<path d="M271.562 169.6H208.147C207.235 169.599 206.362 169.237 205.717 168.592C205.072 167.948 204.71 167.074 204.709 166.162V85.9335C204.71 85.0219 205.072 84.1479 205.717 83.5033C206.362 82.8587 207.235 82.4962 208.147 82.4951H271.562C272.473 82.4962 273.347 82.8587 273.992 83.5033C274.636 84.1479 274.999 85.0219 275 85.9335V166.162C274.999 167.074 274.636 167.948 273.992 168.592C273.347 169.237 272.473 169.599 271.562 169.6ZM208.147 83.2592C207.438 83.26 206.758 83.542 206.257 84.0434C205.756 84.5447 205.474 85.2245 205.473 85.9335V166.162C205.474 166.871 205.756 167.551 206.257 168.052C206.758 168.554 207.438 168.836 208.147 168.836H271.562C272.271 168.836 272.951 168.554 273.452 168.052C273.953 167.551 274.235 166.871 274.236 166.162V85.9335C274.235 85.2245 273.953 84.5447 273.452 84.0434C272.951 83.542 272.271 83.26 271.562 83.2592H208.147Z" fill="#3F3D56"/>
<path d="M250.742 100.259H228.967C228.562 100.259 228.173 100.098 227.886 99.8119C227.6 99.5253 227.439 99.1366 227.439 98.7313C227.439 98.326 227.6 97.9373 227.886 97.6507C228.173 97.3641 228.562 97.2031 228.967 97.2031H250.742C251.147 97.2031 251.536 97.3641 251.822 97.6507C252.109 97.9373 252.27 98.326 252.27 98.7313C252.27 99.1366 252.109 99.5253 251.822 99.8119C251.536 100.098 251.147 100.259 250.742 100.259Z" fill="#6C63FF"/>
<path d="M261.438 114.777H218.27C218.07 114.777 217.871 114.738 217.685 114.661C217.499 114.585 217.33 114.472 217.188 114.33C217.046 114.188 216.933 114.02 216.856 113.834C216.779 113.649 216.74 113.45 216.74 113.249C216.74 113.048 216.779 112.849 216.856 112.663C216.933 112.478 217.046 112.309 217.188 112.167C217.33 112.025 217.499 111.913 217.685 111.836C217.871 111.76 218.07 111.72 218.27 111.721H261.438C261.639 111.72 261.838 111.76 262.024 111.836C262.21 111.913 262.378 112.025 262.521 112.167C262.663 112.309 262.776 112.478 262.853 112.663C262.929 112.849 262.969 113.048 262.969 113.249C262.969 113.45 262.929 113.649 262.853 113.834C262.776 114.02 262.663 114.188 262.521 114.33C262.378 114.472 262.21 114.585 262.024 114.661C261.838 114.738 261.639 114.777 261.438 114.777Z" fill="#CCCCCC"/>
<path d="M261.438 122.799H218.27C218.07 122.8 217.871 122.761 217.685 122.684C217.499 122.607 217.33 122.495 217.188 122.353C217.046 122.211 216.933 122.042 216.856 121.857C216.779 121.671 216.74 121.472 216.74 121.271C216.74 121.07 216.779 120.871 216.856 120.686C216.933 120.5 217.046 120.332 217.188 120.19C217.33 120.048 217.499 119.935 217.685 119.859C217.871 119.782 218.07 119.743 218.27 119.743H261.438C261.639 119.743 261.838 119.782 262.024 119.859C262.21 119.935 262.378 120.048 262.521 120.19C262.663 120.332 262.776 120.5 262.853 120.686C262.929 120.871 262.969 121.07 262.969 121.271C262.969 121.472 262.929 121.671 262.853 121.857C262.776 122.042 262.663 122.211 262.521 122.353C262.378 122.495 262.21 122.607 262.024 122.684C261.838 122.761 261.639 122.8 261.438 122.799Z" fill="#CCCCCC"/>
<path d="M261.438 130.823H218.27C218.07 130.823 217.871 130.784 217.685 130.707C217.499 130.631 217.33 130.518 217.188 130.376C217.046 130.234 216.933 130.066 216.856 129.88C216.779 129.695 216.74 129.496 216.74 129.295C216.74 129.094 216.779 128.895 216.856 128.709C216.933 128.524 217.046 128.355 217.188 128.213C217.33 128.071 217.499 127.959 217.685 127.882C217.871 127.806 218.07 127.766 218.27 127.767H261.438C261.639 127.766 261.838 127.806 262.024 127.882C262.21 127.959 262.378 128.071 262.521 128.213C262.663 128.355 262.776 128.524 262.853 128.709C262.929 128.895 262.969 129.094 262.969 129.295C262.969 129.496 262.929 129.695 262.853 129.88C262.776 130.066 262.663 130.234 262.521 130.376C262.378 130.518 262.21 130.631 262.024 130.707C261.838 130.784 261.639 130.823 261.438 130.823Z" fill="#CCCCCC"/>
<path d="M261.438 138.845H218.27C218.07 138.846 217.871 138.806 217.685 138.73C217.499 138.653 217.33 138.541 217.188 138.399C217.046 138.257 216.933 138.088 216.856 137.903C216.779 137.717 216.74 137.518 216.74 137.317C216.74 137.116 216.779 136.917 216.856 136.732C216.933 136.546 217.046 136.378 217.188 136.236C217.33 136.094 217.499 135.981 217.685 135.905C217.871 135.828 218.07 135.789 218.27 135.789H261.438C261.639 135.789 261.838 135.828 262.024 135.905C262.21 135.981 262.378 136.094 262.521 136.236C262.663 136.378 262.776 136.546 262.853 136.732C262.929 136.917 262.969 137.116 262.969 137.317C262.969 137.518 262.929 137.717 262.853 137.903C262.776 138.088 262.663 138.257 262.521 138.399C262.378 138.541 262.21 138.653 262.024 138.73C261.838 138.806 261.639 138.846 261.438 138.845Z" fill="#CCCCCC"/>
<path d="M261.438 146.869H218.27C218.07 146.869 217.871 146.83 217.685 146.753C217.499 146.677 217.33 146.564 217.188 146.422C217.046 146.28 216.933 146.112 216.856 145.926C216.779 145.74 216.74 145.542 216.74 145.341C216.74 145.14 216.779 144.941 216.856 144.755C216.933 144.57 217.046 144.401 217.188 144.259C217.33 144.117 217.499 144.005 217.685 143.928C217.871 143.851 218.07 143.812 218.27 143.813H261.438C261.639 143.812 261.838 143.851 262.024 143.928C262.21 144.005 262.378 144.117 262.521 144.259C262.663 144.401 262.776 144.57 262.853 144.755C262.929 144.941 262.969 145.14 262.969 145.341C262.969 145.542 262.929 145.74 262.853 145.926C262.776 146.112 262.663 146.28 262.521 146.422C262.378 146.564 262.21 146.677 262.024 146.753C261.838 146.83 261.639 146.869 261.438 146.869Z" fill="#CCCCCC"/>
<path d="M261.438 154.891H218.27C218.07 154.892 217.871 154.852 217.685 154.776C217.499 154.699 217.33 154.587 217.188 154.445C217.046 154.303 216.933 154.134 216.856 153.949C216.779 153.763 216.74 153.564 216.74 153.363C216.74 153.162 216.779 152.963 216.856 152.778C216.933 152.592 217.046 152.424 217.188 152.282C217.33 152.14 217.499 152.027 217.685 151.951C217.871 151.874 218.07 151.835 218.27 151.835H261.438C261.639 151.835 261.838 151.874 262.024 151.951C262.21 152.027 262.378 152.14 262.521 152.282C262.663 152.424 262.776 152.592 262.853 152.778C262.929 152.963 262.969 153.162 262.969 153.363C262.969 153.564 262.929 153.763 262.853 153.949C262.776 154.134 262.663 154.303 262.521 154.445C262.378 154.587 262.21 154.699 262.024 154.776C261.838 154.852 261.639 154.892 261.438 154.891Z" fill="#CCCCCC"/>
<path d="M66.853 169.6H3.43815C2.52662 169.599 1.65271 169.237 1.00816 168.592C0.363604 167.948 0.00104066 167.074 3.8147e-06 166.162V85.9335C0.00104066 85.0219 0.363604 84.1479 1.00816 83.5033C1.65271 82.8587 2.52662 82.4962 3.43815 82.4951H66.853C67.7645 82.4962 68.6384 82.8587 69.283 83.5033C69.9275 84.1479 70.2901 85.0219 70.2911 85.9335V166.162C70.2901 167.074 69.9275 167.948 69.283 168.592C68.6384 169.237 67.7645 169.599 66.853 169.6ZM3.43815 83.2592C2.72918 83.26 2.04947 83.542 1.54815 84.0434C1.04683 84.5447 0.764829 85.2245 0.764033 85.9335V166.162C0.764829 166.871 1.04683 167.551 1.54815 168.052C2.04947 168.554 2.72918 168.836 3.43815 168.836H66.853C67.562 168.836 68.2417 168.554 68.743 168.052C69.2443 167.551 69.5263 166.871 69.5271 166.162V85.9335C69.5263 85.2245 69.2443 84.5447 68.743 84.0434C68.2417 83.542 67.562 83.26 66.853 83.2592H3.43815Z" fill="#3F3D56"/>
<path d="M56.7957 101.436H37.6949C37.2896 101.436 36.9009 101.275 36.6143 100.989C36.3278 100.702 36.1668 100.313 36.1668 99.908C36.1668 99.5027 36.3278 99.1141 36.6143 98.8275C36.9009 98.5409 37.2896 98.3799 37.6949 98.3799H56.7957C57.201 98.3799 57.5896 98.5409 57.8762 98.8275C58.1628 99.1141 58.3238 99.5027 58.3238 99.908C58.3238 100.313 58.1628 100.702 57.8762 100.989C57.5896 101.275 57.201 101.436 56.7957 101.436Z" fill="#3F3D56"/>
<path d="M56.7957 109.46H37.6949C37.2896 109.46 36.9009 109.299 36.6143 109.012C36.3278 108.725 36.1668 108.337 36.1668 107.931C36.1668 107.526 36.3278 107.137 36.6143 106.851C36.9009 106.564 37.2896 106.403 37.6949 106.403H56.7957C57.201 106.403 57.5896 106.564 57.8762 106.851C58.1628 107.137 58.3238 107.526 58.3238 107.931C58.3238 108.337 58.1628 108.725 57.8762 109.012C57.5896 109.299 57.201 109.46 56.7957 109.46Z" fill="#3F3D56"/>
<path d="M27.8941 114.028H13.9352C13.4795 114.028 13.0425 113.846 12.7202 113.524C12.3979 113.202 12.2167 112.765 12.2162 112.309V95.8354C12.2167 95.3796 12.3979 94.9426 12.7202 94.6203C13.0425 94.298 13.4795 94.1167 13.9352 94.1162H27.8941C28.3499 94.1167 28.7869 94.298 29.1092 94.6203C29.4314 94.9426 29.6127 95.3796 29.6132 95.8354V112.309C29.6127 112.765 29.4314 113.202 29.1092 113.524C28.7869 113.846 28.3499 114.028 27.8941 114.028Z" fill="#6C63FF"/>
<path d="M56.6634 125.887H13.4954C13.2945 125.888 13.0955 125.848 12.9098 125.772C12.7241 125.695 12.5554 125.583 12.4132 125.441C12.271 125.299 12.1582 125.13 12.0813 124.945C12.0043 124.759 11.9647 124.56 11.9647 124.359C11.9647 124.158 12.0043 123.959 12.0813 123.774C12.1582 123.588 12.271 123.42 12.4132 123.278C12.5554 123.136 12.7241 123.023 12.9098 122.947C13.0955 122.87 13.2945 122.831 13.4954 122.831H56.6634C56.8642 122.831 57.0632 122.87 57.2489 122.947C57.4346 123.023 57.6034 123.136 57.7456 123.278C57.8877 123.42 58.0005 123.588 58.0775 123.774C58.1545 123.959 58.1941 124.158 58.1941 124.359C58.1941 124.56 58.1545 124.759 58.0775 124.945C58.0005 125.13 57.8877 125.299 57.7456 125.441C57.6034 125.583 57.4346 125.695 57.2489 125.772C57.0632 125.848 56.8642 125.888 56.6634 125.887Z" fill="#CCCCCC"/>
<path d="M56.6634 133.91H13.4954C13.2945 133.91 13.0955 133.871 12.9098 133.794C12.7241 133.718 12.5554 133.605 12.4132 133.463C12.271 133.321 12.1582 133.153 12.0813 132.967C12.0043 132.782 11.9647 132.583 11.9647 132.382C11.9647 132.181 12.0043 131.982 12.0813 131.796C12.1582 131.611 12.271 131.442 12.4132 131.3C12.5554 131.158 12.7241 131.046 12.9098 130.969C13.0955 130.892 13.2945 130.853 13.4954 130.854H56.6634C56.8642 130.853 57.0632 130.892 57.2489 130.969C57.4346 131.046 57.6034 131.158 57.7456 131.3C57.8877 131.442 58.0005 131.611 58.0775 131.796C58.1545 131.982 58.1941 132.181 58.1941 132.382C58.1941 132.583 58.1545 132.782 58.0775 132.967C58.0005 133.153 57.8877 133.321 57.7456 133.463C57.6034 133.605 57.4346 133.718 57.2489 133.794C57.0632 133.871 56.8642 133.91 56.6634 133.91Z" fill="#CCCCCC"/>
<path d="M56.6634 141.933H13.4954C13.2945 141.934 13.0955 141.894 12.9098 141.818C12.7241 141.741 12.5554 141.629 12.4132 141.487C12.271 141.345 12.1582 141.176 12.0813 140.991C12.0043 140.805 11.9647 140.606 11.9647 140.405C11.9647 140.204 12.0043 140.005 12.0813 139.82C12.1582 139.634 12.271 139.466 12.4132 139.324C12.5554 139.182 12.7241 139.069 12.9098 138.993C13.0955 138.916 13.2945 138.877 13.4954 138.877H56.6634C56.8642 138.877 57.0632 138.916 57.2489 138.993C57.4346 139.069 57.6034 139.182 57.7456 139.324C57.8877 139.466 58.0005 139.634 58.0775 139.82C58.1545 140.005 58.1941 140.204 58.1941 140.405C58.1941 140.606 58.1545 140.805 58.0775 140.991C58.0005 141.176 57.8877 141.345 57.7456 141.487C57.6034 141.629 57.4346 141.741 57.2489 141.818C57.0632 141.894 56.8642 141.934 56.6634 141.933Z" fill="#CCCCCC"/>
<path d="M56.6634 149.956H13.4954C13.2945 149.956 13.0955 149.917 12.9098 149.84C12.7241 149.764 12.5554 149.651 12.4132 149.509C12.271 149.367 12.1582 149.199 12.0813 149.013C12.0043 148.827 11.9647 148.628 11.9647 148.428C11.9647 148.227 12.0043 148.028 12.0813 147.842C12.1582 147.657 12.271 147.488 12.4132 147.346C12.5554 147.204 12.7241 147.092 12.9098 147.015C13.0955 146.938 13.2945 146.899 13.4954 146.899H56.6634C56.8642 146.899 57.0632 146.938 57.2489 147.015C57.4346 147.092 57.6034 147.204 57.7456 147.346C57.8877 147.488 58.0005 147.657 58.0775 147.842C58.1545 148.028 58.1941 148.227 58.1941 148.428C58.1941 148.628 58.1545 148.827 58.0775 149.013C58.0005 149.199 57.8877 149.367 57.7456 149.509C57.6034 149.651 57.4346 149.764 57.2489 149.84C57.0632 149.917 56.8642 149.956 56.6634 149.956Z" fill="#CCCCCC"/>
<path d="M56.6634 157.979H13.4954C13.2945 157.98 13.0955 157.94 12.9098 157.864C12.7241 157.787 12.5554 157.674 12.4132 157.533C12.271 157.391 12.1582 157.222 12.0813 157.036C12.0043 156.851 11.9647 156.652 11.9647 156.451C11.9647 156.25 12.0043 156.051 12.0813 155.866C12.1582 155.68 12.271 155.511 12.4132 155.37C12.5554 155.228 12.7241 155.115 12.9098 155.038C13.0955 154.962 13.2945 154.923 13.4954 154.923H56.6634C56.8642 154.923 57.0632 154.962 57.2489 155.038C57.4346 155.115 57.6034 155.228 57.7456 155.37C57.8877 155.511 58.0005 155.68 58.0775 155.866C58.1545 156.051 58.1941 156.25 58.1941 156.451C58.1941 156.652 58.1545 156.851 58.0775 157.036C58.0005 157.222 57.8877 157.391 57.7456 157.533C57.6034 157.674 57.4346 157.787 57.2489 157.864C57.0632 157.94 56.8642 157.98 56.6634 157.979Z" fill="#CCCCCC"/>
<path d="M90.8264 216.1V199.626C90.8269 199.171 91.0082 198.734 91.3305 198.411C91.6528 198.089 92.0897 197.908 92.5455 197.907H106.504C106.96 197.908 107.397 198.089 107.719 198.411C108.042 198.734 108.223 199.171 108.223 199.626V216.1C108.223 216.556 108.042 216.993 107.719 217.315C107.397 217.637 106.96 217.819 106.504 217.819H92.5455C92.0897 217.819 91.6528 217.637 91.3305 217.315C91.0082 216.993 90.8269 216.556 90.8264 216.1Z" fill="#E6E6E6"/>
<path d="M95.8547 210.615V194.141C95.8552 193.685 96.0365 193.248 96.3587 192.926C96.681 192.604 97.118 192.422 97.5738 192.422H111.533C111.988 192.422 112.425 192.604 112.748 192.926C113.07 193.248 113.251 193.685 113.252 194.141V210.615C113.251 211.07 113.07 211.507 112.748 211.83C112.425 212.152 111.988 212.333 111.533 212.334H97.5738C97.118 212.333 96.681 212.152 96.3587 211.83C96.0365 211.507 95.8552 211.07 95.8547 210.615Z" fill="#6C63FF"/>
<path d="M158.429 205.343C157.903 205.04 157.451 204.625 157.104 204.127C156.756 203.63 156.522 203.063 156.417 202.465C156.313 201.867 156.341 201.254 156.499 200.668C156.657 200.083 156.941 199.539 157.332 199.075L153.006 167.446L162.019 167.889L163.434 198.739C164.169 199.448 164.62 200.402 164.699 201.42C164.778 202.438 164.481 203.45 163.864 204.264C163.247 205.078 162.353 205.638 161.351 205.837C160.35 206.036 159.31 205.86 158.429 205.343V205.343Z" fill="#A0616A"/>
<path d="M163.256 168.311C163.071 168.528 162.834 168.696 162.568 168.797L154.468 171.889C154.061 172.044 153.61 172.038 153.208 171.871C152.806 171.703 152.483 171.389 152.306 170.991L145.131 154.865C144.442 153.369 144.325 151.673 144.801 150.096C145.154 148.971 145.803 147.962 146.681 147.175C147.559 146.388 148.633 145.852 149.789 145.624C150.679 145.441 151.598 145.454 152.482 145.662C153.541 145.899 154.525 146.395 155.344 147.107C156.163 147.819 156.792 148.725 157.173 149.741L163.553 166.605C163.66 166.89 163.689 167.198 163.637 167.498C163.585 167.798 163.453 168.079 163.256 168.311Z" fill="#CCCCCC"/>
<path d="M121.047 282.542H115.443L113.411 260.822L121.048 260.925L121.047 282.542Z" fill="#A0616A"/>
<path d="M111.44 280.94H122.248V287.746H104.635C104.635 286.852 104.811 285.967 105.153 285.142C105.495 284.316 105.996 283.566 106.628 282.934C107.26 282.302 108.01 281.8 108.836 281.458C109.661 281.116 110.546 280.94 111.44 280.94Z" fill="#2F2E41"/>
<path d="M147.103 282.542H141.498L138.832 260.925L147.104 260.925L147.103 282.542Z" fill="#A0616A"/>
<path d="M137.496 280.94H148.304V287.746H130.691C130.691 286.852 130.867 285.967 131.209 285.142C131.551 284.316 132.052 283.566 132.684 282.934C133.316 282.302 134.066 281.8 134.891 281.458C135.717 281.116 136.602 280.94 137.496 280.94Z" fill="#2F2E41"/>
<path d="M147.807 274.851L139.006 274.199C138.505 274.161 138.036 273.942 137.685 273.582C137.335 273.223 137.128 272.748 137.103 272.247L135.14 231.684C135.122 231.295 134.961 230.926 134.69 230.646C134.418 230.367 134.054 230.196 133.665 230.166C133.277 230.136 132.89 230.249 132.579 230.484C132.268 230.718 132.053 231.058 131.975 231.44L123.788 271.398C123.686 271.889 123.409 272.327 123.008 272.629C122.606 272.93 122.109 273.075 121.608 273.035L113.652 272.399C113.379 272.377 113.114 272.301 112.871 272.175C112.628 272.05 112.412 271.877 112.237 271.667C112.062 271.457 111.93 271.214 111.85 270.952C111.769 270.691 111.742 270.416 111.769 270.144L119.151 196.326C119.179 196.037 119.269 195.758 119.413 195.507C119.557 195.255 119.753 195.037 119.988 194.867C120.222 194.696 120.49 194.577 120.774 194.518C121.058 194.458 121.351 194.459 121.634 194.521L149.704 200.623C150.169 200.725 150.584 200.985 150.879 201.358C151.174 201.732 151.331 202.196 151.323 202.672L150.016 272.838C150.006 273.376 149.785 273.888 149.402 274.265C149.018 274.643 148.502 274.855 147.964 274.856C147.912 274.856 147.86 274.854 147.807 274.851Z" fill="#2F2E41"/>
<path d="M140.107 134.605C146.308 134.605 151.334 129.578 151.334 123.377C151.334 117.176 146.308 112.149 140.107 112.149C133.906 112.149 128.88 117.176 128.88 123.377C128.88 129.578 133.906 134.605 140.107 134.605Z" fill="#A0616A"/>
<path d="M122.687 202.018C121.608 201.05 120.751 199.86 120.175 198.529C119.6 197.198 119.319 195.758 119.353 194.308C119.353 178.171 133.321 142.117 133.759 140.992C133.801 140.721 134.17 140.604 136.103 139.298C138.038 137.991 140.828 137.79 144.395 138.701C144.758 138.794 145.088 138.984 145.35 139.252C145.612 139.519 145.796 139.853 145.881 140.218L146.545 141.177C146.602 141.42 146.716 141.646 146.877 141.837C147.038 142.028 147.242 142.179 147.472 142.277C150.349 143.489 159.493 149.078 156.377 170.113C153.483 189.653 152.308 201.144 151.937 205.178C151.894 205.657 151.684 206.105 151.344 206.445C151.003 206.784 150.555 206.994 150.076 207.037C148.666 207.163 146.245 207.331 143.361 207.331C136.678 207.331 127.51 206.429 122.687 202.018Z" fill="#CCCCCC"/>
<path d="M109.272 196.04C109.005 195.495 108.861 194.899 108.849 194.292C108.838 193.685 108.959 193.084 109.205 192.529C109.452 191.975 109.816 191.481 110.274 191.083C110.732 190.685 111.271 190.392 111.854 190.224L125.884 161.55L133.122 166.94L117.108 193.346C117.324 194.344 117.166 195.387 116.664 196.277C116.163 197.166 115.352 197.841 114.387 198.173C113.421 198.505 112.367 198.472 111.424 198.079C110.481 197.685 109.716 196.96 109.272 196.04L109.272 196.04Z" fill="#A0616A"/>
<path d="M133.915 167.979C133.64 168.056 133.35 168.064 133.072 167.999L124.624 166.053C124.199 165.955 123.829 165.698 123.588 165.336C123.347 164.973 123.254 164.531 123.329 164.102L126.356 146.714C126.618 145.088 127.466 143.614 128.74 142.57C129.659 141.832 130.761 141.356 131.928 141.192C133.095 141.028 134.286 141.181 135.373 141.637C136.214 141.98 136.969 142.503 137.587 143.169C138.336 143.955 138.876 144.916 139.159 145.963C139.443 147.011 139.46 148.113 139.211 149.169L135.112 166.728C135.042 167.024 134.894 167.296 134.684 167.516C134.473 167.736 134.208 167.896 133.915 167.979Z" fill="#CCCCCC"/>
<path d="M137.478 133.522C136.932 132.964 136.529 132.283 136.303 131.535C136.077 130.788 136.035 129.997 136.181 129.231C136.572 127.183 136.802 125.843 136.846 125.356C136.995 123.688 135.309 122.338 133.641 122.123C133.577 122.115 133.522 122.109 133.477 122.106C133.52 122.147 133.565 122.19 133.605 122.228C133.922 122.525 134.317 122.896 134.223 123.278C134.166 123.508 133.956 123.672 133.58 123.777C130.971 124.507 128.963 123.837 127.258 121.666C126.778 121.05 126.449 120.33 126.295 119.564C125.685 116.568 127.312 114.013 128.785 112.399C129.999 111.067 131.968 109.45 134.45 109.312C136.381 109.204 138.677 110.315 139.364 112.317C139.688 111.837 140.119 111.439 140.624 111.154C141.129 110.869 141.693 110.706 142.272 110.678C143.59 110.649 144.887 111.01 146.001 111.715C151.445 114.834 153.784 122.263 151.11 127.938C149.428 131.508 145.783 134.166 141.597 134.874C141.335 134.918 141.07 134.941 140.804 134.941C140.183 134.94 139.568 134.814 138.997 134.57C138.426 134.326 137.909 133.97 137.478 133.522Z" fill="#2F2E41"/>
<path d="M84.8307 288H173.968C174.089 288 174.206 287.952 174.291 287.866C174.377 287.781 174.425 287.664 174.425 287.543C174.425 287.422 174.377 287.306 174.291 287.22C174.206 287.134 174.089 287.086 173.968 287.086H84.8307C84.7095 287.086 84.5932 287.134 84.5075 287.22C84.4218 287.306 84.3736 287.422 84.3736 287.543C84.3736 287.664 84.4218 287.781 84.5075 287.866C84.5932 287.952 84.7095 288 84.8307 288Z" fill="#3F3D56"/>
</svg>
