<svg width="260" height="310" viewBox="0 0 260 310" fill="none" xmlns="http://www.w3.org/2000/svg">
<path d="M154.733 73.6676H153.028V27.0063C153.028 19.8438 150.18 12.9746 145.11 7.90997C140.04 2.84531 133.164 7.90797e-06 125.994 0H27.0341C19.8642 -1.69455e-05 12.988 2.84526 7.91814 7.90991C2.84826 12.9746 1.92246e-05 19.8437 0 27.0062V282.994C-3.39259e-06 290.156 2.84822 297.025 7.91808 302.09C12.9879 307.155 19.8641 310 27.034 310H125.994C133.164 310 140.04 307.155 145.11 302.09C150.18 297.025 153.028 290.156 153.028 282.994V106.882H154.733L154.733 73.6676Z" fill="#3F3D56"/>
<path d="M147.275 27.1943V282.805C147.275 287.673 145.513 292.377 142.313 296.049C139.113 299.721 134.692 302.112 129.865 302.782C128.944 302.911 128.015 302.975 127.085 302.974H27.6461C26.7161 302.975 25.7871 302.911 24.866 302.782C20.0399 302.111 15.6196 299.719 12.4206 296.048C9.22166 292.376 7.46 287.673 7.46069 282.805V27.1943C7.4608 21.8452 9.58795 16.7152 13.3742 12.9328C17.1605 9.15046 22.2958 7.02549 27.6504 7.02539H39.713C39.118 8.48034 38.8906 10.0592 39.0507 11.6227C39.2109 13.1862 39.7538 14.6863 40.6314 15.9907C41.5091 17.2951 42.6946 18.3637 44.0833 19.1023C45.4721 19.8409 47.0214 20.2267 48.5947 20.2257H105.288C106.861 20.2265 108.41 19.8406 109.799 19.1019C111.187 18.3632 112.372 17.2945 113.25 15.99C114.127 14.6855 114.669 13.1854 114.829 11.622C114.989 10.0586 114.761 8.47998 114.165 7.02539H127.085C132.44 7.0255 137.575 9.15047 141.361 12.9328C145.147 16.7152 147.275 21.8452 147.275 27.1943Z" fill="white"/>
<path d="M147.275 218.018V282.805C147.275 287.673 145.513 292.377 142.313 296.049C139.113 299.721 134.692 302.112 129.865 302.782H24.866C20.0399 302.112 15.6196 299.72 12.4206 296.048C9.22166 292.376 7.46 287.673 7.46069 282.805V218.018H147.275Z" fill="#E6E6E6"/>
<path d="M77.3677 273.741C84.7433 273.741 90.7223 267.768 90.7223 260.4C90.7223 253.032 84.7433 247.06 77.3677 247.06C69.9922 247.06 64.0131 253.032 64.0131 260.4C64.0131 267.768 69.9922 273.741 77.3677 273.741Z" fill="white"/>
<path d="M85.3801 260.4H78.1689V253.196H76.5661V260.4H69.3546V262.001H76.5661V269.205H78.1689V262.001H85.3801V260.4Z" fill="#E6E6E6"/>
<path d="M101.08 176.531V188.514L94.9211 195.638C94.9211 195.638 92.3276 194.667 92.3276 188.19L91.3551 178.798L101.08 176.531Z" fill="#FFB9B9"/>
<path d="M94.9215 188.514C94.9215 188.514 104.971 181.713 105.295 179.446C105.619 177.179 114.934 166.975 117.614 173.293C120.144 179.256 109.91 184.367 109.91 184.367C109.91 184.367 102.702 197.582 97.8392 197.258C92.9765 196.934 92.9764 190.781 94.9215 188.514Z" fill="#FFB9B9"/>
<path d="M89.0858 261.38L88.1132 267.209L93.3003 265.914V261.38H89.0858Z" fill="#FFB9B9"/>
<path d="M90.0583 264.618C90.0583 264.618 96.0533 261.07 96.2976 262.682C96.5419 264.294 99.1354 270.447 100.432 271.095C101.729 271.742 103.35 278.867 100.432 278.543C98.1724 278.292 89.8842 273.962 86.2613 272.022C85.8153 271.782 85.4785 271.38 85.3202 270.899C85.1618 270.418 85.194 269.895 85.4101 269.438C85.6226 269.045 85.7692 268.62 85.844 268.18C85.844 267.532 90.0583 264.618 90.0583 264.618Z" fill="#2F2E41"/>
<path d="M87.1409 198.877C87.1409 198.877 110.806 209.888 108.537 218.308C106.268 226.728 97.8389 262.351 97.8389 262.351C97.8389 262.351 88.4376 264.618 87.7893 262.351C87.1409 260.084 93.9487 224.785 93.3003 223.489C92.6519 222.194 80.6573 213.774 80.6573 213.774L56.0195 203.411L66.3933 193.695L87.1409 198.877Z" fill="#2F2E41"/>
<path d="M104.971 263.322L107.889 270.771L102.702 273.038L99.46 267.209L104.971 263.322Z" fill="#FFB9B9"/>
<path d="M87.4653 145.766C87.4653 145.766 84.5476 149.652 86.8169 151.595C89.0862 153.539 87.4653 160.663 87.4653 160.663L84.5476 168.759L72.8771 166.492V153.215L73.5255 146.738C73.5255 146.738 79.3608 141.232 80.0091 137.022C80.6575 132.812 87.4653 145.766 87.4653 145.766Z" fill="#FFB9B9"/>
<path d="M68.0143 196.286C68.0143 196.286 83.2508 213.126 83.2508 213.774C83.2508 214.422 91.3553 227.699 91.3553 227.699L107.24 262.999C107.24 262.999 101.081 271.419 98.4872 270.771C95.8938 270.123 77.4155 232.557 77.4155 232.557C77.4155 232.557 74.1737 224.137 65.4208 222.194C56.6679 220.251 49.8601 213.45 53.1019 205.678C56.3437 197.905 68.0143 196.286 68.0143 196.286Z" fill="#2F2E41"/>
<path d="M87.4653 148.033C93.1945 148.033 97.8391 143.393 97.8391 137.67C97.8391 131.946 93.1945 127.307 87.4653 127.307C81.736 127.307 77.0915 131.946 77.0915 137.67C77.0915 143.393 81.736 148.033 87.4653 148.033Z" fill="#FFB9B9"/>
<path d="M87.141 154.509C87.141 154.509 85.8443 161.958 84.5476 162.606C83.2508 163.253 82.2783 165.52 79.3607 162.282C76.443 159.043 73.8496 152.566 73.8496 152.566L63.8 164.873L62.8275 198.877C62.8275 198.877 74.1738 195.962 77.7398 198.877C81.3058 201.791 89.0861 201.467 89.0861 201.467L87.4652 194.99L88.7619 183.98L88.4378 173.94L88.1136 166.816L87.141 154.509Z" fill="#6C63FF"/>
<path d="M85.9989 149.059C85.9989 149.059 90.3827 151.271 90.7069 152.567C91.0311 153.862 96.8663 156.453 96.8663 156.453C96.8663 156.453 99.1356 158.72 99.1356 160.015C99.1356 161.31 91.3553 176.207 91.3553 176.207C91.3553 176.207 89.7343 186.247 90.3827 188.19C91.031 190.133 89.086 197.581 89.086 197.581L92.9761 202.115H89.4102C89.4102 202.115 85.52 200.172 85.52 199.201C85.52 198.229 86.1683 191.428 86.4925 188.514C86.8167 185.599 86.8167 175.236 86.1683 171.674C85.52 168.111 85.8442 158.72 85.8442 156.453C85.8442 154.186 85.9989 149.059 85.9989 149.059Z" fill="#3F3D56"/>
<path d="M75.9567 144.142C75.9567 144.142 74.4979 144.471 70.2836 145.766C66.0693 147.062 59.5856 149.005 57.3164 151.595C55.7236 153.511 54.3127 155.571 53.102 157.749L54.3987 181.066C54.3987 181.066 51.8053 185.923 52.1295 188.514C52.4537 191.105 55.0471 191.429 53.102 196.934C51.1569 202.44 47.2668 207.297 50.8328 207.945C54.3988 208.593 63.8 206.326 68.0143 207.621C72.2287 208.917 77.0914 202.763 77.0914 202.763C77.0914 202.763 70.6078 203.411 71.5803 200.82C72.5529 198.23 83.2508 169.083 80.9816 162.606C78.7123 156.129 75.9567 144.142 75.9567 144.142Z" fill="#3F3D56"/>
<path d="M97.5147 158.396L99.1356 159.691C99.1356 159.691 103.674 175.883 102.377 177.503C101.081 179.122 90.7068 182.684 90.0585 180.417C89.4101 178.15 97.5147 158.396 97.5147 158.396Z" fill="#3F3D56"/>
<path d="M49.5361 169.73C49.5361 169.73 44.6734 183.656 44.6734 187.542C44.6734 191.428 45.3218 214.098 45.3218 214.098C45.3218 214.098 48.5636 227.705 55.3714 223.819C62.1792 219.933 52.4538 213.45 52.4538 213.45C52.4538 213.45 52.7779 187.866 55.3714 184.304C57.9648 180.741 58.9374 175.56 58.9374 175.56L49.5361 169.73Z" fill="#FFB9B9"/>
<path d="M102.702 270.447C102.702 270.447 107.565 267.857 108.537 269.8C109.51 271.743 114.697 282.43 114.048 283.725C113.4 285.021 109.834 290.202 105.62 288.907C101.405 287.611 101.081 280.811 101.081 280.811L100.757 273.038L102.702 270.447Z" fill="#2F2E41"/>
<path d="M89.4967 135.166C88.7821 135.502 87.9343 135.703 87.4853 136.352C87.1526 136.833 87.1195 137.458 86.8767 137.99C86.6117 138.517 86.1557 138.923 85.6015 139.125C85.0473 139.328 84.4366 139.311 83.894 139.08C83.7614 138.435 83.386 137.865 82.8451 137.488C82.5719 137.309 82.2483 137.222 81.9218 137.24C81.5954 137.258 81.2832 137.38 81.0314 137.588C80.3632 138.224 80.5997 139.334 80.2879 140.202C79.9952 140.813 79.5925 141.364 79.0999 141.829C78.3904 142.647 77.8251 143.606 76.9706 144.272C76.1161 144.937 74.8203 145.225 73.9714 144.553C73.2576 143.988 73.1096 142.944 73.2829 142.051C73.4563 141.158 73.8862 140.335 74.1286 139.458C74.9164 136.607 73.6604 133.564 74.0491 130.633C74.547 126.876 77.7429 123.909 81.31 122.622C82.7945 122.018 84.4196 121.846 85.9978 122.126C87.6291 122.49 89.0228 123.527 90.5852 124.12C92.256 124.755 94.0729 124.866 95.8214 125.237C97.5699 125.608 99.3692 126.325 100.384 127.795C101.092 128.82 101.335 130.094 101.921 131.193C102.596 132.447 103.69 133.426 105.012 133.959L103.164 133.854C103.474 134.678 103.979 135.415 104.637 136.001C103.77 136.178 102.869 136.059 102.078 135.663C102.092 136.043 102.184 136.415 102.348 136.758C102.512 137.1 102.745 137.406 103.032 137.655C101.61 137.612 100.11 137.547 98.9078 136.786C98.3192 136.413 97.8391 135.894 97.2852 135.471C96.1044 134.57 94.6395 134.143 93.2115 133.733C92.4616 133.518 91.559 133.22 90.8809 133.701C90.3161 134.103 90.227 134.823 89.4967 135.166Z" fill="#2F2E41"/>
<path d="M57.9646 153.862L53.1018 157.748L46.6182 172.645C46.6182 172.645 55.6953 179.77 57.9646 178.799C60.2338 177.827 64.124 160.663 64.124 160.663L57.9646 153.862Z" fill="#3F3D56"/>
<path d="M120.498 176.277C120.565 176.197 120.564 176.086 120.496 176.03C120.428 175.973 120.318 175.992 120.252 176.071C120.185 176.151 120.186 176.262 120.254 176.319C120.323 176.375 120.432 176.357 120.498 176.277Z" fill="#F2F2F2"/>
<path d="M115.626 148C115.195 148.001 114.782 148.22 114.477 148.61C114.172 149 114 149.529 114 150.081V184.919C114 185.471 114.172 186 114.477 186.39C114.782 186.78 115.195 186.999 115.626 187H225.374C225.805 186.999 226.218 186.78 226.523 186.39C226.828 186 227 185.471 227 184.919V150.081C227 149.529 226.828 149 226.523 148.61C226.218 148.22 225.805 148.001 225.374 148H115.626Z" fill="#E6E6E6"/>
<path d="M116 185H225V150H116V185Z" fill="white"/>
<path d="M134.232 178.377C140.335 178.377 145.282 173.434 145.282 167.337C145.282 161.24 140.335 156.298 134.232 156.298C128.129 156.298 123.181 161.24 123.181 167.337C123.181 173.434 128.129 178.377 134.232 178.377Z" fill="#6C63FF"/>
<path d="M150.239 160C149.911 160.001 149.595 160.212 149.363 160.587C149.131 160.962 149 161.47 149 162C149 162.53 149.131 163.038 149.363 163.413C149.595 163.788 149.911 163.999 150.239 164H208.759C209.088 164 209.404 163.789 209.636 163.414C209.869 163.039 210 162.53 210 162C210 161.47 209.869 160.961 209.636 160.586C209.404 160.211 209.088 160 208.759 160H150.239Z" fill="#E6E6E6"/>
<path d="M150.239 171C149.911 171.001 149.595 171.212 149.363 171.587C149.131 171.962 149 172.47 149 173C149 173.53 149.131 174.038 149.363 174.413C149.595 174.788 149.911 174.999 150.239 175H208.759C209.088 175 209.404 174.789 209.636 174.414C209.869 174.039 210 173.53 210 173C210 172.47 209.869 171.961 209.636 171.586C209.404 171.211 209.088 171 208.759 171H150.239Z" fill="#E6E6E6"/>
<path d="M24.8674 41.2471C24.4556 41.2475 24.0607 41.4111 23.7695 41.7021C23.4783 41.993 23.3145 42.3874 23.3141 42.7988V68.7812C23.3145 69.1926 23.4783 69.5871 23.7695 69.878C24.0607 70.169 24.4556 70.3326 24.8674 70.3331H129.718C130.13 70.3326 130.525 70.169 130.816 69.878C131.107 69.5871 131.271 69.1926 131.272 68.7812V42.7988C131.271 42.3874 131.107 41.993 130.816 41.7021C130.525 41.4111 130.13 41.2475 129.718 41.2471H24.8674Z" fill="white"/>
<path d="M24.8674 41.2471C24.4556 41.2475 24.0607 41.4111 23.7695 41.7021C23.4783 41.993 23.3145 42.3874 23.3141 42.7988V68.7812C23.3145 69.1926 23.4783 69.5871 23.7695 69.878C24.0607 70.169 24.4556 70.3326 24.8674 70.3331H129.718C130.13 70.3326 130.525 70.169 130.816 69.878C131.107 69.5871 131.271 69.1926 131.272 68.7812V42.7988C131.271 42.3874 131.107 41.993 130.816 41.7021C130.525 41.4111 130.13 41.2475 129.718 41.2471H24.8674Z" fill="#E6E6E6"/>
<path d="M25.0616 68.5866H129.524V42.9922H25.0616V68.5866Z" fill="white"/>
<path d="M38.4593 63.936C42.9632 63.936 46.6143 60.2886 46.6143 55.7893C46.6143 51.29 42.9632 47.6426 38.4593 47.6426C33.9553 47.6426 30.3042 51.29 30.3042 55.7893C30.3042 60.2886 33.9553 63.936 38.4593 63.936Z" fill="#6C63FF"/>
<path d="M57.2937 50.3584C56.9332 50.3584 56.5875 50.5015 56.3326 50.7561C56.0777 51.0107 55.9345 51.3561 55.9345 51.7162C55.9345 52.0763 56.0777 52.4216 56.3326 52.6763C56.5875 52.9309 56.9332 53.074 57.2937 53.074H121.369C121.73 53.074 122.075 52.9309 122.33 52.6763C122.585 52.4216 122.728 52.0763 122.728 51.7162C122.728 51.3561 122.585 51.0107 122.33 50.7561C122.075 50.5015 121.73 50.3584 121.369 50.3584H57.2937Z" fill="#E6E6E6"/>
<path d="M57.2936 58.5049C56.9335 58.5055 56.5884 58.6489 56.334 58.9034C56.0797 59.158 55.9368 59.503 55.9368 59.8627C55.9368 60.2224 56.0797 60.5674 56.334 60.8219C56.5884 61.0765 56.9335 61.2198 57.2936 61.2205H121.369C121.548 61.2208 121.725 61.1859 121.89 61.1178C122.055 61.0497 122.205 60.9497 122.332 60.8236C122.458 60.6975 122.559 60.5477 122.627 60.3828C122.695 60.2179 122.731 60.0412 122.731 59.8627C122.731 59.6842 122.695 59.5074 122.627 59.3425C122.559 59.1776 122.458 59.0278 122.332 58.9017C122.205 58.7756 122.055 58.6756 121.89 58.6075C121.725 58.5395 121.548 58.5046 121.369 58.5049H57.2936Z" fill="#E6E6E6"/>
<path d="M24.8674 87.6758C24.4556 87.6762 24.0607 87.8398 23.7695 88.1308C23.4783 88.4217 23.3145 88.8161 23.3141 89.2275V115.21C23.3145 115.621 23.4783 116.016 23.7695 116.307C24.0607 116.598 24.4556 116.761 24.8674 116.762H129.718C130.13 116.761 130.525 116.598 130.816 116.307C131.107 116.016 131.271 115.621 131.272 115.21V89.2275C131.271 88.8161 131.107 88.4217 130.816 88.1308C130.525 87.8398 130.13 87.6762 129.718 87.6758H24.8674Z" fill="white"/>
<path d="M24.8674 87.6758C24.4556 87.6762 24.0607 87.8398 23.7695 88.1308C23.4783 88.4217 23.3145 88.8161 23.3141 89.2275V115.21C23.3145 115.621 23.4783 116.016 23.7695 116.307C24.0607 116.598 24.4556 116.761 24.8674 116.762H129.718C130.13 116.761 130.525 116.598 130.816 116.307C131.107 116.016 131.271 115.621 131.272 115.21V89.2275C131.271 88.8161 131.107 88.4217 130.816 88.1308C130.525 87.8398 130.13 87.6762 129.718 87.6758H24.8674Z" fill="#E6E6E6"/>
<path d="M25.0616 115.016H129.524V89.4219H25.0616V115.016Z" fill="white"/>
<path d="M38.4593 110.366C42.9632 110.366 46.6143 106.718 46.6143 102.219C46.6143 97.7197 42.9632 94.0723 38.4593 94.0723C33.9553 94.0723 30.3042 97.7197 30.3042 102.219C30.3042 106.718 33.9553 110.366 38.4593 110.366Z" fill="#6C63FF"/>
<path d="M57.2937 96.7871C56.9332 96.7871 56.5875 96.9302 56.3326 97.1848C56.0777 97.4394 55.9345 97.7848 55.9345 98.1449C55.9345 98.505 56.0777 98.8504 56.3326 99.105C56.5875 99.3596 56.9332 99.5027 57.2937 99.5027H121.369C121.73 99.5027 122.075 99.3596 122.33 99.105C122.585 98.8504 122.728 98.505 122.728 98.1449C122.728 97.7848 122.585 97.4394 122.33 97.1848C122.075 96.9302 121.73 96.7871 121.369 96.7871H57.2937Z" fill="#E6E6E6"/>
<path d="M57.2936 104.935C56.9335 104.935 56.5884 105.079 56.334 105.333C56.0797 105.588 55.9368 105.933 55.9368 106.292C55.9368 106.652 56.0797 106.997 56.334 107.252C56.5884 107.506 56.9335 107.65 57.2936 107.65H121.369C121.73 107.65 122.075 107.507 122.33 107.252C122.585 106.998 122.728 106.652 122.728 106.292C122.728 105.932 122.585 105.587 122.33 105.332C122.075 105.078 121.73 104.935 121.369 104.935H57.2936Z" fill="#E6E6E6"/>
</svg>
