<svg width="24" height="24" viewBox="0 0 24 24" fill="none" xmlns="http://www.w3.org/2000/svg">
<g clip-path="url(#clip0)">
<path fill-rule="evenodd" clip-rule="evenodd" d="M11.9991 22.5C14.7837 22.5 17.4542 21.3938 19.4232 19.4246C21.3922 17.4555 22.4984 14.7848 22.4984 12C22.4984 9.21523 21.3922 6.54451 19.4232 4.57538C17.4542 2.60625 14.7837 1.5 11.9991 1.5C9.21456 1.5 6.54404 2.60625 4.57505 4.57538C2.60606 6.54451 1.49989 9.21523 1.49989 12C1.49989 14.7848 2.60606 17.4555 4.57505 19.4246C6.54404 21.3938 9.21456 22.5 11.9991 22.5ZM23.9983 12C23.9983 15.1826 22.7341 18.2348 20.4838 20.4853C18.2335 22.7357 15.1815 24 11.9991 24C8.81676 24 5.76474 22.7357 3.51446 20.4853C1.26419 18.2348 0 15.1826 0 12C0 8.8174 1.26419 5.76516 3.51446 3.51472C5.76474 1.26428 8.81676 0 11.9991 0C15.1815 0 18.2335 1.26428 20.4838 3.51472C22.7341 5.76516 23.9983 8.8174 23.9983 12Z" fill="#6C63FF"/>
<path fill-rule="evenodd" clip-rule="evenodd" d="M11.2492 4.5C11.4481 4.5 11.6389 4.57902 11.7795 4.71967C11.9201 4.86032 11.9992 5.05109 11.9992 5.25V13.065L16.8708 15.849C17.0385 15.9502 17.1599 16.1129 17.2092 16.3024C17.2585 16.492 17.2317 16.6933 17.1346 16.8633C17.0374 17.0333 16.8776 17.1586 16.6893 17.2124C16.501 17.2661 16.2991 17.2441 16.1269 17.151L10.8772 14.151C10.7625 14.0854 10.667 13.9907 10.6007 13.8764C10.5343 13.762 10.4993 13.6322 10.4993 13.5V5.25C10.4993 5.05109 10.5783 4.86032 10.7189 4.71967C10.8596 4.57902 11.0503 4.5 11.2492 4.5Z" fill="#6C63FF"/>
</g>
<defs>
<clipPath id="clip0">
<rect width="23.9983" height="24" fill="white"/>
</clipPath>
</defs>
</svg>
