<svg width="50" height="50" viewBox="0 0 50 50" fill="none" xmlns="http://www.w3.org/2000/svg">
<circle cx="25" cy="25" r="25" fill="#6C63FF"/>
<path d="M41.8316 15.0867L41.8291 15.0842L34.8284 8.16903C34.717 8.0573 34.5638 7.99622 34.4052 8.00018C34.2468 8.00299 34.0964 8.06941 33.9887 8.18423L31.8215 10.4893C31.6101 10.7142 31.6141 11.0633 31.8306 11.2833L31.9949 11.4502L31.1344 12.3002L29.775 11.9648C28.5558 11.6701 27.2695 12.031 26.3892 12.9148L23.9095 15.7694L21.0281 12.9232C20.2067 12.1072 18.9875 11.8228 17.8833 12.1894C17.8173 12.2113 17.7559 12.2444 17.7015 12.2873L17.5431 12.4133L17.1591 12.0341L17.9135 11.2889C18.1413 11.0641 18.1413 10.6993 17.9137 10.4743L15.5799 8.16903C15.3522 7.944 14.9829 7.94392 14.7552 8.16881L7.17091 15.6605C6.9431 15.8854 6.94303 16.2502 7.1707 16.4751L9.50447 18.7804C9.73214 19.0055 10.1014 19.0055 10.3292 18.7806L10.5929 18.5202L11.9753 19.8857L11.6358 21.2285C11.338 22.4151 11.688 23.6693 12.5593 24.5376L17.5011 29.5595V34.0645C17.5118 35.0974 18.0985 36.0402 19.0268 36.5159C19.5245 36.7775 19.8353 37.2893 19.8346 37.8463V37.9661H19.2512C18.9292 37.9659 18.6681 38.2236 18.6678 38.5417V41.4237C18.6676 41.7418 18.9286 41.9998 19.2506 42H30.3356C30.6577 42.0002 30.9188 41.7425 30.919 41.4244V38.5424C30.9193 38.2243 30.6583 37.9663 30.3363 37.9661H29.7523V37.387L30.6769 36.5446C31.5618 35.8833 32.083 34.8516 32.0858 33.7555V27.0049C32.7766 26.9229 33.4188 26.6117 33.9072 26.1222L36.9911 22.8143C37.716 22.1034 37.9684 21.0471 37.6417 20.0911C37.5482 19.8132 38.0508 18.9037 38.6495 18.2062C38.7563 18.3109 38.9001 18.3707 39.0506 18.3729H39.0563C39.2099 18.3729 39.3573 18.3131 39.4665 18.2063L41.8268 15.9012C42.0559 15.6777 42.058 15.313 41.8316 15.0867ZM9.917 17.5582L8.40843 16.0679L15.1675 9.39129L16.6762 10.8814L9.917 17.5582ZM17.5528 27.9585L13.39 23.7283C12.8043 23.1461 12.5684 22.3045 12.7673 21.5076L13.1872 19.8486C13.2371 19.6523 13.1789 19.4446 13.0339 19.3016L11.4179 17.7053L16.3343 12.849L17.0886 13.5941C17.2993 13.802 17.6347 13.82 17.8669 13.6357L18.346 13.2547C19.008 13.0719 19.7184 13.2568 20.2033 13.7382L23.4192 16.9148L23.4137 16.9189C23.1534 17.1551 22.9594 17.4539 22.8508 17.7862C22.4892 17.5926 22.0772 17.5108 21.668 17.5515C20.6091 17.6879 19.8212 18.5857 19.8346 19.6404V25.667C18.6743 25.9037 17.7732 26.8086 17.5528 27.9585ZM29.7523 40.8475H19.8346V39.1187H29.7523V40.8475ZM30.919 33.7555C30.9123 34.5087 30.5461 35.2146 29.9311 35.66L28.7741 36.7101C28.6538 36.8192 28.5854 36.9731 28.5855 37.1344V37.9662H21.0014V37.8463C21.0027 36.8634 20.454 35.9603 19.5754 35.499C19.0279 35.223 18.6791 34.6715 18.6678 34.0646V28.4904C18.6701 27.7602 19.1373 27.1104 19.8346 26.8678V30.4747H21.0014V19.6404C20.9835 19.176 21.3196 18.7715 21.7842 18.6983C22.0317 18.6731 22.2784 18.7526 22.4633 18.9172C22.6477 19.0803 22.7527 19.3136 22.7516 19.5582V28.1696H23.9184V18.4056C23.918 17.9284 24.3094 17.5413 24.7925 17.5409C24.8195 17.5409 24.8464 17.5422 24.8732 17.5446C25.3457 17.6223 25.6862 18.0346 25.6685 18.5074V28.1695H26.8353V20.1344C26.8349 19.6572 27.2263 19.2701 27.7094 19.2698C27.7364 19.2698 27.7633 19.271 27.7902 19.2734C28.2626 19.3512 28.6031 19.7634 28.5855 20.2362V28.1695H29.7523V23.41C30.4496 23.6526 30.9168 24.3024 30.919 25.0326V33.7555ZM36.5353 20.4558C36.7206 21.006 36.5707 21.6124 36.1496 22.0163L33.0657 25.3242C32.7989 25.5906 32.4577 25.7722 32.0857 25.8459V25.0327C32.0839 23.6641 31.1093 22.4849 29.7522 22.2094V20.2363C29.7727 19.1651 28.9684 18.2527 27.8915 18.1254C27.5257 18.095 27.1582 18.161 26.8266 18.3167C26.7579 17.3196 25.9794 16.5125 24.9745 16.3966C24.9497 16.3945 24.9253 16.3991 24.9005 16.3979L27.2443 13.6976C27.8337 13.1193 28.6857 12.8862 29.4924 13.0825L31.1719 13.4973C31.3706 13.5465 31.5808 13.489 31.7256 13.3459L32.8082 12.2765L37.8348 17.3826C37.2964 17.9997 36.1902 19.4336 36.5353 20.4558ZM39.0643 16.9784L33.0537 10.8724L34.4313 9.40642L40.5894 15.4893L39.0643 16.9784Z" fill="white"/>
</svg>
