<svg width="50" height="50" viewBox="0 0 50 50" fill="none" xmlns="http://www.w3.org/2000/svg">
<circle cx="25" cy="25" r="25" fill="#6C63FF"/>
<path d="M27.2188 16.4375H16.3438C15.8435 16.4375 15.4375 16.8435 15.4375 17.3438C15.4375 17.844 15.8435 18.25 16.3438 18.25H27.2188C27.719 18.25 28.125 17.844 28.125 17.3438C28.125 16.8435 27.719 16.4375 27.2188 16.4375Z" fill="white"/>
<path d="M23.5938 20.0625H16.3438C15.8435 20.0625 15.4375 20.4685 15.4375 20.9688C15.4375 21.469 15.8435 21.875 16.3438 21.875H23.5938C24.094 21.875 24.5 21.469 24.5 20.9688C24.5 20.4685 24.094 20.0625 23.5938 20.0625Z" fill="white"/>
<path d="M29.9375 11H13.625C11.6258 11 10 12.6258 10 14.625V32.75C10 33.1016 10.203 33.4224 10.522 33.5711C10.6434 33.6273 10.7757 33.6562 10.9062 33.6562C11.1147 33.6562 11.3213 33.5837 11.4863 33.446L16.6718 29.125H29.9375C31.9367 29.125 33.5625 27.4992 33.5625 25.5V14.625C33.5625 12.6258 31.9367 11 29.9375 11ZM31.75 25.5C31.75 26.4987 30.938 27.3125 29.9375 27.3125H16.3438C16.1317 27.3125 15.9269 27.3868 15.7638 27.5228L11.8125 30.8161V14.625C11.8125 13.6263 12.6245 12.8125 13.625 12.8125H29.9375C30.938 12.8125 31.75 13.6263 31.75 14.625V25.5Z" fill="white"/>
<path d="M35.375 18.25C34.8748 18.25 34.4688 18.656 34.4688 19.1562C34.4688 19.6565 34.8748 20.0625 35.375 20.0625C36.3755 20.0625 37.1875 20.8763 37.1875 21.875V37.2069L34.128 34.7601C33.9685 34.6332 33.7673 34.5625 33.5625 34.5625H20.875C19.8745 34.5625 19.0625 33.7487 19.0625 32.75V31.8438C19.0625 31.3435 18.6565 30.9375 18.1562 30.9375C17.656 30.9375 17.25 31.3435 17.25 31.8438V32.75C17.25 34.7492 18.8758 36.375 20.875 36.375H33.2435L37.5264 39.8024C37.6914 39.9329 37.8926 40 38.0938 40C38.2261 40 38.3602 39.971 38.4871 39.9112C38.8006 39.7589 39 39.4417 39 39.0938V21.875C39 19.8758 37.3742 18.25 35.375 18.25Z" fill="white"/>
</svg>
