<svg width="81" height="81" viewBox="0 0 81 81" fill="none" xmlns="http://www.w3.org/2000/svg">
<path d="M0.172212 7.40721L5.56457 16.8451C5.74646 17.1641 6.0509 17.3948 6.40692 17.4841L11.4377 18.7421L28.6923 36L30.5988 34.0937L13.0742 16.5662C12.9017 16.3931 12.6854 16.2705 12.4486 16.2112L7.61471 14.9982L3.02366 6.95794L6.95979 3.02103L15.0017 7.61742L16.2151 12.4523C16.2739 12.6897 16.397 12.9066 16.5694 13.0791L34.094 30.6071L36 28.7002L18.7455 11.4423L17.4878 6.41328C17.3985 6.05664 17.1678 5.75158 16.8489 5.5691L7.4123 0.176231C6.88604 -0.12328 6.22392 -0.0345361 5.7947 0.393099L0.402901 5.78652C-0.0307503 6.21305 -0.125022 6.87641 0.172212 7.40721Z" fill="#AD40F0"/>
<path d="M56 26.872L26.8725 56L25 54.1275L54.128 25L56 26.872Z" fill="#AD40F0"/>
<path d="M21.735 57.6467C21.4893 57.2452 21.0482 57 20.5714 57H12.4286C11.9523 57 11.5107 57.2452 11.2656 57.6467L7.19387 64.3133C6.93538 64.7356 6.93538 65.2638 7.19387 65.6867L11.2656 72.3533C11.5107 72.7543 11.9523 73 12.4286 73H20.5714C21.0482 73 21.4893 72.7543 21.735 72.3533L25.8061 65.6867C26.0646 65.2638 26.0646 64.7356 25.8061 64.3133L21.735 57.6467ZM19.8038 70.3331H13.1968L9.93962 65L13.1968 59.6663H19.8038L23.0609 65L19.8038 70.3331Z" fill="#AD40F0"/>
<path d="M64.7723 32.3878C73.6847 32.4178 80.9346 25.2171 80.9646 16.3049C80.969 14.9483 80.8025 13.5971 80.4688 12.2821C80.289 11.5588 79.5568 11.1186 78.8335 11.2985C78.5959 11.3579 78.3794 11.4805 78.2062 11.6532L69.8061 20.0474L63.1414 17.8265L60.9187 11.1636L69.3187 2.76215C69.8456 2.2348 69.845 1.3805 69.3176 0.853713C69.1439 0.679966 68.9252 0.556734 68.6859 0.497894C60.0427 -1.69087 51.2624 3.54095 49.0736 12.1833C48.7411 13.4945 48.5751 14.8422 48.5795 16.195C48.5829 17.2575 48.6922 18.3166 48.9076 19.3569L19.3548 48.9082C18.3145 48.6933 17.2553 48.584 16.1934 48.5801C7.24985 48.5801 0 55.8297 0 64.7729C0 73.7156 7.24985 80.9652 16.1934 80.9652C25.1363 80.9652 32.3862 73.7156 32.3862 64.7729C32.3828 63.7105 32.2729 62.6513 32.0581 61.6111L39.1331 54.5363L42.2273 57.6305C42.7547 58.1572 43.6084 58.1572 44.1358 57.6305L44.8103 56.9555C45.402 56.3676 46.3585 56.3676 46.9502 56.9555C47.5414 57.545 47.5426 58.502 46.953 59.0931C46.9525 59.0937 46.9514 59.0948 46.9502 59.0959L46.2758 59.7704C45.749 60.2972 45.749 61.1515 46.2758 61.6782L62.3731 77.775C66.607 82.0476 73.5027 82.0787 77.7754 77.845C82.0476 73.6112 82.0787 66.7152 77.8448 62.4432C77.822 62.4199 77.7987 62.3965 77.7754 62.3732L61.6781 46.277C61.1513 45.7502 60.297 45.7502 59.7701 46.277L59.0957 46.9514C58.5034 47.5398 57.5475 47.5398 56.9551 46.9514C56.3645 46.3619 56.3628 45.4049 56.9524 44.8143C56.9535 44.8132 56.9546 44.8126 56.9551 44.8115L57.6302 44.1365C58.157 43.6097 58.157 42.7554 57.6302 42.2286L54.5359 39.1345L61.6109 32.0598C62.6512 32.2746 63.7104 32.3845 64.7723 32.3878ZM70.0743 78.2669C69.0939 78.2652 68.1219 78.0881 67.2043 77.7434L77.7432 67.2043C79.3336 71.4347 77.1936 76.153 72.9631 77.7434C72.0399 78.0903 71.0613 78.268 70.0743 78.2669ZM54.7869 43.1962C53.2925 44.9786 53.5267 47.6353 55.3092 49.1291C56.8758 50.4419 59.159 50.4408 60.7238 49.1252L75.8675 64.2817C76.0318 64.4465 76.1856 64.6203 76.3343 64.7968L64.7967 76.334C64.6197 76.1858 64.4459 76.032 64.281 75.8671L49.1258 60.7113C50.6201 58.9288 50.3859 56.2721 48.6034 54.7784C47.0368 53.465 44.7531 53.4666 43.1882 54.7817L41.0294 52.6229L52.6274 41.0424L54.7869 43.1962ZM60.2359 29.6245L29.6239 60.2294C29.288 60.5647 29.1532 61.0515 29.2675 61.5117C31.1188 68.7819 26.7256 76.1763 19.4547 78.027C12.1843 79.8783 4.78956 75.4852 2.93824 68.2145C1.08748 60.9444 5.48068 53.5499 12.7516 51.6987C14.951 51.1391 17.2553 51.1391 19.4547 51.6987C19.9149 51.8113 20.4006 51.6765 20.737 51.3428L51.3418 20.7374C51.6771 20.4021 51.812 19.9153 51.6965 19.4557C49.858 12.2705 54.1923 4.95535 61.3778 3.1163C62.7356 2.76936 64.14 2.63614 65.5389 2.72329L58.4207 9.84411C58.0593 10.2049 57.9327 10.7395 58.0942 11.2241L60.7927 19.3208C60.9276 19.7232 61.244 20.0396 61.647 20.1734L69.744 22.8723C70.228 23.0338 70.7626 22.9078 71.124 22.547L78.2423 15.429C78.2584 15.6865 78.2667 15.9413 78.2667 16.195C78.3044 23.6095 72.3247 29.6506 64.91 29.6889C63.7637 29.6945 62.6212 29.5535 61.511 29.2693C61.0508 29.1544 60.564 29.2887 60.2287 29.624H60.2359V29.6245Z" fill="#AD40F0"/>
<path d="M70 68.0174L68.0174 70L54 55.9826L55.982 54L70 68.0174Z" fill="#AD40F0"/>
</svg>
