<svg width="80" height="80" viewBox="0 0 80 80" fill="none" xmlns="http://www.w3.org/2000/svg">
<path d="M78.6667 0H1.33333C0.597 0 0 0.597 0 1.33333V78.6667C0 79.403 0.597 80 1.33333 80H78.6667C79.403 80 80 79.403 80 78.6667V1.33333C80 0.597 79.403 0 78.6667 0ZM2.66667 2.66667H38.6667V12.4507C34.4973 10.9887 29.9322 13.1835 28.4702 17.3528C27.0082 21.5222 29.203 26.0873 33.3723 27.5493C35.086 28.1502 36.953 28.1502 38.6667 27.5493V38.6667H25.3333C24.597 38.6667 24 39.2637 24 40C24 40.2885 24.0935 40.5692 24.2667 40.8C24.9657 41.7197 25.3407 42.8448 25.3333 44C25.3333 46.9455 22.9455 49.3333 20 49.3333C17.0545 49.3333 14.6667 46.9455 14.6667 44C14.6593 42.8448 15.0343 41.7197 15.7333 40.8C16.1752 40.2108 16.0558 39.3752 15.4667 38.9333C15.2358 38.7602 14.9552 38.6667 14.6667 38.6667H2.66667V2.66667ZM39.408 64.1333C38.9522 64.3592 38.6647 64.8247 38.6667 65.3333V77.3333H2.66667V41.3333H12.4507C10.9887 45.5027 13.1835 50.0678 17.3528 51.5298C21.5222 52.9918 26.0873 50.797 27.5493 46.6277C28.1502 44.914 28.1502 43.047 27.5493 41.3333H38.6667V54.6667C38.6667 55.403 39.2637 56 40 56C40.2885 56 40.5692 55.9065 40.8 55.7333C41.7197 55.0343 42.8448 54.6593 44 54.6667C46.9455 54.6667 49.3333 57.0545 49.3333 60C49.3333 62.9455 46.9455 65.3333 44 65.3333C42.8448 65.3407 41.7197 64.9657 40.8 64.2667C40.3983 63.963 39.86 63.9113 39.408 64.1333ZM77.3333 77.3333H41.3333V67.5493C45.5027 69.0113 50.0678 66.8165 51.5298 62.6472C52.9918 58.4778 50.797 53.9127 46.6277 52.4507C44.914 51.8498 43.047 51.8498 41.3333 52.4507V41.3333H56C56.7363 41.3333 57.3333 40.7363 57.3333 40C57.3333 39.5803 57.1357 39.1852 56.8 38.9333C54.4437 37.166 53.966 33.8232 55.7333 31.4667C57.5007 29.1103 60.8435 28.6327 63.2 30.4C65.5563 32.1673 66.034 35.5102 64.2667 37.8667C63.9635 38.271 63.6043 38.6302 63.2 38.9333C62.6108 39.3752 62.4915 40.2108 62.9333 40.8C63.1852 41.1357 63.5803 41.3333 64 41.3333H77.3333V77.3333ZM77.3333 38.6667H66.9213C69.137 34.8442 67.8345 29.9492 64.0118 27.7335C60.1892 25.5178 55.2943 26.8203 53.0787 30.643C51.6405 33.1242 51.6405 36.1855 53.0787 38.6668H41.3333V25.3335C41.3333 24.5972 40.7363 24.0002 40 24.0002C39.7115 24.0002 39.4308 24.0937 39.2 24.2668C38.2803 24.9658 37.1552 25.3408 36 25.3335C33.0545 25.3335 30.6667 22.9457 30.6667 20.0002C30.6667 17.0547 33.0545 14.6668 36 14.6668C37.1552 14.6595 38.2803 15.0345 39.2 15.7335C39.6017 16.0372 40.14 16.0888 40.592 15.8668C41.0478 15.641 41.3353 15.1755 41.3333 14.6668V2.66667H77.3333V38.6667Z" fill="#AD40F0"/>
</svg>
