<svg width="102" height="73" viewBox="0 0 102 73" fill="none" xmlns="http://www.w3.org/2000/svg">
<path d="M100.023 6.07462C100.016 6.07462 100.01 6.07462 100.003 6.07462H93.3006V3.78684C93.3367 2.88134 92.7495 2.06755 91.8771 1.81462C87.2239 0.598246 82.4324 -0.0116644 77.622 0.000168927C69.7135 0.000168927 58.9382 1.77517 50.9703 9.86129C43.0618 1.69628 32.2074 0.000168927 24.3187 0.000168927C19.5083 -0.0116644 14.7167 0.598246 10.0636 1.81462C9.19117 2.06755 8.60396 2.88134 8.64005 3.78684V6.0549H1.97713C0.885259 6.0549 0 6.93796 0 8.02712V71.02C0 72.1091 0.885259 72.9922 1.97713 72.9922C2.3167 72.9912 2.65034 72.9029 2.94592 72.7358C3.14363 72.6372 22.9149 61.8491 50.5156 68.7913H50.8122H50.9901C51.1478 68.8103 51.3069 68.8103 51.4646 68.7913C79.1444 61.7899 98.9157 72.5583 99.0343 72.7358C99.646 73.0881 100.4 73.0881 101.011 72.7358C101.619 72.3857 101.996 71.7401 102 71.0397V8.04684C102 6.95768 101.115 6.07462 100.023 6.07462ZM3.95425 67.8841V10.0191H8.67959V59.4824C8.66723 60.5716 9.54236 61.4645 10.6342 61.4769C10.741 61.4781 10.8478 61.4707 10.9533 61.4547C15.0435 60.8317 19.1729 60.5021 23.3103 60.4686C29.0415 60.3695 34.7488 61.2293 40.195 63.0127C27.896 61.5291 15.4209 63.206 3.95425 67.8841ZM23.3103 56.5438C19.7142 56.552 16.1222 56.7825 12.5548 57.2341V5.3449C16.4042 4.48944 20.3352 4.05284 24.2791 4.04323C31.6736 4.04323 41.8756 5.73934 48.9537 13.7071L49.013 62.8352C44.9006 60.153 36.8734 56.5438 23.3103 56.5438ZM52.9672 13.7071C60.0454 5.81823 70.2473 4.04323 77.6418 4.04323C81.5854 4.05481 85.5164 4.49117 89.3662 5.3449V57.2341C85.8187 56.7783 82.2465 56.5411 78.6699 56.5241C65.1859 56.5241 57.139 60.1333 52.9672 62.8155V13.7071ZM98.026 67.8841C86.5349 63.1932 74.0311 61.516 61.7061 63.0127C67.1781 61.2229 72.9125 60.3628 78.6699 60.4686C82.8332 60.4917 86.9894 60.8147 91.106 61.4349C92.1855 61.5984 93.1936 60.8578 93.3575 59.781C93.3735 59.6757 93.381 59.5692 93.3797 59.4627V10.0191H98.1051L98.026 67.8841Z" fill="#AD40F0"/>
</svg>
