<svg width="50" height="50" viewBox="0 0 50 50" fill="none" xmlns="http://www.w3.org/2000/svg">
<circle cx="25" cy="25" r="25" fill="#6C63FF"/>
<path d="M25 39.331C24.5729 39.331 24.1611 39.1763 23.8402 38.8952C22.6283 37.8355 21.4599 36.8396 20.429 35.9612L20.4237 35.9566C17.4013 33.381 14.7914 31.1567 12.9755 28.9656C10.9455 26.5161 10 24.1937 10 21.6565C10 19.1915 10.8453 16.9173 12.3799 15.2526C13.9329 13.5683 16.0638 12.6406 18.3807 12.6406C20.1124 12.6406 21.6984 13.1881 23.0943 14.2677C23.7988 14.8127 24.4374 15.4797 25 16.2576C25.5628 15.4797 26.2011 14.8127 26.9059 14.2677C28.3018 13.1881 29.8877 12.6406 31.6194 12.6406C33.9362 12.6406 36.0673 13.5683 37.6203 15.2526C39.1549 16.9173 39.9999 19.1915 39.9999 21.6565C39.9999 24.1937 39.0547 26.5161 37.0247 28.9654C35.2088 31.1567 32.5991 33.3808 29.5771 35.9561C28.5444 36.836 27.3742 37.8334 26.1595 38.8957C25.8388 39.1763 25.4268 39.331 25 39.331ZM18.3807 14.398C16.5604 14.398 14.8882 15.1245 13.6717 16.4437C12.4371 17.7829 11.7571 19.6341 11.7571 21.6565C11.7571 23.7904 12.5502 25.6988 14.3284 27.8443C16.047 29.9182 18.6034 32.0967 21.5633 34.6192L21.5688 34.6238C22.6036 35.5057 23.7766 36.5054 24.9975 37.573C26.2256 36.5034 27.4005 35.502 28.4373 34.6188C31.397 32.0963 33.9531 29.9182 35.6718 27.8443C37.4497 25.6988 38.2428 23.7904 38.2428 21.6565C38.2428 19.6341 37.5628 17.7829 36.3282 16.4437C35.112 15.1245 33.4395 14.398 31.6194 14.398C30.286 14.398 29.0617 14.8219 27.9807 15.6577C27.0173 16.403 26.3463 17.3451 25.9528 18.0042C25.7505 18.3432 25.3943 18.5455 25 18.5455C24.6056 18.5455 24.2495 18.3432 24.0471 18.0042C23.6539 17.3451 22.9828 16.403 22.0192 15.6577C20.9382 14.8219 19.714 14.398 18.3807 14.398Z" fill="white"/>
</svg>
