<svg width="89" height="89" viewBox="0 0 89 89" fill="none" xmlns="http://www.w3.org/2000/svg">
<g clip-path="url(#clip0)">
<path d="M76.4058 16.7408C68.2841 8.52473 57.4858 4 46.0002 4C34.5145 4 23.716 8.52473 15.5944 16.7408C7.47273 24.9569 3 35.8808 3 47.5001C3 59.1194 7.47273 70.0431 15.5944 78.2592C23.716 86.4753 34.5144 91 46 91C57.4856 91 68.2841 86.4753 76.4056 78.2592C84.5273 70.0431 89 59.1192 89 47.5001C89 35.8809 84.5274 24.9569 76.4058 16.7408ZM76.4268 57.5787L83.6665 52.283C83.0656 57.2057 81.5377 61.9121 79.1722 66.1929L76.4268 57.5787ZM73.0306 53.7667L61.0073 49.7592L56.8331 36.7628L64.3047 26.4309L77.7592 26.4541C81.4895 32.1892 83.6204 38.8284 83.9183 45.8024L73.0306 53.7667ZM46.0002 58.1773L35.9623 50.7996L39.7965 38.862H52.2041L56.0383 50.7996L46.0002 58.1773ZM30.9974 49.7454L18.9552 53.6911L8.08587 45.6928C8.40295 38.7221 10.5526 32.0889 14.2998 26.3629L27.7508 26.3784L35.1701 36.7541L30.9974 49.7454ZM12.7756 66.097C10.4231 61.8104 8.90849 57.1003 8.32124 52.1753L15.5451 57.4911L12.7756 66.097ZM73.7861 21.345L64.8627 21.3297L62.1092 12.7112C66.0457 14.5796 69.6732 17.1459 72.8392 20.3488C73.1622 20.6755 73.4762 21.0087 73.7861 21.345ZM56.0917 10.4677L60.2309 23.4226L52.7555 33.7596H39.2536L31.8357 23.3857L36.0124 10.4401C39.2277 9.5588 42.579 9.10231 46.0002 9.10231C49.4578 9.10231 52.8448 9.56781 56.0917 10.4677ZM29.9889 12.6658L27.2111 21.2754L18.2874 21.2652C18.5737 20.9562 18.8635 20.6497 19.1609 20.3488C22.3532 17.1194 26.0146 14.538 29.9889 12.6658ZM16.3491 71.4748L20.5103 58.5447L32.5514 54.5994L43.4782 62.6305V75.4352L32.5875 83.4397C27.6064 81.54 23.0377 78.5732 19.1608 74.6512C18.1593 73.638 17.223 72.5766 16.3491 71.4748ZM38.7686 85.2038L46 79.8887L53.2314 85.2038C50.8729 85.6616 48.4544 85.8977 46 85.8977C43.5456 85.8977 41.1271 85.6615 38.7686 85.2038ZM59.4125 83.4399L48.5218 75.4354V62.6306L59.4372 54.6079L71.4578 58.6146L75.5837 71.5602C74.7291 72.6313 73.8152 73.6642 72.8394 74.6514C68.9623 78.5733 64.3936 81.5402 59.4125 83.4399Z" fill="#AD40F0"/>
</g>
<defs>
<clipPath id="clip0">
<rect width="89" height="89" fill="white"/>
</clipPath>
</defs>
</svg>
