<svg width="25" height="25" viewBox="0 0 25 25" fill="none" xmlns="http://www.w3.org/2000/svg">
<path d="M21.8753 3.125H5.20866C4.93239 3.125 4.66744 3.23475 4.47209 3.4301C4.27674 3.62545 4.16699 3.8904 4.16699 4.16667V6.86458C4.16699 7.40938 4.38887 7.94479 4.77428 8.33021L10.417 13.9729V21.875C10.4172 22.0525 10.4627 22.227 10.5492 22.3819C10.6357 22.5369 10.7603 22.6672 10.9112 22.7606C11.0621 22.8539 11.2344 22.9072 11.4117 22.9154C11.589 22.9236 11.7654 22.8864 11.9243 22.8073L16.091 20.724C16.4441 20.5469 16.667 20.1865 16.667 19.7917V13.9729L22.3097 8.33021C22.6951 7.94479 22.917 7.40938 22.917 6.86458V4.16667C22.917 3.8904 22.8072 3.62545 22.6119 3.4301C22.4165 3.23475 22.1516 3.125 21.8753 3.125ZM14.8889 12.8052C14.7919 12.9018 14.7151 13.0166 14.6627 13.143C14.6103 13.2693 14.5835 13.4049 14.5837 13.5417V19.1479L12.5003 20.1896V13.5417C12.5005 13.4049 12.4737 13.2693 12.4213 13.143C12.3689 13.0166 12.292 12.9018 12.1951 12.8052L6.25033 6.86458V5.20833H20.8347L20.8368 6.85729L14.8889 12.8052Z" fill="#7E7C91"/>
</svg>
