<svg width="50" height="50" viewBox="0 0 50 50" fill="none" xmlns="http://www.w3.org/2000/svg">
<circle cx="25" cy="25" r="25" fill="#6C63FF"/>
<path d="M32.1451 28.8841C31.8406 28.6114 31.3727 28.638 31.1015 28.9418C29.5597 30.6647 27.3363 31.6522 25 31.6522C22.6643 31.6522 20.4403 30.6647 18.8984 28.9418C18.6257 28.638 18.1593 28.6114 17.8548 28.8841C17.5503 29.1561 17.5251 29.6233 17.7971 29.9278C19.6191 31.9634 22.2445 33.1304 25 33.1304C27.7562 33.1304 30.3816 31.9626 32.2028 29.9278C32.4748 29.6233 32.4489 29.1561 32.1451 28.8841Z" fill="white"/>
<path d="M25 8C15.6263 8 8 15.6263 8 25C8 34.3737 15.6263 42 25 42C34.3737 42 42 34.3737 42 25C42 15.6263 34.3737 8 25 8ZM25 40.5217C16.4409 40.5217 9.47826 33.5591 9.47826 25C9.47826 16.4409 16.4409 9.47826 25 9.47826C33.5591 9.47826 40.5217 16.4409 40.5217 25C40.5217 33.5591 33.5591 40.5217 25 40.5217Z" fill="white"/>
<path d="M30.913 19.8261C28.8752 19.8261 27.2174 21.484 27.2174 23.5218C27.2174 23.9298 27.5485 24.2609 27.9565 24.2609C28.3645 24.2609 28.6956 23.9298 28.6956 23.5218C28.6956 22.2992 29.6905 21.3044 30.913 21.3044C32.1356 21.3044 33.1304 22.2992 33.1304 23.5218C33.1304 23.9298 33.4616 24.2609 33.8696 24.2609C34.2776 24.2609 34.6087 23.9298 34.6087 23.5218C34.6087 21.484 32.9508 19.8261 30.913 19.8261Z" fill="white"/>
<path d="M21.3044 23.5218C21.3044 23.9298 21.6355 24.2609 22.0435 24.2609C22.4515 24.2609 22.7826 23.9298 22.7826 23.5218C22.7826 21.484 21.1247 19.8261 19.087 19.8261C17.0492 19.8261 15.3913 21.484 15.3913 23.5218C15.3913 23.9298 15.7224 24.2609 16.1304 24.2609C16.5384 24.2609 16.8696 23.9298 16.8696 23.5218C16.8696 22.2992 17.8644 21.3044 19.087 21.3044C20.3095 21.3044 21.3044 22.2992 21.3044 23.5218Z" fill="white"/>
</svg>
