<svg width="531" height="462" viewBox="0 0 531 462" fill="none" xmlns="http://www.w3.org/2000/svg">
<path fill-rule="evenodd" clip-rule="evenodd" d="M250.726 1.06075C298.406 6.15086 334.564 39.9842 373.995 65.233C410.418 88.5557 456.378 105.84 473.363 143.623C490.121 180.9 464.353 221.887 462.546 262.208C460.83 300.515 481.606 340.991 462.983 375.266C444.231 409.779 402.934 428.983 364.107 443.383C328.25 456.681 289.284 451.582 250.726 453.985C209.224 456.572 168.37 467.854 128.142 458.089C81.307 446.72 18.095 436.518 3.39716 393.946C-12.431 348.101 55.1027 310.064 60.5141 262.208C65.0831 221.802 22.7809 185.26 31.4979 145.438C40.9772 102.135 70.8319 62.6968 109.806 37.0292C150.162 10.4524 201.472 -4.1974 250.726 1.06075Z" fill="#F7EAFF"/>
<path d="M529 345.135H1.38482C1.01754 345.135 0.665327 344.989 0.405624 344.73C0.14592 344.471 0 344.119 0 343.752C0 343.385 0.14592 343.033 0.405624 342.773C0.665327 342.514 1.01754 342.368 1.38482 342.368H529C529.367 342.368 529.719 342.514 529.979 342.773C530.239 343.033 530.385 343.385 530.385 343.752C530.385 344.119 530.239 344.471 529.979 344.73C529.719 344.989 529.367 345.135 529 345.135Z" fill="#3F3D56"/>
<path d="M275.66 163.902C296.31 163.902 313.05 147.178 313.05 126.549C313.05 105.919 296.31 89.1953 275.66 89.1953C255.01 89.1953 238.27 105.919 238.27 126.549C238.27 147.178 255.01 163.902 275.66 163.902Z" fill="#2F2E41"/>
<path d="M240.134 366.338L239.144 349.407L304.045 337.53L305.507 362.521L240.134 366.338Z" fill="#FFB8B8"/>
<path d="M243.278 337.03L245.189 369.685L224.609 370.886L221.495 317.672C224.198 317.514 226.905 317.889 229.462 318.777C232.02 319.664 234.377 321.046 236.4 322.844C238.423 324.641 240.071 326.819 241.251 329.253C242.432 331.687 243.12 334.33 243.278 337.03Z" fill="#2F2E41"/>
<path d="M268.362 366.183L257.581 379.286L201.862 343.982L217.772 324.644L268.362 366.183Z" fill="#FFB8B8"/>
<path d="M246.134 385.568L266.924 360.298L282.851 373.375L248.97 414.556C246.878 412.839 245.146 410.727 243.872 408.34C242.597 405.954 241.806 403.341 241.542 400.649C241.279 397.957 241.549 395.24 242.337 392.652C243.125 390.065 244.415 387.657 246.134 385.568Z" fill="#2F2E41"/>
<path d="M237.339 305.25L229.972 339.945C229.803 340.744 229.812 341.571 230 342.365C230.188 343.16 230.549 343.904 231.059 344.542C231.568 345.181 232.213 345.699 232.946 346.06C233.68 346.42 234.484 346.614 235.302 346.627L307.724 347.794C308.541 347.807 309.35 347.64 310.094 347.304C310.838 346.968 311.499 346.472 312.029 345.851C312.558 345.231 312.944 344.501 313.159 343.714C313.373 342.927 313.411 342.102 313.269 341.299L306.934 305.436C306.708 304.155 306.037 302.995 305.039 302.159C304.042 301.323 302.781 300.864 301.479 300.864H242.758C241.488 300.864 240.257 301.3 239.271 302.098C238.284 302.897 237.602 304.009 237.339 305.25Z" fill="#2F2E41"/>
<path d="M249.349 317.466C249.349 317.466 178.723 273.195 164.875 296.714C157.951 308.474 161.413 319.887 166.606 328.361C171.425 336.076 178.343 342.262 186.551 346.195L243.81 374.188L264.582 352.053L250.734 339.601L249.349 317.466Z" fill="#2F2E41"/>
<path d="M285.354 310.549C285.354 310.549 376.752 284.263 358.749 334.067C340.747 383.872 272.891 364.503 272.891 364.503L265.967 343.752L289.508 327.15L285.354 310.549Z" fill="#2F2E41"/>
<path d="M276.129 169.058C294.914 169.058 310.142 153.845 310.142 135.079C310.142 116.313 294.914 101.1 276.129 101.1C257.345 101.1 242.117 116.313 242.117 135.079C242.117 153.845 257.345 169.058 276.129 169.058Z" fill="#FFB8B8"/>
<path d="M277.911 316.039C263.778 315.826 249.717 313.975 236.011 310.525L235.606 310.414L216.626 223.194C214.919 215.529 216.08 207.506 219.89 200.638C223.699 193.771 229.895 188.534 237.305 185.919C260.196 177.714 285.145 177.216 308.346 184.501H308.346C316.131 187.008 322.684 192.354 326.697 199.474C330.71 206.593 331.889 214.963 329.998 222.913L308.799 310.341L308.5 310.483C299.69 314.652 288.673 316.039 277.911 316.039Z" fill="#CCCCCC"/>
<path d="M252.417 322.815C253.106 320.901 254.207 319.162 255.642 317.719C257.077 316.276 258.811 315.165 260.722 314.465C262.633 313.764 264.675 313.491 266.703 313.663C268.732 313.836 270.698 314.451 272.462 315.465L309.834 283.059L313.215 308.526L277.208 335.396C275.306 338.244 272.425 340.297 269.109 341.166C265.794 342.034 262.275 341.657 259.219 340.106C256.163 338.555 253.783 335.938 252.529 332.752C251.275 329.565 251.235 326.029 252.417 322.815Z" fill="#FFB8B8"/>
<path d="M288.059 329.884C287.451 329.883 286.846 329.795 286.263 329.62C285.318 329.345 284.452 328.848 283.738 328.17C283.025 327.492 282.484 326.654 282.161 325.724L277.65 312.957C277.228 311.777 277.174 310.497 277.496 309.286C277.818 308.074 278.501 306.99 279.454 306.175L330.372 275.636L310.3 186.18L310.811 186.057C311.018 186.006 331.583 181.33 340.01 203.78C345.912 219.503 367.75 253.691 366.21 276.794C365.917 281.415 364.074 285.803 360.978 289.248C357.882 292.694 353.713 294.997 349.146 295.785L291.831 328.591C290.751 329.427 289.425 329.882 288.059 329.884Z" fill="#CCCCCC"/>
<path d="M293.77 319.781C293.08 317.867 291.979 316.127 290.544 314.685C289.109 313.242 287.375 312.131 285.464 311.431C283.553 310.73 281.511 310.456 279.483 310.629C277.454 310.802 275.489 311.417 273.724 312.431L236.353 280.024L232.971 305.492L268.978 332.361C270.88 335.21 273.761 337.263 277.077 338.131C280.392 339 283.912 338.622 286.967 337.072C290.023 335.521 292.404 332.904 293.657 329.717C294.911 326.53 294.951 322.995 293.77 319.781Z" fill="#FFB8B8"/>
<path d="M261.877 329.883C260.511 329.881 259.184 329.427 258.105 328.591L196.635 298.552C192.068 297.764 187.9 295.461 184.804 292.015C181.708 288.569 179.864 284.181 179.572 279.56C178.031 256.457 204.024 219.503 209.926 203.779C218.352 181.329 238.917 186.004 239.125 186.056L239.636 186.179L215.41 278.402L270.482 306.174C271.435 306.989 272.117 308.074 272.439 309.285C272.761 310.496 272.708 311.776 272.285 312.956L267.775 325.724C267.452 326.653 266.911 327.492 266.198 328.17C265.484 328.848 264.618 329.345 263.672 329.62C263.09 329.794 262.485 329.883 261.877 329.883Z" fill="#CCCCCC"/>
<path d="M335.207 343.752H211.959C209.389 343.749 206.925 342.727 205.108 340.912C203.29 339.096 202.268 336.635 202.265 334.067V266.278C202.268 263.71 203.29 261.249 205.108 259.434C206.925 257.618 209.389 256.597 211.959 256.594H335.207C337.777 256.597 340.241 257.618 342.059 259.434C343.876 261.249 344.898 263.71 344.901 266.278V334.067C344.898 336.635 343.876 339.096 342.059 340.912C340.241 342.727 337.777 343.749 335.207 343.752Z" fill="#6C63FF"/>
<path d="M273.583 308.474C278.172 308.474 281.892 304.757 281.892 300.173C281.892 295.588 278.172 291.872 273.583 291.872C268.994 291.872 265.274 295.588 265.274 300.173C265.274 304.757 268.994 308.474 273.583 308.474Z" fill="white"/>
<path d="M241.776 133.695C239.76 128.587 243.068 122.5 247.974 120.025C252.88 117.551 258.801 118.022 264.049 119.652C268.46 121.023 272.593 123.147 276.896 124.824C281.138 126.702 285.772 127.527 290.402 127.227C294.992 126.709 299.56 124.138 301.438 119.923C303.384 115.553 302.06 110.22 299.063 106.491C295.873 102.886 291.745 100.235 287.137 98.8337C277.017 95.2721 265.328 95.168 255.934 100.345C246.539 105.522 240.154 116.546 242.096 127.087" fill="#2F2E41"/>
<path d="M45.2316 328.975C46.9424 310.567 51.6678 292.565 59.2189 275.688C61.3235 270.991 63.6399 266.397 66.1681 261.907C66.2949 261.672 66.3255 261.398 66.2534 261.141C66.1812 260.884 66.012 260.665 65.7814 260.53C65.5508 260.396 65.2769 260.356 65.0174 260.419C64.758 260.482 64.5333 260.644 64.3907 260.869C55.1965 277.223 48.7554 294.975 45.3248 313.416C44.3705 318.566 43.6532 323.752 43.1731 328.975C43.051 330.292 45.1103 330.283 45.2316 328.975Z" fill="#CCBEBE"/>
<path d="M71.1539 265.205C78.3541 265.205 84.1911 259.374 84.1911 252.181C84.1911 244.987 78.3541 239.156 71.1539 239.156C63.9536 239.156 58.1166 244.987 58.1166 252.181C58.1166 259.374 63.9536 265.205 71.1539 265.205Z" fill="#6C63FF"/>
<path d="M46.5651 329.32C47.675 317.378 50.7406 305.7 55.6394 294.751C57.0047 291.703 58.5075 288.723 60.1476 285.811C60.2299 285.658 60.2497 285.48 60.2029 285.313C60.156 285.147 60.0463 285.005 59.8967 284.917C59.7471 284.83 59.5694 284.804 59.4011 284.845C59.2328 284.886 59.087 284.991 58.9945 285.137C53.0298 295.747 48.8512 307.263 46.6256 319.227C46.0065 322.568 45.5412 325.932 45.2297 329.32C45.1505 330.175 46.4865 330.169 46.5652 329.32H46.5651Z" fill="#CCBEBE"/>
<path d="M63.3822 287.951C68.0533 287.951 71.84 284.168 71.84 279.501C71.84 274.835 68.0533 271.052 63.3822 271.052C58.711 271.052 54.9243 274.835 54.9243 279.501C54.9243 284.168 58.711 287.951 63.3822 287.951Z" fill="#6C63FF"/>
<path d="M44.8796 328.522C38.4026 318.424 33.6296 307.332 30.7511 295.689C29.9517 292.447 29.3019 289.174 28.8018 285.87C28.7729 285.699 28.6788 285.546 28.5393 285.444C28.3998 285.341 28.2258 285.296 28.054 285.319C27.8823 285.342 27.7262 285.431 27.6188 285.567C27.5113 285.703 27.4608 285.875 27.478 286.047C29.3068 298.078 33.1025 309.726 38.7131 320.527C40.2819 323.541 41.9864 326.48 43.8266 329.343C44.2903 330.065 45.3404 329.24 44.8796 328.522Z" fill="#CCBEBE"/>
<path d="M27.4674 287.357C32.1386 287.357 35.9253 283.574 35.9253 278.908C35.9253 274.241 32.1386 270.458 27.4674 270.458C22.7963 270.458 19.0096 274.241 19.0096 278.908C19.0096 283.574 22.7963 287.357 27.4674 287.357Z" fill="#6C63FF"/>
<path d="M18.9146 335.999V319.397C18.9165 317.747 19.5736 316.164 20.7419 314.997C21.9102 313.83 23.4941 313.174 25.1463 313.172H63.9212C65.5733 313.174 67.1573 313.83 68.3255 314.997C69.4938 316.164 70.151 317.747 70.1528 319.397V335.999C70.151 337.649 69.4938 339.232 68.3255 340.399C67.1573 341.566 65.5733 342.223 63.9212 342.224H25.1463C23.4941 342.223 21.9102 341.566 20.7419 340.399C19.5736 339.232 18.9165 337.649 18.9146 335.999Z" fill="#E0C1C1"/>
<path d="M435.399 355.374C435.399 364.473 428.015 368.608 418.907 368.608C409.799 368.608 402.415 364.473 402.415 355.374C402.415 346.274 406.08 335.658 418.907 339.319C431.734 333.827 435.399 346.274 435.399 355.374Z" fill="#FF6584"/>
<path d="M418.104 343.582C417.462 343.583 416.843 343.351 416.361 342.928C415.879 342.505 415.567 341.922 415.485 341.286C414.939 336.747 411.929 327.856 410.661 324.245L410.66 324.243C410.532 323.884 410.493 323.5 410.546 323.122C410.599 322.745 410.743 322.386 410.965 322.076C411.178 321.799 411.447 321.571 411.754 321.405C412.062 321.24 412.401 321.141 412.75 321.116C413.098 321.091 413.448 321.14 413.776 321.259C414.104 321.379 414.403 321.567 414.654 321.81C414.877 322.044 415.05 322.322 415.162 322.625C415.273 322.929 415.321 323.253 415.302 323.576C415.053 328.211 418.436 335.701 420.474 339.754C420.667 340.136 420.763 340.559 420.756 340.987C420.748 341.415 420.637 341.834 420.431 342.209C420.226 342.585 419.932 342.904 419.575 343.141C419.218 343.377 418.809 343.523 418.383 343.567C418.29 343.577 418.197 343.582 418.104 343.582Z" fill="#3F3D56"/>
<path d="M430.307 333.356C436.032 328.675 431.54 319.096 424.375 320.935C423.411 321.165 422.522 321.638 421.794 322.31C417.399 326.458 416.718 337.07 416.718 337.07C416.718 337.07 424.479 338.121 430.307 333.356Z" fill="#3F3D56"/>
</svg>
