<svg width="624" height="466" viewBox="0 0 624 466" fill="none" xmlns="http://www.w3.org/2000/svg">
<path fill-rule="evenodd" clip-rule="evenodd" d="M369.817 21.8605C415.149 31.5405 451.998 54.0372 491.916 75.0306C536.385 98.4173 595.756 109.86 616.079 151.372C636.705 193.504 612.62 241.079 594.209 283.976C576.53 325.17 555.904 368.24 512.974 391.611C471.263 414.319 418.862 402.247 369.817 406.137C314.037 410.56 247.879 448.459 206.28 415.933C163.445 382.44 212.219 317.734 195.528 269.86C179.451 223.751 113.192 196.568 113.001 148.398C112.793 95.7625 141.728 37.5273 194.506 11.523C246.708 -14.1981 311.517 9.4115 369.817 21.8605Z" fill="#C9BDFF"/>
<path d="M601.696 85.25H169.793V367.779H601.696V85.25Z" fill="#EFE4E0"/>
<path d="M363.907 123.189H207.985V286.837H363.907V123.189Z" fill="white"/>
<path d="M578.147 126.363H422.225V325.124H578.147V126.363Z" fill="white"/>
<path d="M576.069 388.321C591.495 388.321 604 386.496 604 384.245C604 381.995 591.495 380.17 576.069 380.17C560.643 380.17 548.138 381.995 548.138 384.245C548.138 386.496 560.643 388.321 576.069 388.321Z" fill="#7870FC"/>
<path d="M296.819 388.412C312.245 388.412 324.75 386.588 324.75 384.337C324.75 382.086 312.245 380.261 296.819 380.261C281.393 380.261 268.888 382.086 268.888 384.337C268.888 386.588 281.393 388.412 296.819 388.412Z" fill="#7870FC"/>
<path d="M121.575 383.397C156.979 383.397 185.679 381.993 185.679 380.262C185.679 378.53 156.979 377.126 121.575 377.126C86.1721 377.126 57.4722 378.53 57.4722 380.262C57.4722 381.993 86.1721 383.397 121.575 383.397Z" fill="#7870FC"/>
<path d="M601.511 85H169.609V103.741H601.511V85Z" fill="#CA94DD"/>
<path d="M183.244 98.0551C185.122 98.0551 186.645 96.4999 186.645 94.5815C186.645 92.6631 185.122 91.1079 183.244 91.1079C181.366 91.1079 179.843 92.6631 179.843 94.5815C179.843 96.4999 181.366 98.0551 183.244 98.0551Z" fill="#E6E6E6"/>
<path d="M196.153 98.0551C198.031 98.0551 199.553 96.4999 199.553 94.5815C199.553 92.6631 198.031 91.1079 196.153 91.1079C194.274 91.1079 192.752 92.6631 192.752 94.5815C192.752 96.4999 194.274 98.0551 196.153 98.0551Z" fill="#E6E6E6"/>
<path d="M209.061 98.0551C210.94 98.0551 212.462 96.4999 212.462 94.5815C212.462 92.6631 210.94 91.1079 209.061 91.1079C207.183 91.1079 205.66 92.6631 205.66 94.5815C205.66 96.4999 207.183 98.0551 209.061 98.0551Z" fill="#E6E6E6"/>
<path d="M543.77 179.677H542.826V153.248C542.826 151.24 542.438 149.251 541.686 147.395C540.933 145.539 539.83 143.853 538.44 142.432C537.049 141.012 535.398 139.885 533.581 139.116C531.764 138.348 529.817 137.952 527.85 137.952H473.031C471.064 137.952 469.117 138.348 467.3 139.116C465.483 139.885 463.832 141.012 462.441 142.432C461.051 143.853 459.948 145.539 459.195 147.395C458.442 149.251 458.055 151.24 458.055 153.248V298.238C458.055 300.247 458.442 302.236 459.195 304.091C459.948 305.947 461.051 307.634 462.441 309.054C463.832 310.474 465.483 311.601 467.3 312.37C469.117 313.138 471.064 313.534 473.031 313.534H527.85C529.817 313.534 531.764 313.138 533.581 312.37C535.398 311.601 537.049 310.474 538.44 309.054C539.83 307.634 540.933 305.947 541.686 304.091C542.438 302.236 542.826 300.247 542.826 298.238V198.489H543.77V179.677Z" fill="#3F3D56"/>
<path d="M527.841 141.932H520.685C521.014 142.756 521.139 143.65 521.051 144.535C520.962 145.42 520.661 146.27 520.175 147.008C519.689 147.747 519.033 148.352 518.264 148.771C517.495 149.189 516.637 149.408 515.765 149.408H484.36C483.489 149.408 482.631 149.189 481.862 148.771C481.093 148.352 480.436 147.747 479.95 147.008C479.464 146.27 479.164 145.42 479.075 144.535C478.986 143.65 479.112 142.756 479.441 141.932H472.757C471.288 141.932 469.834 142.227 468.477 142.801C467.12 143.375 465.888 144.217 464.849 145.277C463.811 146.338 462.987 147.597 462.425 148.983C461.863 150.369 461.573 151.855 461.573 153.355V298.131C461.573 299.632 461.863 301.117 462.425 302.503C462.987 303.889 463.811 305.148 464.849 306.209C465.888 307.269 467.12 308.111 468.477 308.685C469.834 309.259 471.288 309.554 472.757 309.554H527.841C529.309 309.554 530.763 309.259 532.12 308.685C533.477 308.111 534.71 307.269 535.749 306.209C536.787 305.148 537.611 303.889 538.173 302.503C538.735 301.117 539.024 299.632 539.024 298.131V153.355C539.024 150.325 537.846 147.42 535.749 145.277C533.651 143.135 530.807 141.932 527.841 141.932Z" fill="white"/>
<path d="M340.241 226.562H231.866V231.612H340.241V226.562Z" fill="#E6E6E6"/>
<path d="M340.241 242.865H231.866V247.914H340.241V242.865Z" fill="#AD40F0"/>
<path d="M340.241 259.167H231.866V264.216H340.241V259.167Z" fill="#E6E6E6"/>
<path d="M532.547 237.579H469.279V242.628H532.547V237.579Z" fill="#E6E6E6"/>
<path d="M532.547 253.254H469.279V258.303H532.547V253.254Z" fill="#E6E6E6"/>
<path d="M532.547 268.929H469.279V273.978H532.547V268.929Z" fill="#E6E6E6"/>
<path d="M539.161 347.333V336.563H528.617V347.333H539.161Z" fill="#3F3D56"/>
<path d="M522.173 347.333V336.563H511.628V347.333H522.173Z" fill="#AD40F0"/>
<path d="M505.184 347.333V336.563H494.64V347.333H505.184Z" fill="#3F3D56"/>
<path d="M488.196 347.333V336.563H477.651V347.333H488.196Z" fill="#3F3D56"/>
<path d="M471.207 347.333V336.563H460.663V347.333H471.207Z" fill="#3F3D56"/>
<path d="M517.873 172.148H482.725V208.049H517.873V172.148Z" fill="#AD40F0"/>
<path d="M272.084 257.798L271.629 258.728L270.264 251.757C270.264 251.757 268.444 244.322 272.084 244.322C275.723 244.322 274.813 251.757 274.813 251.757V256.869L272.084 257.798Z" fill="#A0616A"/>
<path d="M331.777 256.847L332.232 257.776L333.597 250.806C333.597 250.806 335.417 243.371 331.777 243.371C328.137 243.371 329.047 250.806 329.047 250.806V255.917L331.777 256.847Z" fill="#A0616A"/>
<path d="M292.102 310.058L286.643 344.445L289.372 377.903L295.741 375.115L294.832 350.021L301.201 330.039L302.566 353.739L299.836 378.367L308.025 379.297L313.94 328.645L313.485 311.451L292.102 310.058Z" fill="#2F2E41"/>
<path d="M292.102 373.721L288.917 378.832V390.254C288.917 390.583 289.032 390.901 289.241 391.152C289.45 391.402 289.739 391.568 290.057 391.621C291.618 391.883 294.336 392.068 295.287 390.45C296.652 388.126 295.742 383.014 295.742 383.014C295.742 383.014 297.562 379.297 296.652 376.509C295.742 373.721 294.832 373.256 294.832 373.256L292.102 373.721Z" fill="#2F2E41"/>
<path d="M305.751 378.368L306.661 379.762C306.661 379.762 308.025 381.156 307.115 382.085C306.448 382.807 305.839 383.585 305.296 384.409C305.296 384.409 300.291 385.803 300.291 383.944V377.903L305.751 378.368Z" fill="#2F2E41"/>
<path d="M304.111 272.236C307.442 272.236 310.142 269.478 310.142 266.076C310.142 262.674 307.442 259.917 304.111 259.917C300.78 259.917 298.08 262.674 298.08 266.076C298.08 269.478 300.78 272.236 304.111 272.236Z" fill="#A0616A"/>
<path d="M300.064 268.002L299.609 276.832L307.798 277.297L307.343 268.467L300.064 268.002Z" fill="#A0616A"/>
<path d="M308.935 277.529L307.644 274.306C307.644 274.306 301.656 271.952 299.836 274.276L298.926 277.064L291.647 275.205L287.552 284.499L291.192 310.987C291.192 310.987 300.746 323.534 313.485 311.451L317.125 286.358L314.395 276.599L308.935 277.529Z" fill="#575A89"/>
<path d="M313.485 278.458L314.395 276.599L323.494 271.022L329.047 254.233L333.344 256.114L328.499 276.134L315.305 288.681L313.485 278.458Z" fill="#575A89"/>
<path d="M292.557 276.134L291.647 275.205L282.093 269.164L275.268 255.223L269.809 257.082L275.723 274.275L290.282 286.358L292.557 276.134Z" fill="#575A89"/>
<path d="M308.587 256.643L309.573 256.14L308.094 255.636V255.132C308.094 255.132 300.699 252.111 299.713 257.147C298.44 258.893 297.753 261.012 297.753 263.19C297.753 265.367 298.44 267.486 299.713 269.232V270.743L307.601 271.75L308.587 268.729C308.587 268.729 313.517 259.665 308.587 256.643Z" fill="#2F2E41"/>
<path d="M128.122 310.603L126.369 311.498C126.369 311.498 119.358 314.78 121.403 316.57C123.448 318.361 128.999 314.78 128.999 314.78L130.167 313.288L128.122 310.603Z" fill="#FFB8B8"/>
<path d="M179.407 310.157L173.989 347.305L165.808 373.265L161.426 371.176L165.516 335.668L153.83 325.522L154.707 310.603L179.407 310.157Z" fill="#2F2E41"/>
<path d="M160.842 372.072C160.842 372.072 165.808 369.386 166.101 373.266L165.516 377.145C165.516 377.145 167.269 384.008 161.426 382.516C155.583 381.024 159.673 376.548 159.673 376.548L160.842 372.072Z" fill="#2F2E41"/>
<path d="M157.628 322.24L153.831 325.523C153.831 325.523 153.831 345.813 156.46 348.797C159.089 351.781 175.741 366.999 176.326 367.596C176.91 368.193 179.539 361.628 179.539 361.628L163.763 342.829L164.932 331.192L157.628 322.24Z" fill="#2F2E41"/>
<path d="M177.786 360.733C177.786 360.733 182.461 359.837 182.461 363.12C182.519 365.715 182.714 368.305 183.045 370.878C183.045 370.878 184.213 381.322 180.416 379.83C176.618 378.338 175.157 367.894 175.157 367.894C175.51 367.026 176.124 366.295 176.91 365.805C178.078 365.209 177.786 360.733 177.786 360.733Z" fill="#2F2E41"/>
<path d="M163.179 265.843L164.056 276.884L161.719 281.061L155.291 274.795L154.707 266.44L163.179 265.843Z" fill="#FFB8B8"/>
<path d="M157.921 269.424C161.793 269.424 164.932 266.218 164.932 262.263C164.932 258.307 161.793 255.101 157.921 255.101C154.048 255.101 150.909 258.307 150.909 262.263C150.909 266.218 154.048 269.424 157.921 269.424Z" fill="#FFB8B8"/>
<path d="M160.842 276.586L163.763 267.933L169.022 273.9L178.663 311.796L171.359 316.272L168.146 311.498L167.561 317.764L153.246 314.78L152.078 274.795L154.997 270.595L160.842 276.586Z" fill="#D0CDE1"/>
<path d="M156.752 318.958L154.999 270.618L151.201 273.602L144.19 278.376L148.864 295.385L150.325 313.288L156.752 318.958Z" fill="#2F2E41"/>
<path d="M146.235 278.674L144.19 278.376L138.347 295.981L126.661 310.901L131.044 315.675L144.482 302.247L149.449 291.207L146.235 278.674Z" fill="#2F2E41"/>
<path d="M178.139 310.876L177.74 312.836C177.74 312.836 175.917 320.49 178.56 319.961C181.203 319.431 181.892 312.763 181.892 312.763L181.47 310.901L178.139 310.876Z" fill="#FFB8B8"/>
<path d="M163.307 267.448L177.786 273.304L176.033 291.207L179.539 310.902L176.033 314.78L163.071 269.984L163.307 267.448Z" fill="#2F2E41"/>
<path d="M158.288 250.235L160.346 249.184V250.235L161.718 249.534V251.286C161.718 251.286 166.863 255.14 165.834 259.695C164.805 264.249 164.805 264.6 164.805 264.6C164.805 264.6 163.504 255.938 158.359 257.339C153.214 258.741 152.799 258.994 151.427 262.848L151.055 264.501C151.055 264.501 145.253 250.936 158.288 250.235Z" fill="#2F2E41"/>
<path d="M175.741 273.304H178.078L181.876 294.191V312.393L177.202 311.498L173.404 284.046L175.741 273.304Z" fill="#2F2E41"/>
<path d="M145.781 317.476H59.6423V378.616H145.781V317.476Z" fill="#AD40F0"/>
<path d="M102.711 329.406C99.102 329.406 95.5736 330.499 92.5725 332.547C89.5713 334.595 87.2322 337.507 85.8509 340.913C84.4697 344.319 84.1083 348.067 84.8124 351.683C85.5166 355.298 87.2547 358.62 89.807 361.227C92.3592 363.834 95.611 365.609 99.1511 366.328C102.691 367.047 106.361 366.678 109.695 365.267C113.03 363.856 115.88 361.467 117.886 358.402C119.891 355.337 120.961 351.733 120.961 348.046C120.947 343.107 119.02 338.374 115.6 334.881C112.181 331.389 107.547 329.42 102.711 329.406ZM102.711 334.998C103.794 334.998 104.853 335.326 105.753 335.94C106.654 336.555 107.355 337.428 107.77 338.45C108.184 339.472 108.292 340.596 108.081 341.681C107.87 342.766 107.348 343.762 106.583 344.544C105.817 345.326 104.842 345.859 103.78 346.075C102.718 346.29 101.617 346.18 100.616 345.756C99.6159 345.333 98.7608 344.616 98.1592 343.697C97.5576 342.777 97.2366 341.696 97.2366 340.59C97.2414 339.108 97.8198 337.689 98.8455 336.641C99.8712 335.594 101.261 335.003 102.711 334.998ZM102.711 361.919C100.549 361.909 98.4209 361.36 96.5128 360.32C94.6047 359.28 92.9738 357.78 91.7616 355.95C91.8494 352.222 99.0615 350.17 102.711 350.17C106.361 350.17 113.574 352.222 113.661 355.95C112.448 357.778 110.817 359.277 108.909 360.317C107.001 361.357 104.874 361.907 102.711 361.919Z" fill="white"/>
<path d="M339.966 141.999H231.925V205.327H339.966V141.999Z" fill="#E6E6E6"/>
<path d="M553.602 267.605L554.102 264.307C554.102 264.307 557.02 257.532 554.714 257.167C552.407 256.802 550.484 263.251 550.484 263.251L551.327 270.14L553.602 267.605Z" fill="#FFB8B8"/>
<path d="M577.216 286.301L556.602 282.072L554.206 266.736L548.138 266.257L548.435 286.085L566.346 295.676L577.216 286.301Z" fill="#575A89"/>
<path opacity="0.2" d="M577.216 286.301L556.602 282.072L554.206 266.736L548.138 266.257L548.435 286.085L566.346 295.676L577.216 286.301Z" fill="black"/>
<path d="M521.135 263.549H584.402V258.5H521.135V263.549Z" fill="#AD40F0"/>
<path d="M549.574 266.474L549.578 263.137C549.578 263.137 551.454 255.988 549.12 255.985C546.786 255.982 545.845 262.655 545.845 262.655L547.703 269.333L549.574 266.474Z" fill="#FFB8B8"/>
<path d="M576.407 276.032L579.236 275.328C580.315 275.33 581.381 275.086 582.357 274.615C583.333 274.144 584.194 273.457 584.878 272.604C585.562 271.751 586.051 270.754 586.312 269.684C586.572 268.614 586.596 267.499 586.382 266.418C586.384 265.141 586.139 263.877 585.662 262.697C585.186 261.517 584.486 260.444 583.603 259.54C582.72 258.637 581.672 257.919 580.518 257.429C579.364 256.939 578.127 256.686 576.877 256.685C575.627 256.683 574.389 256.933 573.234 257.42C572.078 257.907 571.028 258.622 570.143 259.523C569.258 260.425 568.556 261.496 568.076 262.674C567.596 263.853 567.349 265.117 567.347 266.394C566.981 267.694 566.956 269.07 567.274 270.383C567.593 271.696 568.243 272.901 569.16 273.877C570.078 274.853 571.23 275.566 572.502 275.944C573.774 276.322 575.12 276.353 576.407 276.032Z" fill="#2F2E41"/>
<path d="M559.772 324.176L562.075 349.925L566.244 375.199L573.246 375.208L572.343 350.415L568.646 320.374L559.772 324.176Z" fill="#2F2E41"/>
<path d="M567.18 373.77L562.508 376.624C562.508 376.624 555.039 377.568 556.436 379.954C557.834 382.339 574.173 380.93 574.174 379.976C574.175 379.023 573.715 373.778 572.781 373.777L567.18 373.77Z" fill="#2F2E41"/>
<path d="M580.44 321.952C580.44 321.952 580.309 325.633 577.034 331.35L577.479 348.991L594.256 370.944L588.182 376.18L567.673 352.316L562.573 323.703L569.117 317.037L580.44 321.952Z" fill="#2F2E41"/>
<path d="M592.856 370.942C592.856 370.942 598.456 371.903 597.52 374.285C596.583 376.668 594.236 387.631 588.169 386.192C588.169 386.192 585.369 386.189 586.305 384.283C586.867 383.137 587.492 382.023 588.176 380.948L588.183 374.75L592.856 370.942Z" fill="#2F2E41"/>
<path d="M573.376 276.517C577.243 276.517 580.378 273.316 580.378 269.366C580.378 265.416 577.243 262.214 573.376 262.214C569.509 262.214 566.375 265.416 566.375 269.366C566.375 273.316 569.509 276.517 573.376 276.517Z" fill="#FFB8B8"/>
<path d="M576.638 274.138L576.628 282.242L569.159 282.233L570.103 274.129L576.638 274.138Z" fill="#FFB8B8"/>
<path d="M567.296 279.37L569.559 278.802L576.631 279.382C576.631 279.382 580.361 283.201 579.893 284.154C579.425 285.107 577.062 308.465 577.062 308.465L581.243 325.158L566.305 326.092L558.838 325.129L560.275 295.094C560.275 295.094 557.017 286.985 561.221 284.607C563.596 283.334 565.669 281.547 567.296 279.37Z" fill="#575A89"/>
<path d="M575.695 281.288L554.692 280.307L550.042 265.521L543.974 265.99L547.217 285.542L566.347 292.241L575.695 281.288Z" fill="#575A89"/>
<path d="M586.892 264.097C589.387 264.097 591.409 262.031 591.409 259.483C591.409 256.934 589.387 254.869 586.892 254.869C584.397 254.869 582.375 256.934 582.375 259.483C582.375 262.031 584.397 264.097 586.892 264.097Z" fill="#2F2E41"/>
<path d="M582.724 257.003C582.724 256.32 582.873 255.646 583.16 255.029C583.446 254.413 583.863 253.869 584.38 253.437C584.897 253.004 585.502 252.695 586.151 252.53C586.799 252.366 587.475 252.35 588.13 252.485C587.552 252.206 586.923 252.056 586.284 252.044C585.645 252.032 585.01 252.159 584.423 252.416C583.835 252.673 583.308 253.055 582.875 253.536C582.443 254.017 582.115 254.586 581.915 255.206C581.714 255.826 581.644 256.482 581.71 257.132C581.776 257.781 581.977 258.409 582.298 258.973C582.619 259.538 583.054 260.026 583.574 260.406C584.094 260.786 584.687 261.049 585.314 261.177C584.539 260.804 583.884 260.213 583.425 259.474C582.966 258.735 582.723 257.878 582.724 257.003Z" fill="#2F2E41"/>
<path d="M578.849 259.619L572.759 258.474L568.075 261.472C566.924 262.209 566.003 263.268 565.423 264.523C564.843 265.778 564.628 267.177 564.802 268.554L569.493 267.339L570.543 264.649L571.794 266.743L576.869 275.806L582.007 272.952L585.281 267.712L578.849 259.619Z" fill="#2F2E41"/>
<path d="M232.231 141.456L231.62 142.543L339.661 205.871L340.272 204.783L232.231 141.456Z" fill="white"/>
<path d="M339.663 141.46L231.618 204.779L232.229 205.867L340.274 142.548L339.663 141.46Z" fill="white"/>
<path d="M483.431 171.652L482.563 172.539L517.554 208.278L518.422 207.391L483.431 171.652Z" fill="white"/>
<path d="M517.554 171.652L482.563 207.392L483.431 208.278L518.422 172.539L517.554 171.652Z" fill="white"/>
</svg>
