<svg width="120" height="120" viewBox="0 0 120 120" fill="none" xmlns="http://www.w3.org/2000/svg">
<path d="M109.998 25.4666C105.531 16.2999 93.0314 8.79991 77.6981 13.1666C73.4525 14.3764 69.4939 16.4282 66.0579 19.1999C62.6219 21.9716 59.7789 25.4065 57.6981 29.2999C54.3244 34.8062 51.8173 40.7984 50.2648 47.0666L67.8648 54.8666L52.5314 69.4332L64.1648 83.0999L69.2314 78.7666L61.7981 69.9999L79.7981 52.8999L58.5981 43.3332C60.3424 38.4548 62.7784 33.8523 65.8314 29.6666C69.1291 24.8733 73.9611 21.3463 79.5314 19.6666C90.6648 16.6999 100.665 21.6666 103.998 28.4999C109.165 39.0999 106.831 50.8999 96.8648 64.5332C86.2627 78.1473 73.8604 90.258 59.9981 100.533C46.1292 90.2272 33.7266 78.0826 23.1314 64.4332C13.1314 50.7666 10.8314 38.9666 15.9981 28.3999C17.7934 25.312 20.3958 22.7714 23.5259 21.0507C26.656 19.3301 30.1956 18.4943 33.7648 18.6332C36.021 18.6453 38.2647 18.9706 40.4314 19.5999C44.7001 20.8109 48.5819 23.1078 51.6981 26.2666L52.1981 25.2666C53.1801 23.6123 54.2949 22.0404 55.5314 20.5666C51.8024 17.0934 47.3007 14.557 42.3981 13.1666C27.3314 8.86658 14.4648 16.2999 9.99809 25.4666C3.73143 38.2999 6.33143 52.7332 17.7314 68.3666C26.6648 80.5999 39.4314 92.9999 57.9648 107.4C58.5505 107.857 59.272 108.105 60.0148 108.105C60.7575 108.105 61.4791 107.857 62.0648 107.4C80.5648 93.0332 93.3648 80.7332 102.298 68.3666C113.665 52.7332 116.265 38.2999 109.998 25.4666Z" fill="#5E5D66" fill-opacity="0.55"/>
</svg>
