<svg width="19" height="25" viewBox="0 0 19 25" fill="none" xmlns="http://www.w3.org/2000/svg">
<path d="M13.4293 9.90249C15.0831 8.39131 17.3196 6.34751 17.5234 1.46484H19V0H0V1.46484H1.47659C1.68043 6.34751 3.91687 8.39131 5.57065 9.90249C6.68001 10.9162 7.30769 11.5367 7.30769 12.5C7.30769 13.4633 6.68001 14.0838 5.57065 15.0975C3.91687 16.6087 1.68043 18.6525 1.47659 23.5352H0V25H19V23.5352H17.5234C17.3196 18.6525 15.0831 16.6087 13.4293 15.0975C12.32 14.0838 11.6923 13.4633 11.6923 12.5C11.6923 11.5367 12.32 10.9162 13.4293 9.90249ZM2.93993 1.46484H16.06C15.9962 2.8458 15.7522 3.96001 15.3988 4.88281H3.60118C3.24783 3.96001 3.0038 2.8458 2.93993 1.46484ZM6.55534 16.18C7.69388 15.1396 8.76923 14.157 8.76923 12.5V17.9901C8.54352 18.0368 8.32054 18.1047 8.10292 18.195L3.62686 20.0514C4.35782 18.1886 5.53514 17.1123 6.55534 16.18ZM16.06 23.5352H2.93998C2.96838 22.9211 3.0323 22.3596 3.12574 21.8445L8.66176 19.5485C9.20224 19.3244 9.79767 19.3244 10.3382 19.5485L15.8743 21.8445C15.9677 22.3596 16.0316 22.9211 16.06 23.5352ZM12.4447 16.18C13.4649 17.1123 14.6421 18.1886 15.3731 20.0513L10.8971 18.1949C10.6795 18.1047 10.4565 18.0368 10.2308 17.9901V12.5C10.2308 14.157 11.3061 15.1396 12.4447 16.18ZM10.5549 11.0352H8.44506C8.04153 10.1788 7.31261 9.51201 6.55529 8.81997C5.82189 8.14976 5.00718 7.40532 4.33551 6.34766H14.6644C13.9928 7.40532 13.1781 8.1498 12.4447 8.81997C11.6873 9.51201 10.9584 10.1788 10.5549 11.0352Z" fill="#6C63FF"/>
</svg>
