<svg width="100" height="100" viewBox="0 0 100 100" fill="none" xmlns="http://www.w3.org/2000/svg">
<g clip-path="url(#clip0)">
<path d="M70.7544 96.618V93.5959C70.7544 88.5959 66.6943 84.5297 61.7018 84.5297H55.6667V48.2649C56.501 48.2649 57.1754 47.5879 57.1754 46.7538V25.5993C57.1754 18.1016 51.0845 12 43.5965 12H40.5789C33.0909 12 27 18.1016 27 25.5993V34.6655C27 35.4996 27.6744 36.1766 28.5088 36.1766H37.5614C38.3958 36.1766 39.0702 35.4996 39.0702 34.6655V25.5993C39.0702 23.9326 40.4235 22.5772 42.0877 22.5772C43.7519 22.5772 45.1053 23.9326 45.1053 25.5993V46.7538C45.1053 47.5879 45.7797 48.2649 46.614 48.2649V84.5297H40.5789C35.5864 84.5297 31.5263 88.5959 31.5263 93.5959V96.618C30.692 96.618 30.0175 97.2934 30.0175 98.129V104.173C30.0175 105.009 30.692 105.684 31.5263 105.684H40.5789C41.4133 105.684 42.0877 105.009 42.0877 104.173V98.129C42.0877 97.2934 41.4133 96.618 40.5789 96.618V95.107C40.5789 94.2729 41.2549 93.5959 42.0877 93.5959H60.193C61.0258 93.5959 61.7018 94.2729 61.7018 95.107V96.618C60.8674 96.618 60.193 97.2934 60.193 98.129V104.173C60.193 105.009 60.8674 105.684 61.7018 105.684H70.7544C71.5887 105.684 72.2632 105.009 72.2632 104.173V98.129C72.2632 97.2934 71.5887 96.618 70.7544 96.618ZM42.0877 19.5552C38.7594 19.5552 36.0526 22.266 36.0526 25.5993V33.1545H30.0175V25.5993C30.0175 19.7667 34.7566 15.0221 40.5789 15.0221H43.5965C49.4188 15.0221 54.1579 19.7667 54.1579 25.5993V45.2428H48.1228V25.5993C48.1228 22.266 45.4161 19.5552 42.0877 19.5552ZM49.6316 48.2649H52.6491V84.5297H49.6316V48.2649ZM39.0702 102.662H33.0351V99.6401H39.0702V102.662ZM60.193 90.5739H42.0877C39.5922 90.5739 37.5614 92.6077 37.5614 95.107V96.618H34.5439V93.5959C34.5439 90.2626 37.2506 87.5518 40.5789 87.5518H46.614H49.6316H52.6491H55.6667H61.7018C65.0301 87.5518 67.7368 90.2626 67.7368 93.5959V96.618H64.7193V95.107C64.7193 92.6077 62.6885 90.5739 60.193 90.5739ZM69.2456 102.662H63.2105V99.6401H69.2456V102.662Z" fill="#AD40F0"/>
</g>
<defs>
<clipPath id="clip0">
<rect width="100" height="100" fill="white"/>
</clipPath>
</defs>
</svg>
