<svg width="89" height="89" viewBox="0 0 89 89" fill="none" xmlns="http://www.w3.org/2000/svg">
<g clip-path="url(#clip0)">
<path d="M85.5738 22.5183C85.2868 22.0289 84.9848 21.5493 84.6766 21.074C85.5403 19.8088 86.6952 18.507 88.1364 17.7252C88.8136 17.358 89.2343 16.6522 89.2343 15.8832C89.2343 15.114 88.8136 14.4083 88.1364 14.0409C85.666 12.7011 84.0307 9.83191 83.276 8.24091C82.9265 7.50428 82.2048 7.0466 81.3928 7.0466C80.5806 7.0466 79.8591 7.50428 79.5094 8.24074C79.0063 9.30112 78.1096 10.9279 76.8378 12.2926C75.2608 10.995 73.5809 9.81998 71.8093 8.78771C71.2007 8.43295 70.4207 8.64032 70.0673 9.25068C69.7137 9.86104 69.9203 10.6432 70.529 10.9978C72.0319 11.8734 73.465 12.8587 74.8194 13.9398C74.7621 13.9731 74.7067 14.0094 74.6486 14.0409C73.9717 14.4083 73.5509 15.114 73.5509 15.8832C73.5509 16.6522 73.9717 17.358 74.6486 17.7252C77.1189 19.0649 78.7543 21.9342 79.5093 23.5252C79.8588 24.2618 80.5804 24.7195 81.3926 24.7195C82.18 24.7195 82.8813 24.2884 83.2418 23.5908C83.2865 23.6654 83.3327 23.7392 83.3767 23.8142C86.5761 29.2693 88.2673 35.5176 88.2673 41.8834C88.2673 57.6159 78.0648 71.0021 63.9467 75.7418V69.7463C74.9106 65.2689 82.6605 54.4681 82.6605 41.8834C82.6605 25.3016 69.2082 11.8114 52.6733 11.8114C36.1383 11.8114 22.686 25.3016 22.686 41.8833C22.686 54.8041 30.8549 65.8457 42.2849 70.0922V76.0269C27.7099 71.5586 17.0792 57.9427 17.0792 41.8833C17.0792 22.2012 33.0467 6.18865 52.6733 6.18865C57.0627 6.18865 61.3473 6.97997 65.4082 8.54081C66.0656 8.79351 66.8024 8.46379 67.0542 7.80486C67.306 7.14577 66.9775 6.40675 66.3205 6.15406C61.9672 4.4811 57.3757 3.63269 52.6733 3.63269C42.485 3.63269 32.9065 7.61146 25.7024 14.8361C18.4982 22.0608 14.5305 31.6664 14.5305 41.8834C14.5305 52.1004 18.498 61.7062 25.7024 68.9307C30.3873 73.6289 36.0771 76.9511 42.2849 78.7023V89.5384C42.2849 90.2442 42.8555 90.8164 43.5593 90.8164H48.662C49.3658 90.8164 49.9364 90.2442 49.9364 89.5384C49.9364 88.8326 49.3658 88.2604 48.662 88.2604H44.8336V62.0552C44.8336 60.72 44.2331 59.481 43.1861 58.6561L41.5739 57.3862C37.8672 54.4661 35.7412 50.0804 35.7412 45.3532C35.7412 42.6742 35.5978 39.5035 37.5607 37.4035C38.333 36.5773 39.3049 36.1756 40.5317 36.1756H53.8465C54.6091 36.1756 55.2322 36.7933 55.2356 37.5526C55.2397 38.5036 54.8739 39.3982 54.2051 40.0719C53.5363 40.7457 52.6457 41.1166 51.6978 41.1166H44.21C43.5948 41.1166 43.0673 41.5575 42.9566 42.1644C42.8458 42.7714 43.1832 43.371 43.7586 43.5896C43.8197 43.6128 49.8885 46.0028 50.4959 53.5159C50.5529 54.2193 51.1673 54.7441 51.8692 54.6866C52.5706 54.6295 53.0933 54.013 53.0364 53.3094C52.6541 48.5811 50.4948 45.5299 48.4634 43.6724H51.6978C53.3286 43.6724 54.8604 43.0341 56.0113 41.8751C56.6388 41.2431 57.11 40.4972 57.4088 39.6851C57.7546 39.7587 58.1128 39.7979 58.48 39.7979C59.431 39.7979 60.3221 39.5376 61.0881 39.0857C61.1098 41.9209 63.4157 44.2209 66.2483 44.2209C67.5158 44.2209 68.6774 43.7595 69.5768 42.9963C69.6741 44.7379 69.6626 46.6423 69.4286 48.5223C68.8132 53.465 66.8639 56.894 63.6349 58.7142C62.2552 59.4921 61.3982 60.9442 61.3982 62.5035V88.2599H54.5928C53.8888 88.2599 53.3184 88.8321 53.3184 89.5379C53.3184 90.2437 53.8888 90.8158 54.5928 90.8158H62.6725C63.3765 90.8158 63.9469 90.2437 63.9469 89.5379V78.4404C69.8104 76.6303 75.1832 73.4042 79.6445 68.9302C86.8486 61.7057 90.8162 52.1001 90.8162 41.8829C90.8162 35.0623 89.0034 28.366 85.5738 22.5183ZM81.3926 21.5903C80.3621 19.6318 78.7815 17.3432 76.542 15.883C78.7815 14.4231 80.3619 12.1345 81.3926 10.1758C82.423 12.1341 84.0037 14.4229 86.2434 15.883C84.0037 17.3432 82.423 19.632 81.3926 21.5903ZM45.5454 33.6197C45.5454 33.6197 40.391 33.6226 40.3206 33.6246V28.2827C40.3206 26.838 41.4926 25.6628 42.9329 25.6628C44.3735 25.6628 45.5454 26.838 45.5454 28.2827V33.6197ZM53.3188 33.6197H48.0942V24.5586C48.0942 23.114 49.2661 21.9388 50.7065 21.9388C52.147 21.9388 53.3188 23.114 53.3188 24.5586V33.6197ZM61.087 34.7274C61.0315 36.123 59.8852 37.242 58.48 37.242C58.2309 37.242 57.9903 37.206 57.7623 37.1399C57.6285 35.8843 56.9008 34.8022 55.8675 34.1806V27.339C55.8675 25.8946 57.0394 24.7193 58.48 24.7193C59.9206 24.7193 61.0923 25.8946 61.0923 27.339L61.087 34.7274ZM68.8606 39.0455C68.8606 40.4899 67.6888 41.6651 66.2483 41.6651C64.8077 41.6651 63.6358 40.4899 63.6358 39.0455L63.6411 31.6572C63.6966 30.2617 64.843 29.1427 66.2483 29.1427C67.6888 29.1427 68.8606 30.3179 68.8606 31.7624V39.0455ZM63.9469 62.5039C63.9469 61.8667 64.3059 61.2685 64.884 60.9425C73.8553 55.8851 72.4623 42.6318 71.4093 37.0315V31.7624C71.4093 28.9085 69.094 26.5867 66.2483 26.5867C65.2972 26.5867 64.406 26.8471 63.64 27.299C63.6183 24.4637 61.3123 22.1637 58.48 22.1637C57.4296 22.1637 56.4519 22.4808 55.6356 23.0235C54.9818 20.9169 53.0194 19.3832 50.7065 19.3832C48.1005 19.3832 45.9406 21.3306 45.595 23.8503C44.8173 23.3788 43.9062 23.107 42.9331 23.107C40.0872 23.107 37.7721 25.4289 37.7721 28.2828V34.1806C36.9972 34.5223 36.2997 35.0156 35.7013 35.6558C33.056 38.4857 33.1061 43.0788 33.1925 44.4902V45.3536C33.1925 50.8702 35.6736 55.9886 39.9995 59.3965L41.6117 60.6665C42.0395 61.0035 42.2849 61.5098 42.2849 62.0555V67.3484C32.2916 63.2335 25.2347 53.3706 25.2347 41.8836C25.2347 26.7111 37.5435 14.3675 52.6733 14.3675C67.803 14.3675 80.1118 26.7113 80.1118 41.8836C80.1118 53.0286 73.4694 62.646 63.9467 66.9671V62.5039H63.9469Z" fill="#AD40F0"/>
<path d="M18.423 70.9584C15.8941 69.5908 14.2199 66.6617 13.447 65.0372C13.0891 64.2854 12.3503 63.8184 11.519 63.8184C10.6877 63.8184 9.94914 64.2856 9.59116 65.0374C8.81831 66.6615 7.14406 69.5906 4.61522 70.9584C3.92204 71.3332 3.49152 72.0539 3.49152 72.8389C3.49152 73.6239 3.92221 74.3446 4.61522 74.7195C7.14406 76.087 8.81831 79.0161 9.59116 80.6405C9.94897 81.3923 10.6877 81.8593 11.519 81.8595H11.5192C12.3505 81.8595 13.0892 81.3924 13.447 80.6405C14.2199 79.0161 15.8941 76.0872 18.423 74.7195C19.1162 74.3446 19.5467 73.6239 19.5467 72.8389C19.5467 72.0539 19.1162 71.3332 18.423 70.9584ZM11.5192 78.6651C10.4642 76.6658 8.84596 74.3293 6.55351 72.8389C8.84596 71.3485 10.4642 69.0121 11.5192 67.0127C12.5742 69.0121 14.1924 71.3487 16.4849 72.8389C14.1922 74.3295 12.5742 76.6658 11.5192 78.6651Z" fill="#AD40F0"/>
</g>
<defs>
<clipPath id="clip0">
<rect width="89" height="89" fill="white"/>
</clipPath>
</defs>
</svg>
