<svg width="50" height="50" viewBox="0 0 50 50" fill="none" xmlns="http://www.w3.org/2000/svg">
<circle cx="25" cy="25" r="25" fill="#6C63FF"/>
<path d="M12.4596 23.2196C11.4933 22.5406 10.8534 21.411 10.8534 20.1377C10.8534 18.0548 12.538 16.3702 14.6209 16.3702C16.7038 16.3702 18.3884 18.0548 18.3884 20.1377C18.3884 21.411 17.755 22.5406 16.7822 23.2196C17.6114 23.5069 18.3688 23.9509 19.0087 24.5255C19.8902 23.7746 20.9284 23.2 22.0645 22.8605C20.6868 22.0247 19.7596 20.5034 19.7596 18.7731C19.7596 16.1351 21.8947 14 24.5326 14C27.1706 14 29.3057 16.1417 29.3057 18.7731C29.3057 20.5034 28.385 22.0247 27.0008 22.8605C28.1239 23.2 29.149 23.7681 30.0239 24.5059C30.6638 23.9444 31.4082 23.5069 32.2244 23.2262C31.258 22.5471 30.6181 21.4175 30.6181 20.1442C30.6181 18.0613 32.3027 16.3767 34.3856 16.3767C36.4685 16.3767 38.1531 18.0613 38.1531 20.1442C38.1531 21.4175 37.5198 22.5471 36.5469 23.2262C39.1391 24.1207 41 26.5823 41 29.4749V29.9058C41 29.9189 40.9869 29.9319 40.9739 29.9319H32.9883C33.034 30.2911 33.0602 30.6632 33.0602 31.0354V31.4794C33.0602 33.3991 31.5061 34.9531 29.5865 34.9531H19.4658C17.5461 34.9531 15.9921 33.3991 15.9921 31.4794V31.0354C15.9921 30.6632 16.0182 30.2911 16.0639 29.9319H8.02612C8.01306 29.9319 8 29.9189 8 29.9058V29.4749C8.01306 26.5758 9.86743 24.1142 12.4596 23.2196ZM17.3437 20.1312C17.3437 18.6294 16.1227 17.4084 14.6209 17.4084C13.1191 17.4084 11.8981 18.6294 11.8981 20.1312C11.8981 21.6134 13.093 22.8213 14.5687 22.854C14.5882 22.854 14.6013 22.854 14.6209 22.854C14.6405 22.854 14.6535 22.854 14.6731 22.854C16.1553 22.8279 17.3437 21.6199 17.3437 20.1312ZM28.274 18.7731C28.274 16.7163 26.6025 15.0447 24.5457 15.0447C22.4889 15.0447 20.8174 16.7163 20.8174 18.7731C20.8174 20.758 22.3779 22.3839 24.3302 22.4949C24.4021 22.4949 24.4739 22.4949 24.5457 22.4949C24.6175 22.4949 24.6894 22.4949 24.7612 22.4949C26.7135 22.3839 28.274 20.758 28.274 18.7731ZM37.128 20.1312C37.128 18.6294 35.907 17.4084 34.4052 17.4084C32.9034 17.4084 31.6824 18.6294 31.6824 20.1312C31.6824 21.6134 32.8773 22.8213 34.353 22.854C34.3726 22.854 34.3856 22.854 34.4052 22.854C34.4248 22.854 34.4379 22.854 34.4575 22.854C35.9331 22.8279 37.128 21.6199 37.128 20.1312ZM32.8055 28.8807H39.9422C39.6484 26.0991 37.2978 23.9183 34.4444 23.8987C34.4313 23.8987 34.4183 23.8987 34.4052 23.8987C34.3922 23.8987 34.3791 23.8987 34.366 23.8987C33.0079 23.9052 31.7673 24.408 30.8075 25.2242C31.7477 26.2428 32.4464 27.4964 32.8055 28.8807ZM17.0499 31.4794C17.0499 32.818 18.1403 33.9084 19.4788 33.9084H29.5995C30.9381 33.9084 32.0285 32.818 32.0285 31.4794V31.0354C32.0285 26.9806 28.7899 23.6636 24.7612 23.5461C24.6894 23.5526 24.611 23.5526 24.5392 23.5526C24.4674 23.5526 24.389 23.5526 24.3172 23.5461C20.2885 23.6636 17.0499 26.9806 17.0499 31.0354V31.4794ZM16.2729 28.8807C16.632 27.503 17.3176 26.2689 18.2513 25.2503C17.2849 24.4145 16.0313 23.9118 14.6601 23.8987C14.647 23.8987 14.634 23.8987 14.6209 23.8987C14.6078 23.8987 14.5948 23.8987 14.5817 23.8987C11.7283 23.9183 9.37772 26.0991 9.08389 28.8807H16.2729Z" fill="white"/>
</svg>
