<?xml version="1.0" standalone="no"?>
<!DOCTYPE svg PUBLIC "-//W3C//DTD SVG 20010904//EN"
 "http://www.w3.org/TR/2001/REC-SVG-20010904/DTD/svg10.dtd">
<svg version="1.0" xmlns="http://www.w3.org/2000/svg"
 width="1200.000000pt" height="1200.000000pt" viewBox="0 0 1200.000000 1200.000000"
 preserveAspectRatio="xMidYMid meet">

<g transform="translate(0.000000,1200.000000) scale(0.100000,-0.100000)"
fill="#000000" stroke="none">
<path d="M6810 8629 c-34 -14 -70 -49 -82 -79 -9 -23 -30 -128 -44 -213 -12
-82 -67 -287 -115 -436 -96 -293 -234 -610 -373 -856 -77 -135 -229 -370 -248
-381 -13 -8 -76 57 -152 156 -233 301 -395 675 -477 1100 -17 85 -32 166 -35
179 -3 14 -22 41 -43 62 -69 69 -176 64 -341 -17 -82 -41 -108 -60 -195 -148
-86 -87 -107 -114 -147 -196 -128 -260 -96 -525 113 -941 133 -264 293 -495
493 -711 224 -243 342 -341 491 -409 213 -96 444 -70 655 74 366 251 927 1095
1126 1692 63 191 79 278 79 430 -1 117 -3 138 -29 209 -46 128 -111 223 -218
321 -144 130 -354 205 -458 164z"/>
<path d="M5855 8421 c-79 -23 -111 -41 -171 -95 -99 -88 -149 -233 -125 -357
43 -217 249 -365 456 -328 215 39 361 238 333 454 -21 162 -158 304 -323 334
-76 14 -98 13 -170 -8z"/>
</g>
</svg>
