<?xml version="1.0" standalone="no"?>
<!DOCTYPE svg PUBLIC "-//W3C//DTD SVG 20010904//EN"
 "http://www.w3.org/TR/2001/REC-SVG-20010904/DTD/svg10.dtd">
<svg version="1.0" xmlns="http://www.w3.org/2000/svg"
 width="839.000000pt" height="299.000000pt" viewBox="0 0 839.000000 299.000000"
 preserveAspectRatio="xMidYMid meet">

<g transform="translate(0.000000,299.000000) scale(0.100000,-0.100000)"
fill="#000000" stroke="none">
<path d="M1933 2661 c-36 -22 -41 -37 -73 -206 -70 -365 -241 -775 -465 -1120
-73 -113 -77 -115 -117 -70 -203 229 -347 538 -418 893 -26 134 -31 149 -60
175 -76 68 -254 12 -390 -123 -200 -201 -209 -449 -31 -815 65 -132 183 -315
284 -440 36 -44 123 -137 194 -206 115 -112 141 -132 225 -174 87 -43 104 -48
185 -52 142 -9 240 27 376 137 151 121 396 441 544 710 11 19 36 64 56 100 92
166 182 398 212 549 23 110 16 244 -15 321 -69 174 -255 326 -413 337 -50 3
-68 0 -94 -16z"/>
<path d="M1229 2514 c-60 -18 -141 -94 -170 -159 -31 -69 -31 -172 0 -235 29
-57 84 -115 136 -143 33 -18 57 -22 130 -22 103 0 144 16 206 82 61 64 83 117
83 203 0 92 -29 157 -99 218 -78 68 -181 89 -286 56z"/>
</g>
</svg>
