<svg width="94" height="94" viewBox="0 0 94 94" fill="none" xmlns="http://www.w3.org/2000/svg">
<path d="M37.7886 13.4753C29.5762 5.26711 13.5055 4.31531 2.13429 4.31531C0.955601 4.31531 0 5.27091 0 6.4496C0 17.825 0.951799 33.8957 9.16004 42.1084C13.0139 45.5406 18.0514 47.3391 23.2075 47.1239C28.524 47.3333 33.7259 45.544 37.7886 42.1084C43.9054 35.9872 45.0279 20.7148 37.7886 13.4753Z" fill="#AD40F0"/>
<path d="M91.8656 12.7582C80.4902 12.7582 64.4195 13.71 56.2069 21.9182C48.9504 29.1747 50.0901 44.4258 56.2069 50.5468C60.2708 53.9831 65.4743 55.7724 70.7922 55.5623C75.9481 55.7772 80.9856 53.9786 84.8397 50.5468C93.0521 42.3344 93.9997 26.2636 93.9997 14.8881C93.9975 13.7112 93.0427 12.7582 91.8656 12.7582Z" fill="#AD40F0"/>
<path d="M44.8188 89.6845C43.6401 89.6845 42.6845 88.7289 42.6845 87.5502C42.6845 42.2833 26.0846 30.9249 19.8355 26.6521C19.0818 26.1709 18.3681 25.6299 17.7012 25.0344C16.8823 24.1867 16.9059 22.8355 17.7537 22.0166C18.5808 21.2176 19.892 21.2176 20.7191 22.0166C21.2011 22.4241 21.7117 22.7965 22.2471 23.1306C27.7961 26.9252 40.8661 35.8678 45.3864 65.2005C48.8797 49.865 59.2348 36.9896 73.4644 30.2888C74.5541 29.7762 75.8546 30.1868 76.4523 31.2322C76.9921 32.1836 76.6587 33.3923 75.7074 33.9324C75.6717 33.9526 75.6353 33.9718 75.5985 33.9898L75.2528 34.152C51.8531 45.1519 46.9401 69.2602 46.9401 87.5504C46.9403 88.7239 45.9925 89.6773 44.8188 89.6845Z" fill="#772CA5"/>
</svg>
