<svg width="586" height="456" viewBox="0 0 586 456" fill="none" xmlns="http://www.w3.org/2000/svg">
<path fill-rule="evenodd" clip-rule="evenodd" d="M285.635 0.0145982C339.809 -0.603197 390.019 18.4619 437.232 43.1166C490.267 70.8115 550.263 97.6992 572.994 150.075C596.244 203.647 586.808 267.861 556.712 318.414C529.031 364.91 471.285 384.923 419.589 407.752C377.045 426.539 332.514 433.717 285.635 438.122C232.85 443.082 177.854 456.942 130.402 434.925C79.2003 411.167 43.3465 365.485 22.4897 316.023C0.740348 264.444 -9.81103 205.766 12.0379 154.223C33.3407 103.969 86.977 74.5816 136.722 46.5436C182.609 20.6802 231.948 0.626844 285.635 0.0145982Z" fill="#F7EAFF"/>
<path d="M402 142.669H399.742V80.8051C399.742 71.309 395.969 62.2019 389.254 55.4871C382.539 48.7723 373.431 45 363.934 45H232.859C228.157 45 223.501 45.9261 219.156 47.7255C214.812 49.5248 210.865 52.1622 207.54 55.487C204.215 58.8118 201.577 62.7589 199.778 67.103C197.978 71.4471 197.052 76.103 197.052 80.805V420.195C197.052 424.897 197.978 429.553 199.778 433.897C201.577 438.241 204.215 442.188 207.54 445.513C210.865 448.838 214.812 451.475 219.156 453.274C223.501 455.074 228.157 456 232.859 456H363.934C373.431 456 382.539 452.228 389.254 445.513C395.969 438.798 399.742 429.691 399.742 420.195V186.705H402V142.669Z" fill="#3F3D56"/>
<path d="M365.379 54.3155H348.269C349.056 56.2444 349.357 58.3372 349.144 60.4095C348.931 62.4819 348.212 64.4701 347.05 66.1992C345.888 67.9282 344.319 69.3449 342.48 70.3246C340.642 71.3042 338.59 71.8167 336.507 71.8168H261.416C259.332 71.8167 257.281 71.3042 255.442 70.3246C253.604 69.3449 252.034 67.9282 250.872 66.1992C249.71 64.4701 248.991 62.4819 248.779 60.4095C248.566 58.3372 248.866 56.2444 249.653 54.3154H233.673C226.581 54.3154 219.779 57.1325 214.764 62.147C209.75 67.1615 206.932 73.9627 206.932 81.0542V419.946C206.932 423.457 207.624 426.934 208.968 430.179C210.312 433.423 212.281 436.37 214.764 438.853C217.247 441.336 220.195 443.306 223.44 444.65C226.684 445.993 230.161 446.685 233.673 446.685H365.379C368.891 446.685 372.368 445.993 375.612 444.65C378.856 443.306 381.804 441.336 384.287 438.853C386.77 436.37 388.74 433.423 390.084 430.179C391.428 426.934 392.12 423.457 392.12 419.946V81.0542C392.12 77.5429 391.428 74.0658 390.084 70.8217C388.74 67.5776 386.77 64.63 384.287 62.147C381.804 59.6641 378.856 57.6946 375.612 56.3508C372.368 55.0071 368.891 54.3155 365.379 54.3155Z" fill="white"/>
<path d="M299.298 117.426H222.713V248.25H299.298V117.426Z" fill="#AD40F0" fill-opacity="0.3"/>
<path d="M376.109 258.498H312.456V406.609H376.109V258.498Z" fill="#AD40F0" fill-opacity="0.3"/>
<path d="M376.339 117.426H312.518V153.437H376.339V117.426Z" fill="#AD40F0" fill-opacity="0.3"/>
<path d="M376.339 163.465H312.518V202.211H376.339V163.465Z" fill="#AD40F0" fill-opacity="0.3"/>
<path d="M376.339 212.239H312.518V248.25H376.339V212.239Z" fill="#AD40F0" fill-opacity="0.3"/>
<path d="M299.393 258.498H222.808V315.51H299.393V258.498Z" fill="#6C63FF"/>
<path d="M299.393 326.562H222.808V406.729H299.393V326.562Z" fill="#AD40F0" fill-opacity="0.3"/>
<path d="M208.616 263.716L219.276 269.129C223.081 271.06 226.753 270.73 228.159 266.702C228.494 265.743 228.617 264.723 228.521 263.712C228.425 262.702 228.112 261.723 227.603 260.845C227.094 259.966 226.401 259.208 225.571 258.622C224.742 258.036 223.796 257.637 222.798 257.45L212.666 255.559L169.275 241.164L142.991 222.527L133.356 237.877L163.727 254.264L208.616 263.716Z" fill="#966868"/>
<path d="M158.855 443.383L167.011 442.023L166.104 426.619H157.495L158.855 443.383Z" fill="#966868"/>
<path d="M79.6964 428.337L87.5896 430.799L93.7241 416.639L86.0388 412.76L79.6964 428.337Z" fill="#966868"/>
<path d="M117.213 212.469C132.743 205.864 152.085 210.049 170.974 212.953C171.15 209.436 173.281 205.156 171.049 202.702C168.337 199.721 168.587 196.589 170.218 193.438C174.391 185.382 168.413 176.81 162.377 169.683C161.017 168.08 159.297 166.821 157.359 166.007C155.42 165.193 153.317 164.848 151.22 165L140.039 165.799C137.318 165.993 134.722 167.014 132.597 168.724C130.472 170.434 128.92 172.753 128.149 175.369C125.479 179 124.05 182.62 124.95 186.222C120.951 188.955 120.279 192.253 122.076 195.972C123.6 198.313 123.583 200.592 122.007 202.808C119.936 205.634 118.35 208.784 117.313 212.13L117.213 212.469Z" fill="#2F2E41"/>
<path d="M84.0921 414.839L94.0605 418.917L141.637 356.392L156.589 429.79L166.557 427.978C172.952 364.699 178.166 300.154 171.768 269.627L134.84 268.042L118.075 321.505L109.919 357.751L84.0921 414.839Z" fill="#2F2E41"/>
<path d="M159.303 455.841C160.795 456.161 162.349 455.995 163.74 455.37L168.585 453.189C172.647 452.981 175.414 453.79 177.675 450.838C178.314 449.995 178.714 448.996 178.836 447.945C178.958 446.894 178.796 445.83 178.368 444.863C177.943 443.892 177.268 443.052 176.411 442.429C175.554 441.806 174.547 441.421 173.493 441.316L166.838 437.123L166.489 440.266C163.448 441.989 159.837 441.245 156.01 439.568L153.922 446.878C153.652 447.82 153.58 448.808 153.708 449.78C153.836 450.752 154.163 451.687 154.667 452.527C155.172 453.368 155.844 454.095 156.641 454.665C157.439 455.235 158.345 455.636 159.303 455.841Z" fill="#2F2E41"/>
<path d="M76.467 440.847C77.7737 441.633 79.2975 441.982 80.8161 441.841L86.1065 441.353C90.0166 442.475 92.3701 444.138 95.468 442.081C96.3455 441.49 97.0489 440.675 97.5053 439.721C97.9616 438.767 98.1542 437.708 98.0632 436.654C97.9767 435.598 97.6108 434.584 97.003 433.716C96.3952 432.849 95.5673 432.158 94.6045 431.716L89.6722 425.59L88.321 428.449C84.8849 429.091 81.7113 427.215 78.637 424.386L74.2877 430.622C73.7269 431.426 73.3373 432.336 73.143 433.297C72.9487 434.258 72.9539 435.248 73.1582 436.207C73.3625 437.166 73.7617 438.072 74.3309 438.87C74.9 439.669 75.6271 440.341 76.467 440.847Z" fill="#2F2E41"/>
<path d="M148.433 203.704C157.442 203.704 164.745 196.402 164.745 187.393C164.745 178.385 157.442 171.083 148.433 171.083C139.425 171.083 132.121 178.385 132.121 187.393C132.121 196.402 139.425 203.704 148.433 203.704Z" fill="#966868"/>
<path d="M128.496 221.827L149.793 217.297L152.511 199.627L137.559 196.455L128.496 221.827Z" fill="#966868"/>
<path d="M134.387 270.307H172.448L163.869 248.769C164.492 241.358 161.351 235.908 156.855 231.162L151.152 216.844C141.936 210.779 134.989 211.232 127.59 219.109C118.819 231.528 124.89 250.196 134.387 270.307Z" fill="#6C63FF"/>
<path d="M151.605 316.068L152.687 327.974C153.074 332.223 155.306 335.157 159.465 334.207C160.455 333.98 161.385 333.543 162.19 332.924C162.995 332.305 163.657 331.52 164.131 330.622C164.604 329.724 164.878 328.734 164.933 327.72C164.989 326.706 164.824 325.692 164.451 324.748L160.667 315.162L149.793 270.76L151.605 238.591H133.481L135.746 273.025L151.605 316.068Z" fill="#966868"/>
<path d="M123.025 209.024C124.779 193.135 129.273 179.604 137.071 168.919L138.238 168.88V168.591L142.029 168.752L152.57 168.398C152.323 168.655 152.087 168.912 151.849 169.17L159.534 169.497L166.784 184.449C159.815 182.431 152.479 182.015 145.326 183.23C144.436 183.364 143.597 183.73 142.893 184.291C142.189 184.852 141.645 185.588 141.316 186.425C141.19 186.688 141.126 186.976 141.128 187.267C141.13 187.558 141.199 187.845 141.329 188.105C144.376 193.419 144.224 199.255 141.128 205.382C140.452 206.72 141.75 208.33 142.156 209.806L123.025 209.024Z" fill="#2F2E41"/>
<path d="M132.121 239.498H152.964L151.503 225.902C151.407 223.55 150.435 221.32 148.779 219.648C147.122 217.976 144.901 216.984 142.55 216.867C141.304 216.804 140.059 216.99 138.885 217.412C137.712 217.834 136.634 218.485 135.713 219.327C134.793 220.168 134.049 221.184 133.524 222.315C132.998 223.447 132.703 224.671 132.654 225.917L132.121 239.498Z" fill="#6C63FF"/>
</svg>
