<svg width="49" height="88" viewBox="0 0 49 88" fill="none" xmlns="http://www.w3.org/2000/svg">
<path d="M49 25.0766C49 11.2272 38.0311 0 24.5 0C10.9689 0 0 11.2272 0 25.0766C0 37.2292 8.4462 47.3617 19.6576 49.6624V67.4015H9.26466V77.3142H19.6576V88H29.3424V77.3142H39.7353V67.4015H29.3424V49.6624C40.554 47.3617 49 37.2292 49 25.0766ZM9.26466 25.0766C9.26466 16.4642 16.0857 9.48269 24.5 9.48269C32.9143 9.48269 39.7353 16.4642 39.7353 25.0766C39.7353 33.6889 32.9143 40.6704 24.5 40.6704C16.0857 40.6704 9.26466 33.6889 9.26466 25.0766Z" fill="#AD40F0"/>
</svg>
