<svg width="87" height="85" viewBox="0 0 87 85" fill="none" xmlns="http://www.w3.org/2000/svg">
<path d="M86.6003 67.9053L83.3028 63.5249C82.7728 62.8209 81.9174 62.8258 81.3919 63.5354C80.8663 64.245 80.8699 65.3909 81.3997 66.0947L84.6971 70.4751C84.9606 70.8252 85.3047 71 85.6486 71C85.9962 71 86.3438 70.8214 86.6079 70.4646C87.1337 69.755 87.1302 68.6091 86.6003 67.9053Z" fill="#AD40F0"/>
<path d="M79.561 59.4392C78.9756 58.8536 78.0267 58.8536 77.441 59.4392L77.4384 59.4418C76.853 60.0274 76.8543 60.9757 77.4398 61.5613C77.732 61.8538 78.1156 62 78.499 62C78.8833 62 79.2679 61.8532 79.5609 61.5601C80.1463 60.9745 80.1463 60.025 79.561 59.4392Z" fill="#AD40F0"/>
<path d="M57.4302 60.2276L72.3099 42.4946C74.5634 39.8087 74.5634 35.4385 72.3097 32.7526C71.515 31.8055 70.5444 31.194 69.5222 30.9149C69.8728 30.0168 70.0583 29.0311 70.0583 28.0111C70.0583 26.1711 69.457 24.4412 68.3654 23.1403C67.5093 22.1197 66.4313 21.4607 65.2614 21.2233C65.92 18.8316 65.4545 16.0925 63.8616 14.1944C62.9858 13.1508 61.8965 12.5148 60.7597 12.2823C60.9501 11.5934 61.0506 10.866 61.0506 10.1196C61.0506 8.27957 60.4493 6.54971 59.3577 5.2488C58.266 3.94788 56.8145 3.23126 55.2707 3.23126C54.2903 3.23126 53.3476 3.52113 52.5101 4.0654L52.3621 3.87587C50.4388 1.41258 47.7163 0 44.8932 0H32.8487C32.0018 0 31.3149 0.8186 31.3149 1.828V4.22514C31.3149 5.18446 31.4511 6.11839 31.7115 6.99657C31.0177 6.65315 30.267 6.47276 29.4932 6.47276C27.9492 6.47276 26.4977 7.18938 25.406 8.4903C23.8123 10.3896 23.3472 13.1307 24.0074 15.523C22.8697 15.755 21.7788 16.3914 20.9023 17.4359C19.8107 18.737 19.2094 20.4668 19.2094 22.3067C19.2094 23.0516 19.3095 23.7779 19.4992 24.4653C18.3307 24.7035 17.2538 25.3621 16.3984 26.3818C14.6384 28.4794 14.253 31.6046 15.2423 34.1522C14.1947 34.4375 13.2326 35.0662 12.4538 35.9941C10.2003 38.6798 10.2003 43.05 12.4538 45.7359L15.5139 49.3826L0.449252 67.3359C-0.149751 68.0497 -0.149751 69.2072 0.449252 69.9212C0.748752 70.278 1.14134 70.4567 1.53377 70.4567C1.92621 70.4567 2.31879 70.2782 2.6183 69.9212L17.8283 51.7944C18.6894 52.3799 19.6665 52.6932 20.685 52.6932C22.2288 52.6932 23.6803 51.9766 24.772 50.6755C25.9581 49.2622 26.519 47.3821 26.4566 45.5267C26.5344 45.5305 26.6121 45.5332 26.6899 45.5332C28.1697 45.5331 29.6504 44.8616 30.7769 43.519C31.8685 42.2179 32.4698 40.488 32.4698 38.6482C32.4698 38.5551 32.4672 38.4627 32.4641 38.3702C32.5409 38.3738 32.6178 38.3768 32.6948 38.3768C34.1748 38.3768 35.6551 37.7053 36.7818 36.3625C37.8734 35.0614 38.4747 33.3316 38.4747 31.4917C38.4747 31.3986 38.4721 31.3062 38.469 31.2137C38.5458 31.2173 38.6227 31.2203 38.6997 31.2203C40.1798 31.2203 41.66 30.5488 42.7867 29.206C44.9042 26.6824 45.0317 22.672 43.1701 19.9688L53.3519 7.83436C53.8643 7.22356 54.5451 6.88746 55.2697 6.88746C55.9943 6.88746 56.6754 7.22356 57.1877 7.83436C57.7001 8.44497 57.9821 9.25644 57.9821 10.12C57.9821 10.9834 57.7001 11.7952 57.1876 12.4056L55.6864 14.1947L50.2396 20.6861C49.6406 21.4 49.6406 22.5574 50.2396 23.2715C50.5391 23.6283 50.9317 23.807 51.3241 23.807C51.7165 23.807 52.1091 23.6284 52.4086 23.2715L57.8554 16.7801C58.9128 15.5198 60.6336 15.5196 61.6913 16.7799C62.7488 18.0404 62.7488 20.091 61.6913 21.3516L60.19 23.1408L56.2445 27.843C55.6455 28.5569 55.6455 29.7143 56.2445 30.4284C56.544 30.7851 56.9366 30.9639 57.329 30.9639C57.7214 30.9639 58.114 30.7853 58.4135 30.4284L62.359 25.7262C62.8714 25.1154 63.5524 24.7793 64.2769 24.7793C65.0015 24.7793 65.6825 25.1154 66.1949 25.7262C66.7072 26.3368 66.9892 27.1483 66.9892 28.0119C66.9892 28.8752 66.7072 29.6871 66.1947 30.2975L64.1341 32.7533L62.2492 34.9996C61.6502 35.7135 61.6502 36.871 62.2492 37.585C62.5487 37.9418 62.9413 38.1205 63.3337 38.1205C63.7262 38.1205 64.1188 37.942 64.4183 37.585L66.3045 35.337C67.3622 34.0787 69.0819 34.0789 70.139 35.3387C71.1967 36.599 71.1967 38.6498 70.139 39.9103L55.2593 57.6434C51.523 62.0964 46.5572 64.6743 41.2768 64.9027C40.8886 64.9195 40.52 65.1113 40.2458 65.4395L26.5003 81.8817C25.9024 82.5968 25.9041 83.7543 26.5043 84.4669C26.8035 84.8222 27.1952 85 27.5868 85C27.9802 85 28.3738 84.8207 28.6733 84.4621L38.7835 72.3686C41.3516 74.3321 44.3718 75.2656 47.4427 75.0237L55.3555 84.4541C55.655 84.8108 56.0476 84.9896 56.44 84.9896C56.8326 84.9896 57.225 84.811 57.5245 84.4541C58.1235 83.7402 58.1235 82.5828 57.5245 81.8687L49.1115 71.8412C48.793 71.4618 48.3504 71.2679 47.9015 71.3117L47.4152 71.3592C45.1706 71.5786 42.9519 70.9926 41.0147 69.6988L42.0005 68.5198C47.8304 68.0912 53.2886 65.1637 57.4302 60.2276ZM22.603 48.0905C22.0906 48.7013 21.4094 49.0374 20.6851 49.0374C19.9605 49.0374 19.2795 48.7013 18.7673 48.0905L14.6227 43.1513C13.5652 41.8909 13.5652 39.8401 14.6227 38.5796C15.1351 37.9688 15.8163 37.6327 16.5407 37.6327C17.2652 37.6327 17.9464 37.9688 18.4586 38.5796L22.6031 43.5188C23.6605 44.7792 23.6605 46.8299 22.603 48.0905ZM28.6082 40.9336C27.5505 42.194 25.8294 42.194 24.7722 40.9336L20.6276 35.9942L18.5668 33.5383C17.5093 32.2779 17.5093 30.2271 18.5668 28.9668C19.0792 28.356 19.7604 28.0199 20.4847 28.0199C21.2093 28.0199 21.8903 28.356 22.4025 28.9668L28.6077 36.362C28.6077 36.362 28.6077 36.362 28.6079 36.362C29.1204 36.9728 29.4024 37.7844 29.4024 38.6478C29.4024 39.5112 29.1204 40.323 28.6082 40.9336ZM34.6131 33.777C33.5554 35.0371 31.8344 35.0373 30.7771 33.777L23.0705 24.5925C22.5582 23.9819 22.2762 23.1704 22.2762 22.3069C22.2762 21.4435 22.5582 20.6317 23.0707 20.0212C23.5995 19.3911 24.2942 19.076 24.9886 19.076C25.6826 19.076 26.3766 19.3907 26.9052 20.0198L30.4176 24.2058L34.6128 29.2055H34.6129C35.1251 29.8161 35.4071 30.6276 35.4071 31.4911C35.4074 32.3547 35.1254 33.1665 34.6131 33.777ZM40.6181 26.6203C39.5606 27.8806 37.8398 27.8806 36.7823 26.6203L29.0758 17.4359C29.075 17.4349 29.0741 17.434 29.0731 17.4329L27.5744 15.6468C26.5169 14.3863 26.5169 12.3356 27.5744 11.0751C28.1032 10.4448 28.7979 10.1297 29.4924 10.1297C30.187 10.1297 30.8817 10.4448 31.4103 11.0751L40.6178 22.0484C41.1303 22.6591 41.4123 23.4707 41.4123 24.3341C41.4125 25.1978 41.1306 26.0099 40.6181 26.6203ZM41.0214 17.3593L36.8085 12.3384C37.2862 12.4599 37.7774 12.5244 38.2773 12.5243C38.2885 12.5243 38.2999 12.5243 38.3112 12.5243L42.5205 12.5007C43.3675 12.4959 44.0511 11.6737 44.0471 10.6641C44.0431 9.65742 43.3572 8.84468 42.5134 8.84468C42.511 8.84468 42.5085 8.84468 42.5061 8.84468L38.2968 8.86825C38.2904 8.86825 38.2842 8.86825 38.2778 8.86825C37.2406 8.86825 36.2652 8.3885 35.5297 7.51616C34.7896 6.63817 34.3821 5.46957 34.3821 4.22495V3.65583H44.8927C46.8672 3.65583 48.771 4.64366 50.1163 6.3664L50.1787 6.44626L41.0214 17.3593Z" fill="#AD40F0"/>
</svg>
