<svg width="92" height="81" viewBox="0 0 92 81" fill="none" xmlns="http://www.w3.org/2000/svg">
<path d="M80.7715 19.2972V4.53884C80.7715 2.9136 79.9327 1.45263 78.5277 0.630869C77.1174 -0.194116 75.421 -0.211135 73.9905 0.586619C60.3299 8.20335 45.4696 12.6515 29.8224 13.8082C29.7025 13.817 15.5602 13.8786 15.5602 13.8786C12.0083 13.8786 9.0726 16.5521 8.66633 19.986H5.76348C2.5857 19.986 0 22.5636 0 25.7321V38.3564C0 41.5249 2.5857 44.1027 5.76348 44.1027H8.66597C8.9585 46.574 10.5606 48.65 12.7601 49.6203L23.0895 78.0421C23.7351 79.8112 25.4375 81 27.3262 81H37.6918C39.1613 81 40.5416 80.2836 41.3845 79.0836C42.2275 77.8833 42.4307 76.345 41.929 74.9704L33.0544 50.5635C47.516 52.0614 61.2724 56.404 73.9903 63.4951C74.692 63.8864 75.4576 64.0815 76.222 64.0815C77.0157 64.0813 77.8086 63.8709 78.5272 63.4507C79.9322 62.6287 80.7713 61.1679 80.7713 59.5423V44.784C87.0965 43.967 92 38.5658 92 32.0407C92 25.5153 87.0965 20.114 80.7715 19.2972ZM8.6162 39.6708H5.76348C5.03628 39.6708 4.44493 39.0813 4.44493 38.3562V25.7321C4.44493 25.0076 5.03628 24.4177 5.76348 24.4177H8.6162V39.6708ZM14.5421 45.56C13.6706 45.1706 13.0611 44.299 13.0611 43.287V20.8014H13.0613C13.0613 19.4278 14.1824 18.3103 15.56 18.3103H27.6589V45.7782C27.6589 45.7782 15.4546 45.7736 15.4019 45.7704C14.9561 45.7189 14.8623 45.696 14.5421 45.56ZM37.7507 76.4827C37.7579 76.5008 37.7626 76.5137 37.7434 76.5408C37.7245 76.5678 37.7105 76.5678 37.6916 76.5678H27.326C27.2996 76.5678 27.2753 76.5512 27.2672 76.5293L17.7019 50.2097H28.1976L37.7507 76.4827ZM76.3266 59.5425C76.3266 59.5746 76.3266 59.6002 76.2786 59.6283C76.2215 59.6613 76.1873 59.6425 76.16 59.6272C62.4976 52.0098 47.6851 47.437 32.1039 46.019V18.0645C47.6864 16.6444 62.4989 12.0712 76.1595 4.45446C76.1875 4.43924 76.2222 4.42043 76.2786 4.45339C76.3266 4.48152 76.3266 4.50678 76.3266 4.53884V59.5425ZM80.7715 40.298V23.7831C84.6353 24.556 87.5551 27.9643 87.5551 32.0405C87.5551 36.1169 84.6351 39.5254 80.7715 40.298Z" fill="#AD40F0"/>
</svg>
