<svg width="385" height="271" viewBox="0 0 385 271" fill="none" xmlns="http://www.w3.org/2000/svg">
<g clip-path="url(#clip0)">
<path d="M196.627 270.426C208.207 270.426 217.594 261.05 217.594 249.484C217.594 237.918 208.207 228.542 196.627 228.542C185.048 228.542 175.661 237.918 175.661 249.484C175.661 261.05 185.048 270.426 196.627 270.426Z" fill="#AD40F0" fill-opacity="0.34"/>
<path d="M321.883 269.249C333.613 265.731 346.083 262.062 355.386 253.697C363.698 246.222 369.31 234.809 365.867 223.599C362.43 212.412 352.136 204.953 341.508 201.243C335.48 199.139 329.174 197.972 322.87 197.055C316.017 196.058 309.134 195.241 302.254 194.455C274.397 191.273 246.434 189.328 218.368 188.623C204.518 188.274 190.672 188.283 176.821 188.483C164.451 188.663 151.423 188.658 139.947 183.407C131.023 179.323 122.924 171.894 120.438 162.131C117.567 150.861 122.861 139.384 130.456 131.222C134.459 126.92 139.138 123.299 143.964 119.97C149.2 116.357 154.618 113.001 160.154 109.868C171.057 103.701 182.456 98.4516 194.233 94.1759C200.042 92.066 205.938 90.2457 211.885 88.5664C216.906 87.1484 221.943 85.7284 226.796 83.7964C236.178 80.0616 245.102 73.7352 247.487 63.3636C249.748 53.5338 245.936 42.8628 239.253 35.5605C231.521 27.1122 219.864 23.4087 208.687 22.8095C196.14 22.1368 183.882 25.2734 172.088 29.2541C159.51 33.4999 147.203 38.3818 134.358 41.8208C121.621 45.2277 108.638 47.6383 95.5264 49.0306C89.1077 49.7133 82.4951 50.4841 76.0382 49.9615C70.6268 49.5235 65.243 47.9339 61.2549 44.0979C57.8353 40.8087 55.7982 36.2883 56.4985 31.5179C56.6257 30.6515 57.9435 31.0198 57.8171 31.881C56.9646 37.6879 60.9165 43.0388 65.7863 45.7798C71.4146 48.9477 78.2633 48.952 84.5295 48.5897C98.1163 47.7701 111.611 45.8215 124.874 42.7643C137.906 39.7912 150.473 35.541 163.026 31.0008C174.948 26.6888 187.136 22.4802 199.873 21.5462C210.924 20.7358 222.549 22.3439 232.177 28.1125C240.638 33.1823 246.86 41.6371 248.843 51.3392C250.78 60.8198 248.097 70.3623 240.912 76.9782C233.473 83.8282 223.272 86.7568 213.766 89.4541C201.709 92.8751 189.911 96.874 178.491 102.066C166.915 107.314 155.814 113.548 145.309 120.699C135.169 127.62 125.163 136.329 121.956 148.676C120.462 154.427 120.738 160.527 123.237 165.96C125.46 170.79 129.12 174.853 133.384 177.987C143.558 185.464 156.38 187 168.669 187.152C182.471 187.324 196.274 186.859 210.08 187.085C238.218 187.546 266.298 189.257 294.32 192.217C301.342 192.959 308.355 193.78 315.359 194.679C321.658 195.487 327.979 196.29 334.173 197.726C345.186 200.28 355.903 205.189 362.748 214.516C365.786 218.558 367.668 223.349 368.193 228.376C368.673 233.623 367.387 238.879 365.012 243.546C359.755 253.876 349.91 260.447 339.454 264.763C333.853 267.076 328.044 268.827 322.247 270.566C321.402 270.82 321.041 269.502 321.883 269.249L321.883 269.249Z" fill="#F2F2F2"/>
<path d="M57.3815 42.5669C63.423 42.5669 68.3206 37.6751 68.3206 31.6406C68.3206 25.6062 63.423 20.7144 57.3815 20.7144C51.34 20.7144 46.4424 25.6062 46.4424 31.6406C46.4424 37.6751 51.34 42.5669 57.3815 42.5669Z" fill="#F2F2F2"/>
<path d="M133.272 63.2813C139.313 63.2813 144.211 58.3894 144.211 52.355C144.211 46.3206 139.313 41.4287 133.272 41.4287C127.23 41.4287 122.332 46.3206 122.332 52.355C122.332 58.3894 127.23 63.2813 133.272 63.2813Z" fill="#F2F2F2"/>
<path d="M197.539 21.8526C203.58 21.8526 208.478 16.9607 208.478 10.9263C208.478 4.89187 203.58 0 197.539 0C191.497 0 186.6 4.89187 186.6 10.9263C186.6 16.9607 191.497 21.8526 197.539 21.8526Z" fill="#F2F2F2"/>
<path d="M237.649 68.2891C243.69 68.2891 248.588 63.3972 248.588 57.3628C248.588 51.3284 243.69 46.4365 237.649 46.4365C231.607 46.4365 226.71 51.3284 226.71 57.3628C226.71 63.3972 231.607 68.2891 237.649 68.2891Z" fill="#F2F2F2"/>
<path d="M183.409 122.01C189.451 122.01 194.348 117.118 194.348 111.084C194.348 105.05 189.451 100.158 183.409 100.158C177.368 100.158 172.47 105.05 172.47 111.084C172.47 117.118 177.368 122.01 183.409 122.01Z" fill="#F2F2F2"/>
<path d="M114.584 147.96C120.625 147.96 125.523 143.068 125.523 137.034C125.523 130.999 120.625 126.107 114.584 126.107C108.542 126.107 103.645 130.999 103.645 137.034C103.645 143.068 108.542 147.96 114.584 147.96Z" fill="#F2F2F2"/>
<path d="M187.511 188.479C193.553 188.479 198.45 183.587 198.45 177.552C198.45 171.518 193.553 166.626 187.511 166.626C181.47 166.626 176.572 171.518 176.572 177.552C176.572 183.587 181.47 188.479 187.511 188.479Z" fill="#F2F2F2"/>
<path d="M265.908 211.242C271.95 211.242 276.847 206.35 276.847 200.315C276.847 194.281 271.95 189.389 265.908 189.389C259.867 189.389 254.969 194.281 254.969 200.315C254.969 206.35 259.867 211.242 265.908 211.242Z" fill="#F2F2F2"/>
<path d="M357.523 206.234C363.565 206.234 368.463 201.342 368.463 195.308C368.463 189.273 363.565 184.381 357.523 184.381C351.482 184.381 346.584 189.273 346.584 195.308C346.584 201.342 351.482 206.234 357.523 206.234Z" fill="#F2F2F2"/>
<path d="M194.381 30.9596C161.613 31.1908 134.783 57.7881 134.318 90.5153C134.313 90.8175 134.311 92.9421 134.312 95.7209C134.312 99.7952 135.932 103.703 138.817 106.584C141.701 109.465 145.613 111.084 149.692 111.084H149.692C151.714 111.084 153.716 110.685 155.584 109.912C157.452 109.138 159.149 108.004 160.578 106.575C162.007 105.147 163.14 103.45 163.913 101.584C164.685 99.7173 165.082 97.717 165.08 95.6973C165.079 93.807 165.078 92.4987 165.078 92.4184C165.077 87.3605 166.394 82.3894 168.9 77.9941C171.406 73.5988 175.014 69.9308 179.369 67.3509C183.725 64.7709 188.678 63.3679 193.741 63.2798C198.804 63.1917 203.803 64.4216 208.246 66.8485C212.689 69.2755 216.423 72.8157 219.08 77.1212C221.738 81.4266 223.227 86.3489 223.403 91.4038C223.578 96.4587 222.433 101.472 220.08 105.951C217.727 110.43 214.247 114.22 209.983 116.948L209.988 116.954C209.988 116.954 188.097 131.031 181.423 150.341L181.429 150.342C180.255 154.298 179.661 158.403 179.663 162.529C179.663 164.225 179.763 179.064 179.956 191.109C180.024 195.265 181.724 199.228 184.691 202.142C187.657 205.057 191.652 206.69 195.813 206.689H195.813C197.904 206.689 199.975 206.276 201.905 205.474C203.836 204.672 205.588 203.496 207.062 202.015C208.536 200.533 209.702 198.775 210.493 196.842C211.285 194.909 211.685 192.839 211.672 190.75C211.605 179.72 211.569 166.875 211.569 165.943C211.569 154.086 223.021 142.272 232.428 134.568C243.26 125.696 251.055 113.606 254.186 99.9682C254.879 97.1604 255.261 94.2852 255.325 91.3941C255.325 83.4207 253.746 75.5262 250.678 68.1654C247.61 60.8045 243.113 54.1228 237.449 48.5052C231.784 42.8877 225.062 38.4452 217.67 35.4339C210.279 32.4226 202.364 30.902 194.381 30.9596Z" fill="#AD40F0" fill-opacity="0.34"/>
<path d="M384.457 271H0.542708C0.399045 271 0.261411 270.942 0.159973 270.841C0.0585344 270.739 0.00156784 270.602 0.00156784 270.458C0.00156784 270.315 0.0585344 270.177 0.159973 270.075C0.261411 269.974 0.399045 269.916 0.542708 269.916H384.457C384.601 269.916 384.739 269.973 384.841 270.075C384.943 270.176 385 270.314 385 270.458C385 270.602 384.943 270.74 384.841 270.841C384.739 270.943 384.601 271 384.457 271Z" fill="#3F3D56"/>
<path d="M286.445 124.284C293.997 124.284 300.119 118.17 300.119 110.627C300.119 103.084 293.997 96.9688 286.445 96.9688C278.893 96.9688 272.771 103.084 272.771 110.627C272.771 118.17 278.893 124.284 286.445 124.284Z" fill="#2F2E41"/>
<path d="M261.177 265.021H255.589L252.931 243.493H261.178L261.177 265.021Z" fill="#A0616A"/>
<path d="M251.598 263.426H262.374V270.204H244.812C244.812 269.314 244.988 268.432 245.329 267.61C245.67 266.788 246.169 266.041 246.8 265.411C247.43 264.782 248.178 264.283 249.001 263.942C249.824 263.602 250.707 263.426 251.598 263.426Z" fill="#2F2E41"/>
<path d="M304.477 265.021H298.89L296.231 243.493H304.479L304.477 265.021Z" fill="#A0616A"/>
<path d="M294.898 263.426H305.675V270.204H288.113C288.113 269.314 288.288 268.432 288.629 267.61C288.97 266.788 289.47 266.041 290.1 265.411C290.73 264.782 291.478 264.283 292.302 263.942C293.125 263.602 294.007 263.426 294.898 263.426Z" fill="#2F2E41"/>
<path d="M284.367 124.364C290.549 124.364 295.562 119.358 295.562 113.183C295.562 107.007 290.549 102.001 284.367 102.001C278.184 102.001 273.172 107.007 273.172 113.183C273.172 119.358 278.184 124.364 284.367 124.364Z" fill="#A0616A"/>
<path d="M291.039 160.437L296.048 148.942C297.265 146.245 297.614 143.238 297.046 140.335C296.479 137.432 295.023 134.776 292.881 132.734C292.441 132.3 291.973 131.894 291.481 131.519C289.01 129.588 285.964 128.535 282.826 128.528C280.716 128.536 278.633 128.999 276.718 129.885C276.554 129.957 276.394 130.035 276.23 130.112C275.916 130.262 275.606 130.426 275.305 130.595C273.343 131.72 271.673 133.29 270.43 135.179C269.187 137.067 268.406 139.221 268.149 141.466L265.938 159.968C265.382 161.421 245.546 213.867 252.483 253.907C252.557 254.335 252.766 254.727 253.079 255.028C253.393 255.329 253.794 255.521 254.225 255.578L261.258 256.534C261.771 256.604 262.292 256.477 262.716 256.179C263.139 255.881 263.434 255.433 263.541 254.927L275.342 198.743C275.415 198.394 275.604 198.079 275.877 197.85C276.151 197.621 276.493 197.489 276.85 197.477C277.207 197.465 277.558 197.573 277.846 197.783C278.135 197.994 278.344 198.295 278.441 198.638L295.114 257.722C295.233 258.151 295.489 258.53 295.844 258.8C296.199 259.069 296.633 259.215 297.078 259.215C297.211 259.215 297.344 259.202 297.475 259.179L306.067 257.526C306.566 257.433 307.013 257.157 307.319 256.752C307.625 256.347 307.769 255.842 307.721 255.337C306.459 241.273 299.749 170.831 291.039 160.437Z" fill="#2F2E41"/>
<path d="M240.861 122.488C240.783 123.153 240.852 123.826 241.063 124.462C241.275 125.097 241.623 125.678 242.083 126.164C242.543 126.65 243.105 127.03 243.728 127.276C244.351 127.522 245.021 127.629 245.69 127.588L251.947 142.609L256.681 135.6L250.013 122.411C249.87 121.293 249.322 120.267 248.473 119.525C247.623 118.784 246.531 118.38 245.403 118.389C244.275 118.399 243.189 118.821 242.352 119.577C241.515 120.332 240.984 121.368 240.861 122.488L240.861 122.488Z" fill="#A0616A"/>
<path d="M283.746 175.561C284.411 175.481 285.051 175.257 285.62 174.904C286.19 174.551 286.674 174.077 287.041 173.517C287.407 172.957 287.645 172.323 287.74 171.66C287.834 170.997 287.782 170.322 287.587 169.682L300.753 160.104L292.826 157.139L281.539 166.689C280.484 167.088 279.612 167.859 279.088 168.857C278.564 169.855 278.425 171.011 278.697 172.104C278.969 173.198 279.634 174.154 280.564 174.791C281.495 175.428 282.627 175.702 283.746 175.561Z" fill="#A0616A"/>
<path d="M262.283 152.623C261.779 152.622 261.275 152.573 260.78 152.475C259.582 152.247 258.459 151.729 257.51 150.965C256.56 150.202 255.813 149.217 255.334 148.097L246.567 137.42C246.382 137.194 246.247 136.931 246.172 136.649C246.096 136.367 246.082 136.072 246.13 135.784C246.178 135.496 246.287 135.222 246.45 134.979C246.613 134.737 246.825 134.532 247.074 134.378L253.311 130.522C253.541 130.379 253.798 130.284 254.065 130.241C254.332 130.198 254.606 130.208 254.869 130.271C255.132 130.334 255.381 130.449 255.6 130.608C255.818 130.768 256.003 130.969 256.144 131.2L262.323 141.368L274.156 132.633C275.098 132.14 276.187 132.001 277.223 132.243C278.258 132.485 279.173 133.091 279.798 133.951C280.423 134.81 280.718 135.866 280.629 136.925C280.54 137.984 280.072 138.975 279.311 139.718L267.5 150.479C266.113 151.853 264.237 152.623 262.283 152.623Z" fill="#2F2E41"/>
<path d="M294.257 168.681C294.241 168.681 294.225 168.681 294.209 168.68C293.922 168.673 293.639 168.606 293.379 168.483C293.119 168.36 292.888 168.184 292.7 167.965L287.155 161.504C286.966 161.284 286.826 161.026 286.744 160.748C286.662 160.47 286.641 160.178 286.68 159.891C286.72 159.603 286.82 159.328 286.974 159.082C287.128 158.837 287.333 158.627 287.574 158.466L297.958 151.552L288.551 140.255C288.004 139.344 287.803 138.267 287.986 137.22C288.168 136.173 288.722 135.227 289.545 134.554C290.368 133.881 291.406 133.526 292.47 133.555C293.533 133.583 294.551 133.993 295.337 134.709L306.77 145.869C307.67 146.69 308.356 147.717 308.772 148.861C309.187 150.006 309.317 151.234 309.153 152.44C308.988 153.646 308.533 154.794 307.826 155.786C307.119 156.778 306.182 157.583 305.095 158.134L295.75 168.037C295.558 168.241 295.327 168.402 295.07 168.513C294.814 168.624 294.537 168.681 294.257 168.681Z" fill="#2F2E41"/>
<path d="M281.52 144.871C281.431 144.871 281.342 144.865 281.254 144.854C280.868 144.807 280.503 144.651 280.204 144.403C279.904 144.155 279.681 143.827 279.563 143.457L275.396 130.696C275.291 130.374 275.308 130.024 275.441 129.713C275.575 129.401 275.817 129.148 276.122 129.001L276.258 128.937C276.38 128.879 276.502 128.821 276.626 128.766C278.569 127.866 280.684 127.396 282.826 127.39C285.606 127.395 288.325 128.211 290.648 129.737C290.959 129.944 291.177 130.265 291.254 130.631C291.331 130.997 291.261 131.378 291.059 131.692L283.242 143.924C283.058 144.215 282.804 144.454 282.503 144.62C282.202 144.785 281.864 144.872 281.52 144.871Z" fill="#E6E6E6"/>
<path d="M297.225 104.53C299.696 104.53 301.7 102.529 301.7 100.06C301.7 97.5922 299.696 95.5913 297.225 95.5913C294.754 95.5913 292.751 97.5922 292.751 100.06C292.751 102.529 294.754 104.53 297.225 104.53Z" fill="#2F2E41"/>
<path d="M281.887 95.1479C278.744 95.1479 275.729 96.395 273.507 98.6149C271.285 100.835 270.036 103.845 270.036 106.985V111.993H276.203L279.152 106.985L280.037 111.993H298.751L293.737 106.985C293.737 103.845 292.489 100.835 290.266 98.6149C288.044 96.395 285.03 95.1479 281.887 95.1479Z" fill="#2F2E41"/>
<path d="M299.525 96.9988C300.02 95.4535 301.044 94.1318 302.418 93.2662C303.792 92.4006 305.427 92.0465 307.037 92.2661C309.888 92.7423 312.143 95.0317 313.486 97.5886C314.83 100.146 315.45 103.007 316.353 105.751C317.256 108.494 318.537 111.252 320.817 113.027C323.096 114.803 326.595 115.285 328.834 113.458C328.578 115.362 327.729 117.137 326.408 118.533C325.087 119.928 323.36 120.874 321.471 121.235C319.583 121.597 317.628 121.356 315.884 120.547C314.14 119.738 312.694 118.402 311.752 116.727C310.57 114.628 310.265 112.167 309.915 109.784C309.565 107.401 309.11 104.936 307.699 102.982C306.288 101.029 303.648 99.7533 301.407 100.643L299.525 96.9988Z" fill="#2F2E41"/>
<path d="M154.035 103.817C149.956 103.817 146.044 102.198 143.159 99.3168C140.275 96.4357 138.655 92.5282 138.654 88.4539C138.654 85.6751 138.656 83.5505 138.66 83.2483C138.79 73.7303 141.19 64.3804 145.661 55.9741C138.315 66.0185 134.276 78.0949 134.102 90.5325C134.098 90.8347 134.096 92.9592 134.096 95.7381C134.097 99.8124 135.717 103.72 138.601 106.601C141.486 109.482 145.398 111.101 149.477 111.101C152.829 111.1 156.089 110.006 158.761 107.985C161.434 105.965 163.373 103.128 164.285 99.9062C161.468 102.429 157.818 103.822 154.035 103.817Z" fill="#3F3D56"/>
<path d="M195.424 63.3314C200.14 63.5563 204.73 64.9211 208.802 67.3085C212.873 69.6959 216.304 73.0346 218.798 77.0379C221.293 81.0412 222.778 85.5896 223.126 90.2924C223.473 94.9952 222.673 99.712 220.793 104.038C223.512 100.848 225.51 97.1111 226.652 93.0805C227.794 89.0499 228.052 84.8208 227.409 80.6816C226.765 76.5423 225.236 72.5902 222.926 69.0947C220.615 65.5993 217.576 62.6426 214.018 60.4262C210.459 58.2099 206.464 56.786 202.305 56.2517C198.145 55.7174 193.919 56.0852 189.915 57.33C185.911 58.5748 182.222 60.6674 179.101 63.4651C175.98 66.2628 173.5 69.6999 171.829 73.5419C174.716 70.149 178.346 67.4638 182.437 65.6935C186.528 63.9232 190.971 63.1151 195.424 63.3314Z" fill="#3F3D56"/>
<path d="M200.156 199.422C195.995 199.423 192 197.79 189.033 194.876C186.067 191.961 184.366 187.998 184.299 183.842C184.106 171.798 184.006 156.958 184.006 155.262C184.003 151.136 184.598 147.031 185.771 143.076L185.766 143.074C186.459 141.089 187.296 139.156 188.27 137.292C185.279 141.273 182.899 145.677 181.208 150.358L181.213 150.36C180.04 154.316 179.445 158.42 179.448 162.546C179.448 164.242 179.548 179.082 179.741 191.126C179.808 195.282 181.509 199.245 184.475 202.16C187.442 205.074 191.437 206.708 195.598 206.707C199.029 206.706 202.367 205.594 205.112 203.538C207.857 201.482 209.861 198.593 210.822 195.303C207.907 197.958 204.102 199.428 200.156 199.422Z" fill="#3F3D56"/>
<path d="M57.6769 265.229L63.2645 265.229L65.9232 243.7L57.6756 243.701L57.6769 265.229Z" fill="#FFB8B8"/>
<path d="M74.0417 270.411L56.4795 270.411L56.4792 263.634L67.256 263.634C69.0556 263.633 70.7815 264.347 72.0541 265.618C73.3266 266.889 74.0416 268.613 74.0417 270.411L74.0417 270.411Z" fill="#2F2E41"/>
<path d="M37.6219 265.229L43.2095 265.229L45.8682 243.7L37.6205 243.701L37.6219 265.229Z" fill="#FFB8B8"/>
<path d="M53.9866 270.411L36.4245 270.411L36.4242 263.634L47.201 263.634C49.0006 263.633 50.7265 264.347 51.999 265.618C53.2716 266.889 53.9866 268.613 53.9866 270.411L53.9866 270.411Z" fill="#2F2E41"/>
<path d="M42.505 258.608L37.0468 258.321C36.7654 258.306 36.4896 258.236 36.2356 258.114C35.9816 257.992 35.7544 257.821 35.5671 257.61C35.3798 257.4 35.2361 257.155 35.1444 256.888C35.0527 256.622 35.0148 256.341 35.0329 256.06L41.5565 183.916L71.5985 192.013L74.4929 191.224L65.4416 255.091C65.3645 255.571 65.1256 256.011 64.7645 256.338C64.4033 256.664 63.9414 256.858 63.4552 256.887L57.5713 257.16C57.2771 257.177 56.9827 257.132 56.7068 257.029C56.4308 256.926 56.1792 256.767 55.968 256.561C55.7567 256.356 55.5904 256.109 55.4795 255.837C55.3685 255.564 55.3155 255.271 55.3236 254.977L56.3897 216.646C56.3947 216.469 56.333 216.296 56.2169 216.162C56.1007 216.028 55.9385 215.942 55.7622 215.921C55.5858 215.901 55.4082 215.947 55.2642 216.051C55.1202 216.154 55.0204 216.308 54.9844 216.482L44.703 256.915C44.606 257.395 44.3453 257.826 43.9656 258.135C43.5858 258.444 43.1104 258.613 42.6204 258.611C42.5822 258.611 42.5437 258.61 42.505 258.608Z" fill="#2F2E41"/>
<path d="M58.6802 124.887C64.8629 124.887 69.875 119.881 69.875 113.706C69.875 107.53 64.8629 102.524 58.6802 102.524C52.4974 102.524 47.4853 107.53 47.4853 113.706C47.4853 119.881 52.4974 124.887 58.6802 124.887Z" fill="#FFB8B8"/>
<path d="M40.0415 146.557L41.2724 173.084L41.7174 182.735C41.7352 183.155 41.878 183.56 42.1276 183.899C42.3772 184.238 42.7223 184.494 43.1187 184.636L71.987 195.081C72.2202 195.168 72.4673 195.211 72.7161 195.209C73.0004 195.21 73.2821 195.154 73.5444 195.044C73.8066 194.935 74.044 194.773 74.2425 194.57C74.4409 194.366 74.5962 194.125 74.6992 193.86C74.8021 193.596 74.8506 193.313 74.8418 193.029L73.6582 145.332C73.5805 141.419 72.1383 137.656 69.5803 134.691C67.0223 131.726 63.5087 129.745 59.6454 129.09C59.3661 129.047 59.0821 129.005 58.798 128.967C56.4024 128.67 53.9707 128.901 51.674 129.643C49.3774 130.386 47.2715 131.622 45.5047 133.265C43.6751 134.946 42.2375 137.008 41.2935 139.304C40.3495 141.601 39.9221 144.077 40.0415 146.557L40.0415 146.557Z" fill="#CCCCCC"/>
<path d="M85.7773 189.788C85.0946 189.576 84.4707 189.208 83.9557 188.713C83.4406 188.217 83.0486 187.609 82.8109 186.935C82.5732 186.262 82.4963 185.542 82.5865 184.834C82.6767 184.126 82.9314 183.448 83.3303 182.856L73.5407 169.853L81.9885 169.331L89.9897 181.758C90.8463 182.42 91.4424 183.361 91.6734 184.418C91.9043 185.475 91.7555 186.579 91.253 187.537C90.7504 188.494 89.9262 189.245 88.925 189.657C87.9238 190.068 86.8094 190.115 85.7774 189.788H85.7773Z" fill="#FFB8B8"/>
<path d="M78.8943 180.503C78.6349 180.397 78.399 180.242 78.2002 180.045C78.0014 179.848 77.8436 179.614 77.7361 179.356L62.9873 144.258C62.6979 143.571 62.5469 142.833 62.543 142.088C62.539 141.342 62.6822 140.603 62.9643 139.913C63.2465 139.223 63.662 138.595 64.1872 138.065C64.7124 137.536 65.3369 137.114 66.0252 136.826C66.7134 136.537 67.4518 136.387 68.1981 136.384C68.9445 136.38 69.6842 136.524 70.375 136.806C71.0658 137.089 71.6941 137.504 72.2241 138.029C72.754 138.554 73.1752 139.178 73.4635 139.866L88.2122 174.965C88.4302 175.485 88.4326 176.071 88.219 176.593C88.0053 177.115 87.593 177.531 87.0725 177.75L80.5248 180.495C80.2671 180.604 79.9902 180.661 79.7103 180.662C79.4304 180.663 79.153 180.609 78.8942 180.503L78.8943 180.503Z" fill="#CCCCCC"/>
<path d="M55.0809 179.265L69.2467 152.172C69.5199 151.651 69.9888 151.26 70.5507 151.084C71.1125 150.908 71.7213 150.961 72.2436 151.233L92.8052 161.959C93.3269 162.232 93.7188 162.7 93.8952 163.262C94.0715 163.823 94.0177 164.431 93.7457 164.952L79.5799 192.045C79.3067 192.566 78.8378 192.957 78.276 193.133C77.7141 193.309 77.1053 193.256 76.5831 192.984L56.0214 182.258C55.4998 181.985 55.1078 181.517 54.9315 180.956C54.7552 180.394 54.8089 179.786 55.0809 179.265Z" fill="#3F3D56"/>
<path d="M64.581 166.887C64.3292 166.219 63.9244 165.619 63.3991 165.134C62.8738 164.65 62.2423 164.295 61.5553 164.098C60.8682 163.901 60.1445 163.866 59.4418 163.998C58.7392 164.13 58.0771 164.424 57.5084 164.857L43.9355 155.863L43.9124 164.317L56.805 171.561C57.5167 172.376 58.493 172.915 59.5626 173.083C60.6322 173.251 61.7268 173.037 62.6545 172.48C63.5822 171.922 64.2837 171.056 64.636 170.033C64.9883 169.011 64.9688 167.897 64.581 166.887Z" fill="#FFB8B8"/>
<path d="M47.4203 168.788L36.3277 160.012C35.1277 159.609 34.0434 158.922 33.1678 158.009C32.2923 157.096 31.6517 155.984 31.301 154.769C30.9504 153.554 30.9001 152.272 31.1545 151.034C31.4089 149.795 31.9605 148.637 32.7618 147.658L42.8336 134.474C43.5335 133.62 44.5178 133.046 45.6066 132.857C46.6955 132.667 47.816 132.876 48.7635 133.444C49.711 134.012 50.4222 134.902 50.7669 135.951C51.1117 137 51.0671 138.137 50.6412 139.156L42.6721 152.177L54.3833 157.725C54.6557 157.854 54.8975 158.039 55.0928 158.268C55.2882 158.498 55.4326 158.766 55.5165 159.055C55.6004 159.344 55.622 159.648 55.5797 159.946C55.5374 160.244 55.4323 160.529 55.2713 160.784L50.5439 168.257C50.3841 168.509 50.173 168.725 49.9244 168.89C49.6757 169.056 49.3951 169.167 49.1005 169.218C49.0888 169.22 49.0771 169.222 49.0653 169.223C48.7759 169.267 48.4806 169.251 48.1976 169.176C47.9147 169.101 47.6501 168.969 47.4203 168.788Z" fill="#CCCCCC"/>
<path d="M50.221 121.193C50.173 121.053 50.1578 120.903 50.1765 120.756C50.1952 120.609 50.2474 120.468 50.3291 120.344C50.4108 120.22 50.5198 120.117 50.6477 120.042C50.7756 119.966 50.9191 119.921 51.0672 119.91C51.3704 119.926 51.6671 120.004 51.9394 120.138C52.2117 120.272 52.454 120.46 52.6516 120.691C53.0567 121.157 53.5284 121.562 54.0514 121.891C54.5929 122.164 55.3274 122.125 55.6361 121.605C55.926 121.117 55.7274 120.463 55.5519 119.896C55.1053 118.454 54.8554 116.958 54.809 115.448C54.7584 113.764 54.9964 112.006 55.9301 110.692C57.1352 108.996 59.29 108.352 61.3292 108.399C63.3685 108.446 65.3746 109.074 67.3946 109.472C68.0919 109.609 68.9116 109.679 69.378 109.139C69.8739 108.565 69.6918 107.636 69.4808 106.861C68.9334 104.85 68.3527 102.771 67.0809 101.147C65.7058 99.4591 63.7415 98.3545 61.5836 98.0555C59.512 97.7992 57.409 98.0377 55.4476 98.7513C52.2519 99.7574 49.4399 101.714 47.3878 104.36C45.2723 107.173 44.3582 110.709 44.8453 114.193C45.3212 117.228 46.9314 119.97 49.3512 121.867L50.221 121.193Z" fill="#2F2E41"/>
<path d="M192.008 265.318C189.029 264.022 186.393 262.053 184.307 259.565C182.221 257.077 180.743 254.14 179.988 250.983C179.234 247.827 179.224 244.539 179.96 241.379C180.695 238.218 182.156 235.271 184.227 232.771C181.826 234.523 179.825 236.764 178.358 239.346C176.89 241.929 175.989 244.794 175.714 247.751C175.44 250.708 175.798 253.689 176.766 256.497C177.733 259.305 179.287 261.876 181.325 264.038C183.363 266.2 185.838 267.905 188.586 269.038C191.334 270.172 194.292 270.709 197.263 270.614C200.235 270.519 203.152 269.793 205.821 268.486C208.491 267.178 210.851 265.318 212.746 263.03C209.791 265.188 206.321 266.534 202.682 266.935C199.044 267.337 195.363 266.779 192.008 265.318Z" fill="#3F3D56"/>
</g>
<defs>
<clipPath id="clip0">
<rect width="385" height="271" fill="white"/>
</clipPath>
</defs>
</svg>
