<svg width="393" height="279" viewBox="0 0 393 279" fill="none" xmlns="http://www.w3.org/2000/svg">
<g filter="url(#filter0_d)">
<g clip-path="url(#clip0)">
<path d="M200.628 270.426C212.207 270.426 221.594 261.05 221.594 249.484C221.594 237.918 212.207 228.542 200.628 228.542C189.048 228.542 179.661 237.918 179.661 249.484C179.661 261.05 189.048 270.426 200.628 270.426Z" fill="#AD40F0" fill-opacity="0.34"/>
<path d="M325.883 269.249C337.613 265.731 350.083 262.062 359.386 253.697C367.698 246.222 373.31 234.809 369.867 223.599C366.43 212.412 356.136 204.953 345.508 201.243C339.48 199.139 333.174 197.972 326.87 197.055C320.017 196.058 313.134 195.241 306.254 194.455C278.397 191.273 250.435 189.328 222.368 188.623C208.519 188.274 194.672 188.283 180.821 188.483C168.451 188.663 155.423 188.658 143.947 183.407C135.023 179.323 126.924 171.894 124.438 162.131C121.567 150.861 126.862 139.384 134.456 131.222C138.459 126.92 143.138 123.299 147.964 119.97C153.2 116.357 158.619 113.001 164.154 109.868C175.058 103.701 186.456 98.4516 198.233 94.1759C204.042 92.066 209.938 90.2457 215.885 88.5664C220.906 87.1484 225.943 85.7284 230.796 83.7964C240.178 80.0616 249.102 73.7352 251.487 63.3636C253.748 53.5338 249.936 42.8628 243.253 35.5605C235.522 27.1122 223.864 23.4087 212.687 22.8095C200.14 22.1368 187.882 25.2734 176.088 29.2541C163.51 33.4999 151.203 38.3818 138.358 41.8208C125.622 45.2277 112.638 47.6383 99.5266 49.0306C93.1079 49.7133 86.4952 50.4841 80.0384 49.9615C74.627 49.5235 69.2432 47.9339 65.2551 44.0979C61.8354 40.8087 59.7983 36.2883 60.4987 31.5179C60.6259 30.6515 61.9437 31.0198 61.8172 31.881C60.9647 37.6879 64.9166 43.0388 69.7865 45.7798C75.4147 48.9477 82.2635 48.952 88.5296 48.5897C102.116 47.7701 115.611 45.8215 128.874 42.7643C141.907 39.7912 154.474 35.541 167.026 31.0008C178.948 26.6888 191.136 22.4802 203.873 21.5462C214.924 20.7358 226.549 22.3439 236.177 28.1125C244.638 33.1823 250.86 41.6371 252.843 51.3392C254.78 60.8198 252.097 70.3623 244.912 76.9782C237.473 83.8282 227.272 86.7568 217.766 89.4541C205.71 92.8751 193.911 96.874 182.491 102.066C170.916 107.314 159.814 113.548 149.309 120.699C139.169 127.62 129.163 136.329 125.956 148.676C124.462 154.427 124.738 160.527 127.237 165.96C129.46 170.79 133.12 174.853 137.384 177.987C147.558 185.464 160.38 187 172.669 187.152C186.471 187.324 200.274 186.859 214.081 187.085C242.218 187.546 270.298 189.257 298.32 192.217C305.342 192.959 312.355 193.78 319.359 194.679C325.659 195.487 331.98 196.29 338.173 197.726C349.186 200.28 359.903 205.189 366.748 214.516C369.786 218.558 371.668 223.349 372.193 228.376C372.673 233.623 371.387 238.879 369.012 243.546C363.756 253.876 353.91 260.447 343.454 264.763C337.854 267.076 332.045 268.827 326.247 270.566C325.402 270.82 325.041 269.502 325.883 269.249L325.883 269.249Z" fill="#F2F2F2"/>
<path d="M61.3815 42.5669C67.423 42.5669 72.3206 37.6751 72.3206 31.6406C72.3206 25.6062 67.423 20.7144 61.3815 20.7144C55.34 20.7144 50.4424 25.6062 50.4424 31.6406C50.4424 37.6751 55.34 42.5669 61.3815 42.5669Z" fill="#F2F2F2"/>
<path d="M137.271 63.2815C143.313 63.2815 148.21 58.3897 148.21 52.3552C148.21 46.3208 143.313 41.429 137.271 41.429C131.23 41.429 126.332 46.3208 126.332 52.3552C126.332 58.3897 131.23 63.2815 137.271 63.2815Z" fill="#F2F2F2"/>
<path d="M201.539 21.8526C207.58 21.8526 212.478 16.9607 212.478 10.9263C212.478 4.89187 207.58 0 201.539 0C195.497 0 190.6 4.89187 190.6 10.9263C190.6 16.9607 195.497 21.8526 201.539 21.8526Z" fill="#F2F2F2"/>
<path d="M241.649 68.2894C247.691 68.2894 252.588 63.3975 252.588 57.3631C252.588 51.3286 247.691 46.4368 241.649 46.4368C235.608 46.4368 230.71 51.3286 230.71 57.3631C230.71 63.3975 235.608 68.2894 241.649 68.2894Z" fill="#F2F2F2"/>
<path d="M187.409 122.01C193.45 122.01 198.348 117.118 198.348 111.084C198.348 105.05 193.45 100.158 187.409 100.158C181.367 100.158 176.47 105.05 176.47 111.084C176.47 117.118 181.367 122.01 187.409 122.01Z" fill="#F2F2F2"/>
<path d="M118.584 147.96C124.625 147.96 129.523 143.068 129.523 137.034C129.523 131 124.625 126.108 118.584 126.108C112.542 126.108 107.645 131 107.645 137.034C107.645 143.068 112.542 147.96 118.584 147.96Z" fill="#F2F2F2"/>
<path d="M191.511 188.479C197.553 188.479 202.45 183.587 202.45 177.552C202.45 171.518 197.553 166.626 191.511 166.626C185.47 166.626 180.572 171.518 180.572 177.552C180.572 183.587 185.47 188.479 191.511 188.479Z" fill="#F2F2F2"/>
<path d="M269.909 211.241C275.95 211.241 280.848 206.35 280.848 200.315C280.848 194.281 275.95 189.389 269.909 189.389C263.867 189.389 258.97 194.281 258.97 200.315C258.97 206.35 263.867 211.241 269.909 211.241Z" fill="#F2F2F2"/>
<path d="M361.523 206.234C367.565 206.234 372.462 201.342 372.462 195.307C372.462 189.273 367.565 184.381 361.523 184.381C355.482 184.381 350.584 189.273 350.584 195.307C350.584 201.342 355.482 206.234 361.523 206.234Z" fill="#F2F2F2"/>
<path d="M198.381 30.9593C165.613 31.1905 138.783 57.7879 138.318 90.5151C138.313 90.8172 138.311 92.9418 138.312 95.7206C138.312 99.795 139.932 103.702 142.817 106.584C145.701 109.465 149.613 111.083 153.692 111.084H153.692C155.714 111.083 157.716 110.685 159.584 109.911C161.452 109.138 163.149 108.004 164.578 106.575C166.007 105.146 167.14 103.45 167.913 101.584C168.685 99.717 169.082 97.7168 169.08 95.6971C169.079 93.8068 169.078 92.4985 169.078 92.4182C169.077 87.3602 170.394 82.3891 172.9 77.9938C175.405 73.5986 179.014 69.9306 183.369 67.3506C187.725 64.7707 192.678 63.3676 197.741 63.2796C202.804 63.1915 207.803 64.4214 212.246 66.8483C216.689 69.2752 220.422 72.8155 223.08 77.1209C225.737 81.4264 227.227 86.3487 227.402 91.4036C227.578 96.4585 226.433 101.472 224.08 105.951C221.727 110.429 218.247 114.219 213.983 116.947L213.988 116.954C213.988 116.954 192.097 131.03 185.423 150.341L185.429 150.342C184.255 154.298 183.66 158.403 183.663 162.529C183.663 164.225 183.763 179.064 183.956 191.109C184.024 195.265 185.724 199.227 188.691 202.142C191.657 205.057 195.652 206.69 199.813 206.689H199.813C201.904 206.689 203.974 206.276 205.905 205.474C207.835 204.671 209.588 203.496 211.062 202.014C212.536 200.533 213.702 198.775 214.493 196.842C215.284 194.909 215.685 192.838 215.672 190.75C215.605 179.719 215.569 166.875 215.569 165.943C215.569 154.086 227.021 142.272 236.428 134.567C247.26 125.696 255.055 113.606 258.186 99.968C258.879 97.1602 259.261 94.2849 259.325 91.3938C259.325 83.4205 257.746 75.526 254.678 68.1651C251.609 60.8043 247.113 54.1226 241.448 48.505C235.783 42.8874 229.062 38.445 221.67 35.4337C214.279 32.4224 206.364 30.9017 198.381 30.9593Z" fill="#AD40F0" fill-opacity="0.34"/>
<path d="M388.458 271H4.54309C4.39943 271 4.2618 270.942 4.16036 270.841C4.05892 270.739 4.00195 270.602 4.00195 270.458C4.00195 270.315 4.05892 270.177 4.16036 270.075C4.2618 269.974 4.39943 269.916 4.54309 269.916H388.458C388.602 269.916 388.74 269.973 388.841 270.075C388.943 270.176 389 270.314 389 270.458C389 270.602 388.943 270.74 388.841 270.841C388.74 270.943 388.602 271 388.458 271Z" fill="#3F3D56"/>
<path d="M290.444 124.285C297.996 124.285 304.118 118.17 304.118 110.627C304.118 103.084 297.996 96.969 290.444 96.969C282.893 96.969 276.771 103.084 276.771 110.627C276.771 118.17 282.893 124.285 290.444 124.285Z" fill="#2F2E41"/>
<path d="M265.177 265.021H259.589L256.931 243.493H265.178L265.177 265.021Z" fill="#A0616A"/>
<path d="M255.598 263.426H266.375V270.204H248.813C248.812 269.314 248.988 268.432 249.329 267.61C249.67 266.788 250.17 266.041 250.8 265.411C251.43 264.782 252.178 264.283 253.001 263.942C253.824 263.602 254.707 263.426 255.598 263.426Z" fill="#2F2E41"/>
<path d="M308.478 265.021H302.89L300.231 243.493H308.479L308.478 265.021Z" fill="#A0616A"/>
<path d="M298.899 263.426H309.675V270.204H292.113C292.113 269.314 292.289 268.432 292.63 267.61C292.971 266.788 293.471 266.041 294.101 265.411C294.731 264.782 295.479 264.283 296.302 263.942C297.125 263.602 298.008 263.426 298.899 263.426Z" fill="#2F2E41"/>
<path d="M288.367 124.364C294.549 124.364 299.562 119.358 299.562 113.183C299.562 107.007 294.549 102.001 288.367 102.001C282.184 102.001 277.172 107.007 277.172 113.183C277.172 119.358 282.184 124.364 288.367 124.364Z" fill="#A0616A"/>
<path d="M295.04 160.437L300.049 148.942C301.265 146.245 301.614 143.238 301.046 140.334C300.479 137.431 299.024 134.776 296.881 132.734C296.441 132.3 295.973 131.894 295.482 131.519C293.01 129.587 289.964 128.535 286.826 128.528C284.716 128.536 282.633 128.999 280.718 129.884C280.554 129.957 280.395 130.035 280.231 130.112C279.916 130.262 279.606 130.426 279.305 130.594C277.343 131.72 275.673 133.29 274.43 135.178C273.187 137.067 272.406 139.221 272.149 141.466L269.939 159.968C269.383 161.42 249.546 213.866 256.484 253.907C256.558 254.334 256.766 254.727 257.08 255.028C257.393 255.328 257.794 255.521 258.225 255.578L265.258 256.534C265.771 256.604 266.292 256.477 266.716 256.179C267.14 255.881 267.435 255.433 267.541 254.927L279.342 198.743C279.415 198.394 279.604 198.079 279.878 197.85C280.151 197.62 280.494 197.489 280.851 197.477C281.207 197.465 281.558 197.573 281.847 197.783C282.135 197.994 282.344 198.295 282.441 198.638L299.114 257.722C299.233 258.151 299.49 258.53 299.844 258.799C300.199 259.069 300.633 259.215 301.079 259.215C301.212 259.214 301.345 259.202 301.475 259.179L310.067 257.526C310.567 257.433 311.013 257.157 311.319 256.751C311.625 256.346 311.769 255.842 311.722 255.336C310.459 241.273 303.75 170.831 295.04 160.437Z" fill="#2F2E41"/>
<path d="M244.861 122.488C244.783 123.153 244.852 123.827 245.064 124.462C245.275 125.097 245.623 125.678 246.083 126.164C246.544 126.651 247.105 127.03 247.728 127.276C248.351 127.522 249.021 127.629 249.69 127.589L255.947 142.609L260.681 135.6L254.013 122.411C253.87 121.294 253.323 120.267 252.473 119.526C251.623 118.784 250.531 118.38 249.403 118.39C248.275 118.399 247.189 118.821 246.352 119.577C245.515 120.332 244.985 121.368 244.861 122.488L244.861 122.488Z" fill="#A0616A"/>
<path d="M287.746 175.561C288.412 175.482 289.051 175.257 289.621 174.904C290.19 174.551 290.675 174.078 291.041 173.517C291.407 172.957 291.646 172.323 291.74 171.66C291.834 170.998 291.782 170.322 291.587 169.682L304.753 160.104L296.826 157.139L285.539 166.689C284.484 167.088 283.612 167.86 283.088 168.858C282.564 169.856 282.425 171.011 282.698 172.104C282.97 173.198 283.634 174.154 284.564 174.791C285.495 175.428 286.627 175.702 287.746 175.561Z" fill="#A0616A"/>
<path d="M266.284 152.623C265.779 152.622 265.275 152.573 264.78 152.475C263.583 152.247 262.46 151.728 261.51 150.965C260.56 150.202 259.813 149.216 259.335 148.097L250.568 137.419C250.382 137.194 250.247 136.931 250.172 136.649C250.097 136.367 250.082 136.072 250.13 135.784C250.178 135.496 250.287 135.221 250.45 134.979C250.613 134.736 250.826 134.532 251.074 134.378L257.311 130.521C257.542 130.379 257.798 130.284 258.065 130.241C258.333 130.198 258.606 130.208 258.869 130.271C259.133 130.334 259.381 130.449 259.6 130.608C259.819 130.768 260.004 130.969 260.144 131.2L266.323 141.368L278.156 132.633C279.099 132.139 280.187 132.001 281.223 132.243C282.259 132.485 283.173 133.091 283.798 133.951C284.424 134.81 284.719 135.866 284.629 136.924C284.54 137.983 284.072 138.975 283.311 139.717L271.501 150.478C270.113 151.852 268.238 152.623 266.284 152.623Z" fill="#2F2E41"/>
<path d="M298.258 168.681C298.242 168.681 298.225 168.681 298.209 168.68C297.922 168.673 297.639 168.606 297.379 168.483C297.119 168.36 296.888 168.184 296.7 167.965L291.155 161.504C290.966 161.284 290.826 161.026 290.744 160.748C290.663 160.47 290.641 160.178 290.68 159.891C290.72 159.603 290.82 159.328 290.974 159.082C291.129 158.837 291.333 158.627 291.575 158.466L301.958 151.552L292.551 140.255C292.004 139.344 291.803 138.267 291.986 137.22C292.168 136.173 292.722 135.227 293.545 134.554C294.368 133.881 295.406 133.526 296.47 133.555C297.533 133.583 298.551 133.993 299.337 134.709L310.77 145.869C311.67 146.69 312.357 147.717 312.772 148.861C313.187 150.006 313.317 151.234 313.153 152.44C312.988 153.646 312.533 154.794 311.826 155.786C311.119 156.778 310.182 157.583 309.095 158.134L299.75 168.037C299.558 168.241 299.327 168.402 299.07 168.513C298.814 168.624 298.537 168.681 298.258 168.681Z" fill="#2F2E41"/>
<path d="M285.521 144.871C285.432 144.871 285.343 144.865 285.254 144.854C284.868 144.807 284.504 144.65 284.204 144.403C283.904 144.155 283.682 143.827 283.563 143.457L279.396 130.696C279.292 130.373 279.308 130.024 279.441 129.712C279.575 129.401 279.817 129.148 280.123 129L280.258 128.937C280.381 128.878 280.502 128.821 280.626 128.766C282.569 127.866 284.684 127.396 286.826 127.389C289.607 127.395 292.325 128.21 294.648 129.737C294.96 129.944 295.177 130.265 295.254 130.631C295.331 130.996 295.261 131.378 295.059 131.692L287.242 143.924C287.059 144.214 286.805 144.454 286.504 144.619C286.203 144.785 285.864 144.871 285.521 144.871Z" fill="#E6E6E6"/>
<path d="M301.225 104.529C303.697 104.529 305.7 102.528 305.7 100.06C305.7 97.592 303.697 95.5911 301.225 95.5911C298.754 95.5911 296.751 97.592 296.751 100.06C296.751 102.528 298.754 104.529 301.225 104.529Z" fill="#2F2E41"/>
<path d="M285.887 95.1479C282.744 95.1479 279.73 96.395 277.507 98.6149C275.285 100.835 274.036 103.845 274.036 106.985V111.993H280.203L283.152 106.985L284.037 111.993H302.751L297.738 106.985C297.738 103.845 296.489 100.835 294.267 98.6149C292.044 96.395 289.03 95.1479 285.887 95.1479Z" fill="#2F2E41"/>
<path d="M303.525 96.9991C304.02 95.4537 305.045 94.132 306.419 93.2664C307.792 92.4009 309.428 92.0468 311.037 92.2664C313.889 92.7425 316.143 95.0319 317.487 97.5889C318.83 100.146 319.45 103.008 320.353 105.751C321.256 108.494 322.537 111.252 324.817 113.028C327.097 114.803 330.595 115.285 332.834 113.458C332.578 115.362 331.73 117.137 330.409 118.533C329.087 119.929 327.36 120.874 325.472 121.235C323.583 121.597 321.628 121.356 319.884 120.547C318.14 119.738 316.694 118.402 315.752 116.728C314.571 114.628 314.266 112.167 313.915 109.785C313.565 107.402 313.11 104.936 311.699 102.983C310.289 101.029 307.648 99.7536 305.408 100.643L303.525 96.9991Z" fill="#2F2E41"/>
<path d="M158.035 103.817C153.956 103.817 150.044 102.198 147.16 99.3168C144.275 96.4357 142.655 92.5282 142.655 88.4539C142.654 85.6751 142.656 83.5505 142.661 83.2483C142.79 73.7303 145.19 64.3804 149.661 55.9741C142.315 66.0185 138.276 78.0949 138.103 90.5325C138.098 90.8347 138.096 92.9592 138.097 95.7381C138.097 99.8124 139.717 103.72 142.602 106.601C145.486 109.482 149.398 111.101 153.477 111.101C156.829 111.1 160.089 110.006 162.762 107.985C165.434 105.965 167.374 103.128 168.285 99.9062C165.469 102.429 161.818 103.822 158.035 103.817Z" fill="#3F3D56"/>
<path d="M199.424 63.3311C204.14 63.5561 208.731 64.9208 212.802 67.3082C216.873 69.6956 220.304 73.0343 222.799 77.0377C225.294 81.041 226.779 85.5893 227.126 90.2921C227.473 94.9949 226.673 99.7117 224.793 104.037C227.512 100.848 229.51 97.1109 230.652 93.0803C231.794 89.0497 232.052 84.8206 231.409 80.6813C230.766 76.5421 229.237 72.59 226.926 69.0945C224.615 65.599 221.577 62.6423 218.018 60.426C214.459 58.2096 210.464 56.7858 206.305 56.2514C202.145 55.7171 197.92 56.0849 193.915 57.3298C189.911 58.5746 186.223 60.6672 183.102 63.4649C179.98 66.2626 177.5 69.6996 175.829 73.5416C178.717 70.1487 182.346 67.4636 186.437 65.6933C190.528 63.923 194.971 63.1148 199.424 63.3311Z" fill="#3F3D56"/>
<path d="M204.156 199.422C199.995 199.423 196 197.79 193.034 194.875C190.067 191.961 188.367 187.998 188.299 183.842C188.106 171.797 188.006 156.958 188.006 155.262C188.004 151.136 188.598 147.031 189.772 143.075L189.766 143.074C190.459 141.088 191.296 139.156 192.27 137.292C189.28 141.273 186.899 145.676 185.208 150.358L185.214 150.36C184.04 154.315 183.446 158.42 183.448 162.546C183.448 164.242 183.548 179.082 183.741 191.126C183.809 195.282 185.509 199.245 188.476 202.16C191.442 205.074 195.437 206.707 199.598 206.706C203.029 206.706 206.368 205.594 209.113 203.538C211.858 201.482 213.861 198.592 214.823 195.303C211.907 197.958 208.102 199.428 204.156 199.422Z" fill="#3F3D56"/>
<path d="M61.6771 265.229L67.2648 265.228L69.9234 243.7L61.6758 243.7L61.6771 265.229Z" fill="#FFB8B8"/>
<path d="M78.042 270.411L60.4798 270.412L60.4795 263.634L71.2563 263.634C73.0559 263.634 74.7818 264.348 76.0544 265.619C77.3269 266.89 78.0419 268.613 78.042 270.411L78.042 270.411Z" fill="#2F2E41"/>
<path d="M41.6215 265.229L47.2091 265.228L49.8678 243.7L41.6201 243.7L41.6215 265.229Z" fill="#FFB8B8"/>
<path d="M57.9863 270.411L40.4242 270.412L40.4239 263.634L51.2006 263.634C53.0002 263.634 54.7262 264.348 55.9987 265.619C57.2713 266.89 57.9862 268.613 57.9863 270.411L57.9863 270.411Z" fill="#2F2E41"/>
<path d="M46.5048 258.608L41.0466 258.321C40.7652 258.306 40.4895 258.236 40.2355 258.114C39.9815 257.992 39.7542 257.821 39.5669 257.61C39.3796 257.4 39.2359 257.155 39.1442 256.888C39.0525 256.622 39.0146 256.341 39.0327 256.06L45.5564 183.916L75.5984 192.013L78.4928 191.224L69.4414 255.091C69.3643 255.571 69.1255 256.011 68.7643 256.338C68.4031 256.664 67.9413 256.858 67.455 256.887L61.5712 257.16C61.277 257.177 60.9826 257.132 60.7066 257.029C60.4306 256.926 60.179 256.767 59.9678 256.561C59.7566 256.356 59.5902 256.109 59.4793 255.837C59.3684 255.564 59.3153 255.271 59.3234 254.977L60.3895 216.646C60.3945 216.469 60.3329 216.296 60.2167 216.162C60.1006 216.028 59.9383 215.942 59.762 215.921C59.5857 215.901 59.408 215.947 59.264 216.051C59.1201 216.154 59.0203 216.308 58.9842 216.482L48.7029 256.915C48.6058 257.395 48.3452 257.826 47.9654 258.135C47.5856 258.444 47.1102 258.613 46.6203 258.611C46.582 258.611 46.5435 258.61 46.5048 258.608Z" fill="#2F2E41"/>
<path d="M62.6802 124.887C68.8629 124.887 73.875 119.881 73.875 113.706C73.875 107.53 68.8629 102.524 62.6802 102.524C56.4974 102.524 51.4854 107.53 51.4854 113.706C51.4854 119.881 56.4974 124.887 62.6802 124.887Z" fill="#FFB8B8"/>
<path d="M44.0411 146.557L45.272 173.084L45.717 182.735C45.7347 183.155 45.8775 183.56 46.1271 183.899C46.3768 184.237 46.7219 184.494 47.1182 184.636L75.9866 195.081C76.2198 195.167 76.4669 195.211 76.7156 195.209C77 195.21 77.2817 195.154 77.5439 195.044C77.8062 194.934 78.0436 194.773 78.242 194.57C78.4404 194.366 78.5957 194.125 78.6987 193.86C78.8017 193.595 78.8502 193.313 78.8413 193.029L77.6578 145.332C77.5801 141.419 76.1379 137.655 73.5799 134.69C71.0219 131.725 67.5083 129.745 63.6449 129.09C63.3657 129.047 63.0816 129.005 62.7975 128.967C60.4019 128.67 57.9703 128.901 55.6736 129.643C53.3769 130.386 51.2711 131.622 49.5042 133.265C47.6747 134.946 46.2371 137.007 45.293 139.304C44.349 141.601 43.9216 144.077 44.0411 146.557L44.0411 146.557Z" fill="#CCCCCC"/>
<path d="M89.7777 189.788C89.0949 189.576 88.4711 189.208 87.956 188.713C87.441 188.217 87.049 187.609 86.8112 186.935C86.5735 186.262 86.4967 185.542 86.5868 184.834C86.677 184.126 86.9317 183.448 87.3306 182.856L77.541 169.853L85.9889 169.331L93.9901 181.758C94.8467 182.42 95.4427 183.361 95.6737 184.418C95.9047 185.475 95.7559 186.579 95.2533 187.537C94.7508 188.494 93.9266 189.245 92.9254 189.657C91.9241 190.068 90.8097 190.115 89.7777 189.788H89.7777Z" fill="#FFB8B8"/>
<path d="M82.8943 180.503C82.635 180.398 82.3991 180.242 82.2003 180.045C82.0015 179.849 81.8437 179.614 81.7361 179.356L66.9874 144.258C66.698 143.571 66.547 142.834 66.543 142.088C66.5391 141.343 66.6823 140.604 66.9644 139.913C67.2465 139.223 67.6621 138.595 68.1873 138.066C68.7125 137.536 69.337 137.115 70.0252 136.826C70.7134 136.538 71.4518 136.387 72.1982 136.384C72.9446 136.381 73.6843 136.524 74.3751 136.807C75.0659 137.089 75.6942 137.505 76.2241 138.03C76.7541 138.554 77.1752 139.179 77.4636 139.866L92.2123 174.965C92.4303 175.485 92.4327 176.071 92.2191 176.593C92.0054 177.115 91.5931 177.531 91.0726 177.75L84.5249 180.495C84.2671 180.604 83.9903 180.661 83.7104 180.662C83.4305 180.663 83.1531 180.609 82.8943 180.503L82.8943 180.503Z" fill="#CCCCCC"/>
<path d="M59.0805 179.265L73.2464 152.173C73.5195 151.652 73.9885 151.26 74.5503 151.084C75.1121 150.908 75.7209 150.962 76.2432 151.233L96.8049 161.959C97.3265 162.232 97.7185 162.701 97.8948 163.262C98.0711 163.823 98.0174 164.431 97.7454 164.953L83.5795 192.045C83.3064 192.566 82.8374 192.957 82.2756 193.133C81.7138 193.31 81.105 193.256 80.5827 192.984L60.0211 182.258C59.4994 181.985 59.1074 181.517 58.9311 180.956C58.7548 180.395 58.8085 179.786 59.0805 179.265Z" fill="#3F3D56"/>
<path d="M68.5807 166.887C68.3289 166.219 67.9241 165.619 67.3988 165.134C66.8734 164.65 66.242 164.295 65.5549 164.098C64.8678 163.901 64.1441 163.866 63.4415 163.998C62.7389 164.13 62.0768 164.424 61.5081 164.857L47.9352 155.863L47.9121 164.317L60.8047 171.561C61.5164 172.376 62.4926 172.915 63.5623 173.083C64.6319 173.251 65.7265 173.037 66.6542 172.48C67.5819 171.922 68.2834 171.056 68.6357 170.033C68.9879 169.011 68.9685 167.897 68.5807 166.887Z" fill="#FFB8B8"/>
<path d="M51.4205 168.788L40.3279 160.012C39.1279 159.609 38.0436 158.922 37.1681 158.009C36.2926 157.096 35.652 155.984 35.3013 154.769C34.9506 153.554 34.9003 152.272 35.1548 151.034C35.4092 149.795 35.9607 148.637 36.762 147.658L46.8338 134.474C47.5337 133.62 48.5181 133.046 49.6069 132.857C50.6957 132.667 51.8163 132.876 52.7638 133.444C53.7113 134.012 54.4224 134.902 54.7672 135.951C55.112 137 55.0673 138.137 54.6414 139.156L46.6724 152.177L58.3836 157.725C58.6559 157.854 58.8978 158.039 59.0931 158.268C59.2884 158.498 59.4328 158.766 59.5168 159.055C59.6007 159.344 59.6222 159.648 59.58 159.946C59.5377 160.244 59.4326 160.529 59.2716 160.784L54.5442 168.257C54.3844 168.509 54.1733 168.725 53.9246 168.89C53.676 169.056 53.3953 169.167 53.1008 169.218C53.0891 169.22 53.0773 169.222 53.0655 169.223C52.7761 169.267 52.4808 169.251 52.1979 169.176C51.9149 169.101 51.6504 168.969 51.4205 168.788Z" fill="#CCCCCC"/>
<path d="M54.2206 121.193C54.1726 121.053 54.1574 120.903 54.1761 120.756C54.1948 120.609 54.247 120.468 54.3287 120.344C54.4104 120.22 54.5193 120.117 54.6473 120.042C54.7752 119.966 54.9187 119.921 55.0668 119.91C55.37 119.926 55.6667 120.004 55.939 120.138C56.2113 120.272 56.4536 120.46 56.6511 120.691C57.0563 121.157 57.528 121.562 58.051 121.891C58.5925 122.164 59.327 122.125 59.6357 121.605C59.9256 121.117 59.727 120.463 59.5515 119.896C59.1049 118.454 58.855 116.958 58.8086 115.448C58.758 113.764 58.996 112.006 59.9297 110.692C61.1348 108.996 63.2896 108.352 65.3288 108.399C67.368 108.446 69.3742 109.074 71.3941 109.472C72.0915 109.609 72.9112 109.679 73.3776 109.139C73.8735 108.565 73.6914 107.636 73.4804 106.861C72.933 104.85 72.3523 102.771 71.0805 101.147C69.7054 99.4591 67.7411 98.3545 65.5832 98.0555C63.5116 97.7992 61.4086 98.0377 59.4471 98.7513C56.2515 99.7574 53.4395 101.714 51.3874 104.36C49.2719 107.173 48.3577 110.709 48.8449 114.193C49.3208 117.228 50.931 119.97 53.3508 121.867L54.2206 121.193Z" fill="#2F2E41"/>
<path d="M196.008 265.318C193.03 264.022 190.393 262.053 188.307 259.565C186.222 257.077 184.743 254.14 183.988 250.983C183.234 247.827 183.224 244.539 183.96 241.379C184.695 238.218 186.156 235.271 188.227 232.771C185.826 234.523 183.825 236.764 182.358 239.346C180.89 241.929 179.989 244.794 179.715 247.751C179.44 250.708 179.798 253.689 180.766 256.497C181.733 259.305 183.287 261.876 185.325 264.038C187.363 266.2 189.838 267.905 192.586 269.038C195.334 270.172 198.292 270.709 201.263 270.614C204.235 270.519 207.152 269.793 209.821 268.486C212.491 267.178 214.851 265.318 216.746 263.03C213.791 265.188 210.321 266.534 206.682 266.935C203.044 267.337 199.364 266.779 196.008 265.318Z" fill="#3F3D56"/>
</g>
</g>
<defs>
<filter id="filter0_d" x="0" y="0" width="393" height="279" filterUnits="userSpaceOnUse" color-interpolation-filters="sRGB">
<feFlood flood-opacity="0" result="BackgroundImageFix"/>
<feColorMatrix in="SourceAlpha" type="matrix" values="0 0 0 0 0 0 0 0 0 0 0 0 0 0 0 0 0 0 127 0"/>
<feOffset dy="4"/>
<feGaussianBlur stdDeviation="2"/>
<feColorMatrix type="matrix" values="0 0 0 0 0 0 0 0 0 0 0 0 0 0 0 0 0 0 0.25 0"/>
<feBlend mode="normal" in2="BackgroundImageFix" result="effect1_dropShadow"/>
<feBlend mode="normal" in="SourceGraphic" in2="effect1_dropShadow" result="shape"/>
</filter>
<clipPath id="clip0">
<rect width="385" height="271" fill="white" transform="translate(4)"/>
</clipPath>
</defs>
</svg>
