<svg width="50" height="50" viewBox="0 0 50 50" fill="none" xmlns="http://www.w3.org/2000/svg">
<circle cx="25" cy="25" r="25" fill="#6C63FF"/>
<path d="M38.9994 33.1491C38.9559 30.0084 36.3699 27.4609 33.2304 27.4609C33.2236 27.4609 33.2169 27.461 33.2101 27.461C32.0013 27.4651 30.8316 27.8477 29.8594 28.5483C28.4564 27.8444 26.754 27.4609 25 27.4609C23.1166 27.4609 21.3232 27.9002 19.8875 28.6809C20.1376 26.8959 20.3955 23.8595 20.3208 19.1302H24.5036L25.9296 15.7746L24.6443 11H20.6534C17.5677 11 14.853 13.0816 14.0516 16.0619C12.6595 21.2394 11 29.2794 11 38.1796V38.9999H25C26.754 38.9999 28.4564 38.6165 29.8593 37.9126C30.8371 38.6172 32.0141 38.9999 33.2304 38.9999C34.7866 38.9999 36.2455 38.3897 37.3384 37.2816C38.431 36.1738 39.0209 34.7062 38.9994 33.1491ZM36.1703 36.1296C35.3882 36.9226 34.3441 37.3593 33.2304 37.3593C32.2192 37.3593 31.2461 36.9897 30.4904 36.3187L30.0436 35.9221L29.5291 36.2255C28.2892 36.9567 26.6807 37.3593 25 37.3593H12.6454C12.7427 28.9649 14.3124 21.4101 15.636 16.4879C16.245 14.2227 18.3083 12.6406 20.6534 12.6406H23.3869L24.1981 15.6542L23.4182 17.4896H19.7577V16.013H18.1171V19.1302H18.6799C18.7456 23.2648 18.5492 26.0202 18.366 27.6333C18.1547 29.495 17.9149 30.2807 17.9135 30.2851L17.5713 31.3552H19.0943L19.3355 31.109C20.5671 29.852 22.6846 29.1015 25 29.1015C26.6807 29.1015 28.2892 29.5042 29.529 30.2353L30.0436 30.5388L30.4904 30.1421C31.2421 29.4746 32.21 29.105 33.2158 29.1016C33.2207 29.1016 33.2253 29.1015 33.2303 29.1015C35.477 29.1015 37.3279 30.9245 37.3589 33.1717C37.3743 34.2863 36.9522 35.3368 36.1703 36.1296Z" fill="white"/>
</svg>
