<svg width="47" height="47" viewBox="0 0 47 47" fill="none" xmlns="http://www.w3.org/2000/svg">
<path d="M23.5 0C10.5416 0 0 10.5416 0 23.5C0 36.4584 10.5416 47 23.5 47C36.4584 47 47 36.4584 47 23.5C47 10.5416 36.4584 0 23.5 0Z" fill="#8258FB"/>
<path d="M35.4106 18.5202L22.6814 31.2491C22.2995 31.631 21.7982 31.8232 21.2969 31.8232C20.7956 31.8232 20.2943 31.631 19.9124 31.2491L13.5479 24.8846C12.782 24.1191 12.782 22.8812 13.5479 22.1157C14.3135 21.3497 15.551 21.3497 16.3169 22.1157L21.2969 27.0956L32.6417 15.7512C33.4073 14.9853 34.6447 14.9853 35.4106 15.7512C36.1762 16.5168 36.1762 17.7542 35.4106 18.5202Z" fill="#FAFAFA"/>
</svg>
