<svg width="89" height="88" viewBox="0 0 89 88" fill="none" xmlns="http://www.w3.org/2000/svg">
<path d="M89 52.198C89 45.5341 83.5541 40.1126 76.8605 40.1126C70.1669 40.1126 64.7211 45.5341 64.7211 52.198C64.7211 58.0027 68.8535 62.8632 74.343 64.0207V74.2227C74.343 78.9783 69.1885 82.8475 62.8526 82.8475H42.2209C35.8851 82.8475 30.7306 78.9784 30.7306 74.2227V62.0697C33.7628 61.0124 35.9424 58.1542 35.9424 54.8007V50.4176H36.5249C47.4203 50.4176 56.2842 41.6596 56.2842 30.8944V7.86705C56.2842 6.44426 55.1167 5.29079 53.6767 5.29079H46.5526V2.57626C46.5526 1.15348 45.3851 0 43.9451 0H38.7273C34.337 0 30.7651 3.52914 30.7651 7.86705C30.7651 12.205 34.337 15.7343 38.7273 15.7343H43.9451C45.3851 15.7343 46.5526 14.5808 46.5526 13.158V10.4433H51.0693V30.8944C51.0693 38.8184 44.5447 45.2651 36.5249 45.2651H19.7596C11.7397 45.2651 5.21519 38.8184 5.21519 30.8944V10.4433H9.73194V13.1578C9.73194 14.5806 10.8994 15.7341 12.3394 15.7341H17.5573C21.9477 15.7341 25.5195 12.2048 25.5195 7.86688C25.519 3.52914 21.9472 0 17.5568 0H12.3388C10.8988 0 9.73142 1.15348 9.73142 2.57626V5.29079H2.60742C1.16743 5.29079 0 6.44426 0 7.86705V30.8944C0 41.6596 8.86402 50.4176 19.7592 50.4176H20.3417V54.8007C20.3417 58.1401 22.5029 60.9891 25.5154 62.057V74.2227C25.5154 78.0106 27.3275 81.5363 30.6181 84.1507C33.7423 86.633 37.8629 88 42.2208 88H62.8524C67.2103 88 71.3309 86.633 74.4551 84.1507C77.7457 81.5363 79.5577 78.0106 79.5577 74.2227V63.9793C84.9569 62.7543 89 57.939 89 52.198ZM41.3374 10.5816H38.727C37.2121 10.5816 35.9796 9.36369 35.9796 7.86688C35.9796 6.37007 37.2121 5.15236 38.727 5.15236H41.3374V10.5816ZM14.9463 5.15253H17.5568C19.0717 5.15253 20.3042 6.37024 20.3042 7.86705C20.3042 9.36386 19.0717 10.5817 17.5568 10.5817H14.9463V5.15253ZM30.7273 50.4176V54.8007C30.7273 56.2093 29.5675 57.3552 28.1419 57.3552C26.7163 57.3552 25.5566 56.2093 25.5566 54.8007V50.4176H30.7273ZM76.8604 59.1311C73.0421 59.1311 69.9357 56.021 69.9357 52.198C69.9357 48.3752 73.0422 45.2651 76.8604 45.2651C80.6787 45.2651 83.785 48.3752 83.785 52.198C83.7852 56.021 80.6787 59.1311 76.8604 59.1311Z" fill="#AD40F0"/>
</svg>
