<svg width="26" height="26" viewBox="0 0 26 26" fill="none" xmlns="http://www.w3.org/2000/svg">
<g clip-path="url(#clip0)">
<path d="M4.82626 16.2968L5.39955 14.7425C5.4211 14.6839 5.47681 14.6451 5.5391 14.6451C5.60139 14.6451 5.6571 14.6839 5.67865 14.7425L6.25194 16.2968C6.71598 17.5552 7.70792 18.5471 8.96618 19.0111L10.5205 19.5843C10.579 19.6059 10.6178 19.6616 10.6178 19.7239C10.6178 19.7862 10.579 19.8419 10.5205 19.8635L8.96609 20.4367C7.70783 20.9008 6.71589 21.8926 6.25194 23.1509L5.67865 24.7052C5.6571 24.7637 5.60139 24.8025 5.5391 24.8025C5.47681 24.8025 5.4211 24.7637 5.39955 24.7052L4.82626 23.1509C4.36222 21.8926 3.37037 20.9008 2.11202 20.4367L0.557568 19.8635C0.499136 19.8419 0.460327 19.7862 0.460327 19.7239C0.460327 19.6616 0.499136 19.6059 0.557568 19.5843L2.11193 19.0111C3.37028 18.5471 4.36222 17.5553 4.82626 16.2968Z" fill="#6C63FF"/>
<path d="M17.4287 9.73157L15.8744 10.3048C14.6161 10.7688 13.6241 11.7607 13.1602 13.0189L12.5869 14.5733C12.5653 14.6317 12.5096 14.6705 12.4473 14.6705C12.3851 14.6705 12.3293 14.6317 12.3078 14.5733L11.7345 13.019C11.2705 11.7607 10.2785 10.7688 9.02026 10.3048L7.46589 9.73157C7.40746 9.71002 7.36865 9.65431 7.36865 9.59202C7.36865 9.52973 7.40746 9.47402 7.46589 9.45247L9.02035 8.8791C10.2786 8.41506 11.2705 7.4232 11.7345 6.16494L12.3078 4.61049C12.3293 4.55205 12.3851 4.51325 12.4473 4.51325C12.5096 4.51325 12.5653 4.55205 12.5869 4.61049L13.1602 6.16494C13.6242 7.4232 14.6161 8.41514 15.8743 8.8791L17.4288 9.45247C17.4872 9.47402 17.526 9.52973 17.526 9.59202C17.526 9.65431 17.4871 9.71002 17.4287 9.73157Z" fill="#6C63FF"/>
<path d="M25.4732 16.3802L24.4168 16.7698C23.5617 17.0852 22.8876 17.7593 22.5722 18.6144L22.1826 19.6707C22.1679 19.7104 22.1301 19.7369 22.0878 19.7369C22.0454 19.7369 22.0076 19.7104 21.9929 19.6707L21.6034 18.6145C21.288 17.7593 20.6139 17.0852 19.7587 16.7698L18.7024 16.3802C18.6627 16.3656 18.6362 16.3278 18.6362 16.2854C18.6362 16.2431 18.6627 16.2052 18.7024 16.1906L19.7588 15.8011C20.6139 15.4856 21.288 14.8115 21.6034 13.9564L21.9929 12.8999C22.0076 12.8602 22.0454 12.8338 22.0878 12.8338C22.1301 12.8338 22.1679 12.8602 22.1826 12.8999L22.5722 13.9564C22.8876 14.8116 23.5616 15.4856 24.4168 15.801L25.4732 16.1906C25.5129 16.2052 25.5394 16.2431 25.5394 16.2854C25.5394 16.3278 25.5129 16.3656 25.4732 16.3802Z" fill="#6C63FF"/>
<path d="M22.9142 2.47371L22.1773 2.74555C21.5808 2.96553 21.1106 3.4357 20.8906 4.03211L20.6188 4.76886C20.6087 4.79654 20.5822 4.81494 20.5527 4.81494C20.5232 4.81494 20.4967 4.79654 20.4865 4.76886L20.2147 4.03211C19.9947 3.43561 19.5246 2.96544 18.9281 2.74555L18.1912 2.47371C18.1635 2.46355 18.1451 2.4371 18.1451 2.40757C18.1451 2.37805 18.1635 2.35159 18.1912 2.34143L18.9281 2.0696C19.5246 1.84962 19.9948 1.37936 20.2148 0.782864L20.4866 0.0460229C20.4968 0.0183396 20.5232 -5.72205e-05 20.5528 -5.72205e-05C20.5823 -5.72205e-05 20.6087 0.0183396 20.6189 0.0460229L20.8907 0.782864C21.1107 1.37936 21.5809 1.84962 22.1775 2.0696L22.9143 2.34143C22.942 2.35159 22.9604 2.37805 22.9604 2.40757C22.9604 2.4371 22.942 2.46355 22.9142 2.47371Z" fill="#6C63FF"/>
<path d="M17.48 23.6587L16.7431 23.9304C16.1466 24.1504 15.6764 24.6206 15.4565 25.2171L15.1847 25.9538C15.1745 25.9816 15.1481 26 15.1186 26C15.089 26 15.0626 25.9816 15.0524 25.9539L14.7807 25.2173C14.5607 24.6208 14.0904 24.1505 13.4939 23.9305L12.757 23.6588C12.7293 23.6486 12.7109 23.6222 12.7109 23.5926C12.7109 23.5631 12.7293 23.5367 12.757 23.5265L13.4939 23.2547C14.0904 23.0347 14.5607 22.5644 14.7807 21.9678L15.0524 21.2311C15.0626 21.2034 15.089 21.185 15.1186 21.185C15.1481 21.185 15.1745 21.2034 15.1847 21.2311L15.4565 21.9679C15.6765 22.5645 16.1467 23.0347 16.7433 23.2546L17.4801 23.5264C17.5078 23.5366 17.5262 23.563 17.5262 23.5925C17.5262 23.6221 17.5078 23.6485 17.48 23.6587Z" fill="#6C63FF"/>
<path d="M8.4415 3.9886L7.51464 4.33026C6.7644 4.60691 6.17289 5.19842 5.89606 5.94875L5.55432 6.8756C5.54144 6.91038 5.50824 6.93359 5.47109 6.93359C5.43395 6.93359 5.40075 6.91038 5.38787 6.8756L5.04613 5.94883C4.76947 5.1985 4.17796 4.607 3.42755 4.33026L2.50087 3.9886C2.46591 3.97581 2.44287 3.94252 2.44287 3.90537C2.44287 3.86823 2.466 3.83494 2.50087 3.82215L3.42763 3.48032C4.17788 3.20366 4.76938 2.61216 5.04613 1.86183L5.38787 0.934973C5.40075 0.900106 5.43395 0.87698 5.47109 0.87698C5.50824 0.87698 5.54153 0.900106 5.55432 0.934973L5.89615 1.86191C6.17281 2.61216 6.76422 3.20357 7.51456 3.48032L8.4415 3.82215C8.47637 3.83494 8.49949 3.86823 8.49949 3.90537C8.49949 3.94252 8.47645 3.97581 8.4415 3.9886Z" fill="#6C63FF"/>
</g>
<defs>
<clipPath id="clip0">
<rect width="26" height="26" fill="white" transform="matrix(1 0 0 -1 0 26)"/>
</clipPath>
</defs>
</svg>
