<svg width="634" height="552" xmlns="http://www.w3.org/2000/svg">
 <defs>
  <clipPath id="clip0">
   <rect id="svg_1" x="-330" y="1" fill="white" height="552" width="886"/>
  </clipPath>
 </defs>
 <g>
  <title>Layer 1</title>
  <g stroke="null" id="svg_35">
   <path stroke="null" id="svg_2" fill="#F7EAFF" d="m308.75319,23.39698c52.15466,26.93861 35.45244,122.06535 87.80379,148.61891c63.16351,32.03713 160.014,-50.52628 208.12513,1.47937c41.03137,44.35131 -23.53403,115.9011 -48.70121,170.84881c-19.21513,41.95046 -43.46798,81.20802 -79.77633,109.65103c-32.16111,25.1934 -74.44655,27.04351 -112.76593,41.18038c-41.82053,15.42789 -78.2755,43.31778 -122.78178,45.71743c-56.8896,3.06841 -123.68538,9.35425 -164.71079,-30.21325c-40.91335,-39.46021 -26.70615,-107.12502 -35.87443,-163.24811c-9.3769,-57.40816 -35.33204,-114.27034 -18.55233,-169.9619c17.70953,-58.77785 58.23427,-112.16513 112.29626,-141.16365c52.60169,-28.21533 121.90322,-40.30158 174.93764,-12.90903z" clip-rule="evenodd" fill-rule="evenodd"/>
   <g stroke="null" id="svg_3" clip-path="url(#clip0)">
    <path stroke="null" id="svg_4" fill="#CCCCCC" d="m281.41166,488.54871c145.07367,0 262.67944,-6.9534 262.67944,-15.53041c0,-8.5782 -117.60578,-15.5316 -262.67944,-15.5316c-145.07367,0 -262.67825,6.9534 -262.67825,15.5316c0,8.57701 117.60458,15.53041 262.67825,15.53041z"/>
    <path stroke="null" id="svg_5" fill="black" d="m228.68838,484.26438c108.67472,0 196.77415,-4.79574 196.77415,-10.71083c0,-5.9151 -88.09943,-10.71083 -196.77415,-10.71083c-108.67591,0 -196.77415,4.79574 -196.77415,10.71083c0,5.9151 88.09824,10.71083 196.77415,10.71083z" opacity="0.1"/>
    <path stroke="null" id="svg_6" fill="#EFE4E0" d="m368.97227,292.76399l-301.28136,0l0,178.8417l301.28136,0l0,-178.8417z"/>
    <path stroke="null" id="svg_7" fill="#6C63FF" d="m164.66537,451.83982c37.43844,0 67.78878,-30.34319 67.78878,-67.77209c0,-37.42891 -30.35034,-67.77209 -67.78878,-67.77209c-37.43725,0 -67.78759,30.34319 -67.78759,67.77209c0,37.42891 30.35034,67.77209 67.78759,67.77209z"/>
    <path stroke="null" id="svg_8" fill="#6C63FF" d="m275.76359,321.00196l-22.59586,0l0,22.5911l22.59586,0l0,-22.5911z"/>
    <path stroke="null" id="svg_9" fill="#6C63FF" d="m304.00872,321.00196l-22.59706,0l0,22.5911l22.59706,0l0,-22.5911z" opacity="0.5"/>
    <path stroke="null" id="svg_10" fill="#6C63FF" d="m332.25384,321.00196l-22.59706,0l0,22.5911l22.59706,0l0,-22.5911z" opacity="0.2"/>
    <path stroke="null" id="svg_11" fill="#2F2E41" d="m275.76359,349.23994l-22.59586,0l0,22.5911l22.59586,0l0,-22.5911z"/>
    <path stroke="null" id="svg_12" fill="#2F2E41" d="m304.00872,349.23994l-22.59706,0l0,22.5911l22.59706,0l0,-22.5911z" opacity="0.5"/>
    <path stroke="null" id="svg_13" fill="#2F2E41" d="m332.25384,349.23994l-22.59706,0l0,22.5911l22.59706,0l0,-22.5911z" opacity="0.2"/>
    <path stroke="null" id="svg_14" fill="#FF6584" d="m275.76359,377.47791l-22.59586,0l0,22.5911l22.59586,0l0,-22.5911z"/>
    <path stroke="null" id="svg_15" fill="#FF6584" d="m304.00872,377.47791l-22.59706,0l0,22.5911l22.59706,0l0,-22.5911z" opacity="0.5"/>
    <path stroke="null" id="svg_16" fill="#FF6584" d="m332.25384,377.47791l-22.59706,0l0,22.5911l22.59706,0l0,-22.5911z" opacity="0.2"/>
    <path stroke="null" id="svg_17" fill="#3F3D56" d="m164.66537,316.29563l0,135.54419c37.43844,0 69.67227,-30.34319 69.67227,-67.77209c0,-37.42891 -32.23382,-67.77209 -69.67227,-67.77209z" opacity="0.5"/>
    <path stroke="null" id="svg_18" fill="#FFB9B9" d="m433.46495,305.47155c0,0 39.54246,17.88357 25.4199,38.59118c-14.12256,20.7088 -56.49025,60.24173 -57.4308,68.71384c-0.94174,8.47092 -6.59101,16.00128 -6.59101,16.00128c0,0 -18.83008,-19.76706 -16.9466,-21.64935c1.88229,-1.88229 20.71238,-19.76706 21.65412,-24.47339c0.94174,-4.70633 29.18687,-41.41522 29.18687,-41.41522l-25.42109,-22.5911l30.12861,-13.17724z"/>
    <path stroke="null" id="svg_19" fill="black" d="m433.46495,305.47155c0,0 39.54246,17.88357 25.4199,38.59118c-14.12256,20.7088 -56.49025,60.24173 -57.4308,68.71384c-0.94174,8.47092 -6.59101,16.00128 -6.59101,16.00128c0,0 -18.83008,-19.76706 -16.9466,-21.64935c1.88229,-1.88229 20.71238,-19.76706 21.65412,-24.47339c0.94174,-4.70633 29.18687,-41.41522 29.18687,-41.41522l-25.42109,-22.5911l30.12861,-13.17724z" opacity="0.1"/>
    <path stroke="null" id="svg_20" fill="#FFB9B9" d="m383.56571,345.00448c0,0 27.30338,11.29495 25.4199,29.17972c-1.88349,17.88357 32.95265,68.71264 32.95265,68.71264c0,0 3.76578,12.23669 2.82404,16.00247c-0.94055,3.76459 24.47935,2.82284 24.47935,2.82284l0,-8.47092c0,0 -19.77183,-33.88605 -21.65412,-43.2987c-1.88349,-9.41266 -13.18082,-46.12274 -13.18082,-46.12274c0,0 -3.76697,-32.9443 -22.59706,-32.9443c-5.47999,0 -10.88607,1.27552 -15.78909,3.72644c-4.90183,2.45092 -9.16709,6.00927 -12.45484,10.39255l0,0z"/>
    <path stroke="null" id="svg_21" fill="#2F2E41" d="m384.97713,259.81968c0,0 56.49025,46.12155 54.60677,49.88733c-1.88229,3.76459 -29.18568,17.88357 -33.8932,18.82532c-4.70752,0.94174 -38.0166,-68.71264 -38.0166,-68.71264l17.30303,0z"/>
    <path stroke="null" id="svg_22" fill="black" d="m384.97713,259.81968c0,0 56.49025,46.12155 54.60677,49.88733c-1.88229,3.76459 -29.18568,17.88357 -33.8932,18.82532c-4.70752,0.94174 -38.0166,-68.71264 -38.0166,-68.71264l17.30303,0z" opacity="0.1"/>
    <path stroke="null" id="svg_23" fill="#2F2E41" d="m323.77935,269.23234c0,0 -5.64807,25.41394 9.41504,35.76834c15.06431,10.3544 40.4854,50.82907 43.30943,50.82907c2.82404,0 43.30943,-21.64935 41.42595,-25.41513c-1.88229,-3.76459 -22.59586,-36.70889 -22.59586,-36.70889l-6.59101,-34.82779c0,0 -57.4308,-1.88229 -64.96355,10.3544z"/>
    <path stroke="null" id="svg_24" fill="#FFB9B9" d="m384.97713,186.39952l8.4733,54.59485l15.06431,38.59118c0,0 22.59586,23.53284 9.41504,25.41513c-13.18082,1.88229 -20.71238,-25.41513 -20.71238,-25.41513l-12.24027,-22.5899l0,-70.59613z"/>
    <path stroke="null" id="svg_25" fill="black" d="m384.97713,186.39952l8.4733,54.59485l15.06431,38.59118c0,0 22.59586,23.53284 9.41504,25.41513c-13.18082,1.88229 -20.71238,-25.41513 -20.71238,-25.41513l-12.24027,-22.5899l0,-70.59613z" opacity="0.1"/>
    <path stroke="null" id="svg_26" fill="#FFB9B9" d="m353.43709,125.68811c0,0 0,19.76587 -6.59101,21.64935c-6.58981,1.88229 26.36283,27.29623 26.36283,27.29623c0,0 -3.76578,-32.9443 9.41504,-41.41641l-29.18687,-7.52917z"/>
    <path stroke="null" id="svg_27" fill="black" d="m353.43709,125.68811c0,0 0,19.76587 -6.59101,21.64935c-6.58981,1.88229 26.36283,27.29623 26.36283,27.29623c0,0 -3.76578,-32.9443 9.41504,-41.41641l-29.18687,-7.52917z" opacity="0.1"/>
    <path stroke="null" id="svg_28" fill="#FFB9B9" d="m368.5014,141.68939c11.95894,0 21.65412,-9.6928 21.65412,-21.64935c0,-11.95656 -9.69518,-21.64935 -21.65412,-21.64935c-11.96013,0 -21.65531,9.6928 -21.65531,21.64935c0,11.95656 9.69518,21.64935 21.65531,21.64935z"/>
    <path stroke="null" id="svg_29" fill="#6C63FF" d="m369.44195,165.22104c0,0 -19.77064,-24.47339 -22.59586,-23.53165c-2.82404,0.94174 -23.53761,21.64935 -25.4199,28.23797c-1.88349,6.58862 -5.64926,53.65311 -2.82523,63.06576c2.82523,9.41266 2.82523,33.88605 1.88349,35.76834c-0.94174,1.88229 -6.59101,6.58862 -0.94174,6.58862c5.64926,0 25.42109,-14.11899 38.60191,-11.29495c13.18082,2.82404 31.06916,-0.94174 32.01091,-2.82404c0.94174,-1.88229 -0.94174,-50.82907 0,-54.59366c0.94174,-3.76578 -1.88349,-22.5911 -2.82404,-26.35568c-0.94174,-3.76578 -0.94174,-18.82532 -10.35679,-22.5911l-4.01492,-0.39577l-0.22411,9.31014l-3.29372,-1.384z"/>
    <path stroke="null" id="svg_30" fill="#FFB9B9" d="m328.016,214.16782c0,0 1.88349,29.17972 16.00605,41.41522c14.12256,12.23669 44.25118,32.9455 46.13347,36.71008c1.88349,3.76578 19.77183,23.53165 23.53761,15.06073c1.09314,-2.64165 1.35659,-5.55151 0.75459,-8.34575c-0.54597,-2.77754 -1.6558,-5.41442 -3.25914,-7.74732c-1.60335,-2.3329 -3.66684,-4.31294 -6.06411,-5.81973l-8.37793,-5.38462l-41.42595,-43.2987l-1.88349,-22.5899l-25.42109,0z"/>
    <path stroke="null" id="svg_31" fill="#2F2E41" d="m382.15309,403.83479c0,0 -10.82766,-2.35316 -14.59343,4.23546c-3.76578,6.58862 3.76578,24.47339 3.76578,24.47339c0,0 21.65412,45.181 25.42109,39.53293c3.76578,-5.64807 -2.82523,-26.35568 -2.82523,-26.35568c0,0 9.41504,-20.70761 5.64926,-21.64935c-3.76578,-0.94174 -17.41747,-8.94179 -17.41747,-20.23674z"/>
    <path stroke="null" id="svg_32" fill="#2F2E41" d="m448.52926,457.95757c0,0 -5.64926,-2.82404 -6.59101,0c-0.94174,2.82404 -6.59101,16.94302 0,18.82532c6.59101,1.88229 71.55456,3.76578 69.67108,0c-1.88349,-3.76459 -12.23908,-8.47092 -18.83008,-10.3544c-6.59101,-1.88229 -23.53761,-16.00128 -23.53761,-16.00128c0,0 -9.41504,12.23669 -20.71238,7.53037z"/>
    <path stroke="null" id="svg_33" fill="#2F2E41" d="m390.31526,102.85741c-0.4065,-1.36612 -1.30175,-2.53436 -2.51529,-3.28179c0.06199,-1.46268 -0.11682,-2.92655 -0.53167,-4.33202c-1.38281,-4.08883 -4.66103,-3.85399 -7.75328,-5.66238c-1.34228,-0.78439 -1.25884,-1.47818 -1.95739,-2.76562c-0.91552,-1.68918 -2.28641,-3.08749 -3.95651,-4.03638c-1.98362,-1.2636 -4.0781,-2.56535 -6.42531,-2.72509c-4.93282,-0.33617 -8.7141,4.30221 -13.42877,5.78993c-2.07779,0.65684 -4.31056,0.68425 -6.40027,1.30413c-2.08852,0.61988 -4.17228,2.10164 -4.4846,4.25692c-0.14305,0.99658 0.11086,2.017 -0.03576,3.01238c-0.28968,1.97766 -2.02534,3.36286 -3.18762,4.99004c-2.56893,3.5977 -2.27568,8.68072 -0.22053,12.59551c0.43272,0.80942 0.92863,1.58427 1.48175,2.3174c0.17166,1.85011 0.70333,3.64895 1.5652,5.29522c2.05395,3.91479 5.58966,6.84015 9.28391,9.26961c-0.30279,-1.29817 -0.48637,-2.62019 -0.54836,-3.95174c-0.05126,-0.44465 0.00596,-0.89406 0.16928,-1.3101c0.41127,-0.85949 1.49725,-1.08837 2.32694,-1.55924c1.71659,-0.97512 2.38893,-3.13398 2.43899,-5.10687c0.05007,-1.97289 -0.36835,-3.94936 -0.16212,-5.91271c0.00834,-0.4518 0.11086,-0.89644 0.3016,-1.30533c0.19073,-0.40888 0.46491,-0.77485 0.80465,-1.07168c0.63419,-0.3612 1.35778,-0.53286 2.08614,-0.4971c3.51663,-0.14305 7.19181,-0.20742 10.2936,-1.87037c1.00015,-0.66399 2.0766,-1.20877 3.20431,-1.62004c2.63569,-0.68783 5.33098,1.15989 6.84969,3.42127c1.5199,2.26018 2.27806,4.95071 3.67995,7.28718c1.40189,2.33528 3.823,4.41785 6.53379,4.14128c0.15259,0.00119 0.30398,-0.03099 0.44345,-0.09298c0.13947,-0.06199 0.26345,-0.15259 0.36597,-0.26703c0.11682,-0.20981 0.16928,-0.44941 0.14901,-0.68902l0.15139,-10.35798c0.12636,-1.77262 -0.05126,-3.5524 -0.52213,-5.26541z"/>
    <path stroke="null" id="svg_34" fill="#6C63FF" d="m336.49049,166.16278c0,0 20.71238,9.41266 19.77064,29.17972c-0.94055,19.76587 5.64926,21.64935 -10.35559,23.53165c-16.00605,1.88229 -19.77183,0 -20.71357,1.88229c-0.94174,1.88229 -6.59101,-43.2987 -2.82404,-48.00503c3.76578,-4.70633 14.12256,-6.58862 14.12256,-6.58862z"/>
   </g>
  </g>
 </g>
</svg>