<svg width="56" height="56" viewBox="0 0 56 56" fill="none" xmlns="http://www.w3.org/2000/svg">
<circle cx="28" cy="28" r="27.5" fill="#8258FB" stroke="#FFFCFC"/>
<path d="M46.8045 18.6269C46.3399 17.0204 44.9783 15.754 43.2515 15.3214C40.097 14.5185 27.4784 14.5185 27.4784 14.5185C27.4784 14.5185 14.8603 14.5185 11.7057 15.291C10.0122 15.7231 8.61734 17.0206 8.1528 18.6269C7.32263 21.5612 7.32263 27.6465 7.32263 27.6465C7.32263 27.6465 7.32263 33.7624 8.1528 36.666C8.61783 38.2723 9.97897 39.5387 11.706 39.9713C14.8935 40.7745 27.4789 40.7745 27.4789 40.7745C27.4789 40.7745 40.097 40.7745 43.2515 40.002C44.9785 39.5696 46.3399 38.3032 46.805 36.6969C47.6349 33.7624 47.6349 27.6774 47.6349 27.6774C47.6349 27.6774 47.6681 21.5612 46.8045 18.6269ZM23.4609 33.2683V22.0247L33.9539 27.6465L23.4609 33.2683Z" fill="white"/>
</svg>
